<svg width="772" height="528" viewBox="0 0 772 528" fill="none" xmlns="http://www.w3.org/2000/svg">
<rect width="772" height="528" fill="white"/>
<g clip-path="url(#clip0_103_99)">
<path d="M265.917 192.504L246.061 244.956H235.134L254.996 192.504H265.917ZM236.72 192.504L216.874 244.956H227.801L247.657 192.504H236.72Z" fill="#647676"/>
<path d="M298.871 232.169H279.163L274.524 244.929H264.86L284.188 193.278H293.851L313.174 244.929H303.51L298.871 232.169ZM281.963 223.888H296.055L289.054 204.598L281.963 223.888Z" fill="#1D3538"/>
<path d="M346.196 238.852C344.825 241.007 342.922 242.774 340.67 243.984C338.418 245.194 335.893 245.806 333.336 245.762C322.684 245.762 315.155 237.18 315.155 226.245C315.155 215.311 322.684 206.824 333.41 206.824C335.952 206.768 338.465 207.371 340.705 208.572C342.945 209.774 344.835 211.534 346.191 213.681V192.582H354.481V244.992H346.196V238.852ZM334.995 215C332.76 214.98 330.569 215.622 328.7 216.846C326.83 218.069 325.366 219.818 324.492 221.872C323.619 223.926 323.375 226.192 323.791 228.385C324.208 230.577 325.267 232.597 326.833 234.189C328.399 235.781 330.403 236.873 332.592 237.328C334.78 237.783 337.054 237.579 339.127 236.744C341.2 235.908 342.977 234.478 344.236 232.634C345.494 230.789 346.176 228.614 346.196 226.383V226.245C346.219 224.791 345.954 223.346 345.417 221.993C344.88 220.641 344.081 219.407 343.066 218.363C342.052 217.319 340.841 216.484 339.503 215.907C338.165 215.33 336.727 215.022 335.27 215H334.995Z" fill="#1D3538"/>
<path d="M364.055 207.558H372.424V249.022C372.424 257.304 367.933 261.255 361.329 261.255C360.062 261.28 358.803 261.047 357.63 260.569V252.129C358.518 252.694 359.542 253.009 360.594 253.042C362.956 253.042 364.097 251.67 364.097 249.012L364.055 207.558ZM368.335 191C369.008 190.994 369.676 191.12 370.3 191.371C370.924 191.623 371.492 191.994 371.973 192.465C372.453 192.936 372.836 193.496 373.099 194.115C373.363 194.733 373.501 195.397 373.507 196.069V196.164C373.507 197.534 372.962 198.847 371.992 199.816C371.022 200.784 369.707 201.328 368.335 201.328C366.963 201.328 365.647 200.784 364.677 199.816C363.707 198.847 363.162 197.534 363.162 196.164V196.164C363.157 195.492 363.284 194.824 363.536 194.201C363.789 193.577 364.162 193.01 364.635 192.53C365.107 192.051 365.67 191.669 366.29 191.406C366.91 191.144 367.576 191.006 368.25 191H368.335Z" fill="#1D3538"/>
<path d="M405.923 239.686C403.941 243.257 400.518 245.763 395.355 245.763C387.139 245.763 381.813 239.612 381.813 231.331V207.558H390.183V229.052C390.183 234.142 393.147 237.56 398.018 237.56C402.737 237.56 405.701 234.396 405.944 229.585V207.558H414.25V244.929H405.923V239.686Z" fill="#1D3538"/>
<path d="M429.123 207.558L439.162 234.596L449.354 207.558H458.178L443.648 244.929H434.856L420.294 207.558H429.123Z" fill="#1D3538"/>
<path d="M464.444 209.156C467.808 207.636 471.456 206.841 475.149 206.824C484.432 206.824 490.439 211.308 490.439 221.863V244.955H482.07V241.511C480.98 242.875 479.589 243.969 478.005 244.707C476.421 245.444 474.687 245.806 472.94 245.762C464.724 245.762 460.259 239.992 460.259 233.462C460.259 226.605 465.506 221.23 473.114 221.23C476.765 221.23 480.189 222.812 482.097 224.801V221.683C482.097 216.372 478.446 214.241 474.261 214.241C470.776 214.299 467.377 215.325 464.444 217.205V209.156ZM475.223 239.459C478.953 239.459 481.996 236.822 481.996 233.462C481.996 230.102 478.953 227.396 475.223 227.396C471.492 227.396 468.528 230.133 468.528 233.477C468.528 236.822 471.572 239.459 475.223 239.459Z" fill="#1D3538"/>
<path d="M508.018 212.874C509.994 209.23 513.492 206.824 518.517 206.824C526.807 206.824 532.133 212.901 532.133 221.256V244.955H523.763V223.355C523.763 218.344 520.799 214.916 515.838 214.916C511.12 214.916 508.15 218.081 508.002 222.891V244.918H499.649V207.557H508.018V212.874Z" fill="#1D3538"/>
<path d="M543.852 244.929V214.7H537.538V207.558H544.306V198.823L552.232 197.003V207.552H559.021V214.7H552.221V244.929H543.852Z" fill="#1D3538"/>
<path d="M304.593 312.092C300.715 314.186 296.375 315.283 291.965 315.283C276.822 315.283 265.336 303.737 265.336 288.624C265.336 273.512 276.822 261.966 291.965 261.966C296.372 261.96 300.711 263.048 304.593 265.131V275.153C301.07 272.166 296.587 270.548 291.965 270.595C281.847 270.648 274.233 278.597 274.233 288.624C274.233 298.652 281.842 306.627 291.96 306.627C296.569 306.675 301.044 305.086 304.588 302.144L304.593 312.092Z" fill="#1D3538"/>
<path d="M315.314 278.677C318.682 277.143 322.338 276.34 326.04 276.319C335.323 276.319 341.336 280.803 341.336 291.358V314.429H332.966V311.011C331.876 312.375 330.484 313.468 328.9 314.205C327.317 314.943 325.583 315.305 323.836 315.263C315.615 315.263 311.156 309.492 311.156 302.957C311.156 296.1 316.402 290.73 324.011 290.73C327.667 290.73 331.091 292.312 332.993 294.301V291.22C332.993 285.909 329.336 283.778 325.152 283.778C321.669 283.837 318.272 284.864 315.34 286.742L315.314 278.677ZM326.119 308.981C329.844 308.981 332.887 306.343 332.887 302.978C332.887 299.613 329.844 296.901 326.119 296.901C322.394 296.901 319.419 299.639 319.419 302.978C319.419 306.317 322.462 308.981 326.119 308.981V308.981Z" fill="#1D3538"/>
<path d="M358.381 283.614C360.969 278.904 365.529 276.319 371.162 276.319C381.729 276.319 389.348 284.759 389.348 295.767C389.348 306.776 381.739 315.284 371.162 315.284C365.529 315.284 360.969 312.646 358.381 308.374V330H350.011V277.079H358.381V283.614ZM369.566 307.082C375.954 307.082 380.662 301.918 380.662 295.767C380.662 289.538 375.943 284.522 369.566 284.522C363.099 284.522 358.381 289.538 358.381 295.767C358.381 301.918 363.099 307.082 369.566 307.082Z" fill="#1D3538"/>
<path d="M400.835 260.521C402.19 260.534 403.485 261.082 404.436 262.045C405.388 263.008 405.919 264.309 405.912 265.662C405.906 267.014 405.363 268.31 404.403 269.264C403.442 270.218 402.142 270.754 400.787 270.754C399.432 270.754 398.132 270.218 397.172 269.264C396.211 268.31 395.668 267.014 395.662 265.662C395.656 264.309 396.187 263.008 397.138 262.045C398.09 261.082 399.385 260.534 400.74 260.521H400.835ZM405.019 314.429H396.65V277.079H405.019V314.429Z" fill="#1D3538"/>
<path d="M418.63 314.429V284.22H412.29V277.078H419.058V268.343L426.983 266.523V277.073H433.752V284.215H426.999V314.429H418.63Z" fill="#1D3538"/>
<path d="M440.694 278.677C444.063 277.143 447.718 276.34 451.42 276.319C460.704 276.319 466.711 280.803 466.711 291.358V314.429H458.342V311.011C457.252 312.375 455.862 313.468 454.279 314.205C452.696 314.943 450.963 315.305 449.217 315.263C440.996 315.263 436.51 309.492 436.51 302.957C436.51 296.1 441.756 290.73 449.365 290.73C453.016 290.73 456.44 292.312 458.347 294.301V291.22C458.347 285.909 454.696 283.778 450.511 283.778C447.029 283.837 443.631 284.864 440.7 286.742L440.694 278.677ZM451.494 308.981C455.224 308.981 458.268 306.343 458.268 302.978C458.268 299.613 455.224 296.901 451.494 296.901C447.764 296.901 444.8 299.639 444.8 302.978C444.8 306.317 447.843 308.981 451.494 308.981V308.981Z" fill="#1D3538"/>
<path d="M483.835 314.429H475.466V262.04H483.835V314.429Z" fill="#1D3538"/>
<mask id="mask0_103_99" style="mask-type:alpha" maskUnits="userSpaceOnUse" x="216" y="192" width="50" height="53">
<path d="M265.917 192.503L246.061 244.955H235.134L254.996 192.503H265.917ZM236.72 192.503L216.874 244.955H227.801L247.657 192.503H236.72Z" fill="#647676"/>
</mask>
<g mask="url(#mask0_103_99)">
<path d="M214 246.886H250.531L252.423 231.215L226.475 215.285L214 246.886Z" fill="#1D3538"/>
</g>
</g>
<defs>
<clipPath id="clip0_103_99">
<rect width="345" height="139" fill="white" transform="translate(214 191)"/>
</clipPath>
</defs>
</svg>
