<svg id="Layer_1" data-name="Layer 1" xmlns="http://www.w3.org/2000/svg" viewBox="0 0 1000 1000"><path d="M285.15,450.67v.4l.2.2H301l.19-.2v-.4l-8.3-21.08Zm19.39,26.85v-.19l1.78-.2,1.58-.6,1.38-.79.8-1,.19-1.19-.39-1.79-7.32-17.31v-.4l-.39-.4H284v.2l-.2.4-6.93,18.1-.39,1.59.39,1.2,1,1,1.79.8,2.57.39v.2H267v-.2l2.18-.39,1.58-.6,1.19-1,1-1.59,21.76-57.28H295l23.74,56.69,1.19,1.79,1.39,1.19,1.78.8,2.17.4v.19Zm271.43,0v-.19l1-.2,1.39-.2,1.38-.4,1.19-.79.79-1.2.39-1.79.2-5.56v-6.37l.2-6.56V439.54l-.2-8.16-.2-7.16-.39-1.79-.79-1.19-1.19-.8-1.38-.39-1.39-.2-1-.2v-.21h40l.4,3.39.2,4,.19,3.78h-.39l-.59-2-.8-2-1-1.79-1.18-1.39-1.78-.59-4.36-.4H596.54l-5.34.4h-.39l-.6.19-.59.6V445.1l.2.6.2.39.39.2h16.81l1.79-.2,1.38-1,1-1.19.4-1.79.39-2h.2v16.7h-.2l-.39-1.78-.8-3.19-1-1.39-1.18-.8-1.59-.4H590.41l-.39.2-.4.8v23.27l.59.6.6.19h.39l3.76.2,3.95.2H608l2.77-.2,2.38-.2,1.58-.59,1.19-1,.79-1.39.79-1.59.59-1.79.4-1.59h.39v2.79l-.39,6-.2,2.38Zm108.81,0v-.19l1-.2,1.38-.2,1.39-.4,1.19-.79.79-1.2.39-1.79.2-7V450.08l-3.56-6.76-2.18-4.38L683,434.57l-2.18-4.18-2.37-3.58-2.38-3.18-2.77-2.39-3-1.39-3.17-.6v-.4l1.58-.4,1.78-.2h1.39l4,.4,3.37.79,2.57,1.6,2.37,2.18,2,2.59,2,3,2,3.58,7.12,13.53,2-3,2.18-3.59,2.37-4,2.38-3.78,2-3.78,1.78-3.18.59-1.4-.2-1.19-.79-.8-1.18-.79-3.57-.8v-.2H720.2v.2l-2.38.4-2,1.19-1.58,2-14.44,23.27-.79,1.6-.4,1.39-.19,1.59v7.75l.19,7.37.4,6.56.39,1.79.79,1.19,1.19.8,1.38.39,2.38.4v.2ZM190.19,421.43,189,422l-.39.79-.2,1.2v19.69l.4,1,1.18.6,2.18.2h3.17l3-.2,2.57-.79,2.17-1.4,2-1.79,1.58-2.38.8-3,.39-3.38-.39-3.38-1-3L204.63,424l-2.37-1.59-3.17-.8-3.76-.4h-3.16Zm.4,26.66-1.39.39-.59.8-.2,1v20.89l.2,1.79,1,1.39,1.58.8,2.57.39,3.36.2,3.37-.2,3.16-1,3-1.39,2.38-2,1.78-2.59,1.18-3.38.4-3.78-.4-3.58-1-3-1.59-2.39-2.17-1.79-2.58-1.39-3-.8-3-.39-3.37-.2h-2.77Zm-.6,29.83-4-.2h-3.76l-3.57-.2h-4.35v-.19l2-.6,1.58-.59,1.39-.8.79-1.39.39-1.79.2-7.76.2-8.15V439.54l-.19-8.16-.2-7.16-.4-1.79-1-1.2-1.18-.79-1.19-.4-1.39-.2-1.19-.2v-.2l4.55-.19h4.75l4.55-.2,4.16-.2h3.36l3,.2,3.17.39,3,.6,2.77,1,2.37,1.39,2.18,1.79,1.58,2.19,1,2.78.39,3.18-.39,3.19-1,2.78L212,440.73l-1.79,2-2.37,1.79-2.37,1.39,2.57.59,2.77,1.2,2.76,1.59,2.38,2.19,2,2.58,1.38,3.18.4,3.59-.4,3.38-1,3.38-1.58,2.79L214.33,473l-3.17,2-3.95,1.59-4.75,1-5.54.39Zm596.68,0-5.15-.8-4.75-1.39-.19-.2-.4-.2-.19-.39V463.8h.19l1.39,4.18,1.78,3.38,2.18,2.38,2.76,1.59,3.37,1,4.15.2,3-.4,2.77-1,2-1.79,1.58-2.19,1-3.18.4-3.58-.4-3-1-2.39-1.78-2.18-2.18-1.79-2.37-1.4L792,452.06l-2.77-1.39-3-1.59-2.77-1.59-2.37-1.79L779,443.51l-1.79-2.78-1-3-.39-3.78.39-4,1.39-3.38,2.17-3,2.77-2.39,3.56-1.79,4-1,4.35-.4,5.74.59,5.14,1.2.79.2.8.39.2.2v.4l-.6,10.54h-.39l-1-3.58-1.19-3-1.78-2.18-2.37-1.4-3-1-3.76-.2-2.18.2-2.17.6-2,1-1.79,1.39-1.38,2-.79,2.39-.4,3,.4,3.18,1,2.59,1.38,2.39,2,1.79,2.37,1.59,2.58,1.39,2.57,1.19,2.77,1.2,2.57,1.39,2.57,1.59,2.37,1.79,2,2.19,1.39,2.58,1,3,.39,3.78-.59,4-1.39,3.39-2.17,3-2.77,2.39-3.37,1.78-3.75,1-4,.4Zm-266.49,1.39-41.55-53.7v27.85l.2,6.56v6.17L479,472l.59,1.79,1.19,1.4,1.78,1,2.18.6,2.77.59v.2H468.35v-.2l2.18-.59,1.78-.6,1.58-1,.79-1.4.4-1.79.2-7.36.19-8.15V440.13l-.19-4.38v-4.57l-.2-4V424l-.4-2.19-1-1.59-1.38-1-1.39-.79-1.58-.4H468v-.4l5.34-.59,3.17.2,2.77,1,2.57,1.39,2.37,2,2.37,2.79,2.77,3.18L516.43,462V433.77L516,425l-.39-2.19-1.19-1.59-2.17-1-3-.6v-.2h17v.2l-2.18.6-1.58.59-1.38,1-.8,1.39L520,425l-.2,5.77-.2,6.56v13.93l.2,7.16.2,7.36.39,7.16.2,6.36Zm-132-57.68L387,422l-.6.79-.19,1.4v23.07l.19,1,.79.6,1.39.39h2.17l2.77-.19,2.77-.6,2.57-1,2.38-1.59,2-2,1.58-2.39,1-2.79.39-3.38-.39-3.78-.79-3.38-1.58-2.58-2-1.79-2.57-1.39-3-1-3.17-.2H390Zm28.1,57.48-3-.79-2.77-1.59-2.57-2-2.57-2.39-2.38-2.78-13.65-16.51-.59-.8-.6-.39-.39-.4-.4-.2h-.59l-.39.8V472l.39,1.79.79,1.39,1.39,1,1.78.59,2,.6v.19H372.6v-.19l1.78-.6,1.39-.59,1.38-.8.79-1.39.4-1.79.2-7.76.19-8.15V435.36l-.19-5.77-.2-5.37-.4-1.79-.79-1.19-1.19-.8-1.38-.39-2.38-.4v-.21l3.76-.19h4.36l4.74-.2,4.16-.2h3.36l3.76.2,3.56.39,3.17.8,3,1.19,2.57,1.59,2,2,1.58,2.59,1,3.38.4,3.78-.4,3.58L412,441.52l-1.78,2.59L408,446.3l-3,2-3.37,1.39-3.56,1-.19.19h-.2v.2l.2.2.19.4L408.6,465l2.37,3.18,2.77,3,2.77,2.79,2.77,2.38,2.77,1.4,2.57.59v.4l-1.39.39-1.78.2-1.58.2ZM273.68,580.56v-.4l2.37-.4,1.38-.4,1.19-.79.79-1.2.4-1.79.19-5.37.2-6.36.2-6.76V544.36l-.2-6.17-.2-5.77-.19-5.17-.4-1.79-.79-1.19-1.19-.8-1.38-.4-2.37-.39v-.4h40.16l.19,3.39.2,4.17.2,3.78H314l-.39-1.59-.59-1.79-.79-1.59-.8-1.39-1.19-1-1.58-.6-4.35-.2h-9.89l-5.34.2-1.19.4-.2.39-.2.6v21.08l.4.8.39.2h16.82l1.78-.2,1.38-1,.8-1.2.59-1.79.2-2h.39v16.71h-.39l-.2-1.79-.4-1.59-.59-1.59-.79-1.19-1.19-.8-1.58-.4H288.32l-.4.2-.2.2-.19.4v23.27l.59.59.59.2h.4l3.76.2,3.95.2H304l3.75-.2,3.37-.2,1.38-.4,1.19-1,1-1.39,1.19-3.59.59-1.59h.2V573l-.2,4-.4,3.58H273.68Zm214.85,0v-.4l2.37-.4,1.38-.4,1.19-.79.79-1.2.4-1.79.2-7,.19-7.56v-7.95l-3.56-7-2.17-4.38-2.38-4.37-2.17-4-2.38-3.78-2.57-3-2.57-2.39-3-1.59-3.36-.6v-.39l2.57-.4,2.37-.2,4,.4,3.16.79,2.77,1.6,2.38,2.18,2,2.59,1.78,3.18,2,3.58L501,548.74l2-3,2.18-3.58,2.37-3.78,2.37-4,2.18-3.78,1.78-3.18.6-1.39-.4-1.2-.59-.79-1.38-.6-1.59-.4-1.78-.39v-.4H524v.4l-2.18.39-2,1-1.58,2-14.44,23.47-.8,1.59-.59,1.39v9.15l.2,7.36.19,6.56.4,1.79.79,1.2,1.19.79,1.38.4,2.37.4v.4H488.53Zm103.86-56.89-3.95,1.39-3.37,2.39-3,3-2.37,3.78L578,538.58l-1,5.17-.4,5.57.2,4.38.59,4.37,1.19,4.18,1.58,4,2,3.58,2.57,3.18,2.77,2.59,3.56,2,3.76,1.19,4.35.4,4.36-.4,3.95-1.19,3.37-1.79,3-2.39,2.38-3,1.78-3.39,1.39-4.17.79-4.37.2-4.78-.2-4.58-.79-4.57-1.19-4.38-1.58-4-2.18-3.58-2.57-3.19-3.17-2.58-3.56-2-3.95-1.2-4.36-.39Zm.4,57.48-5.15-1.39-4.55-2.19-4.15-3L575.38,571l-2.77-4.18-2.18-4.58-1.38-5.17-.4-5.56.4-5.57,1.38-5.17,2-4.78,2.77-4.37,3.56-3.58,4.16-3,4.75-2.18,5.34-1.6,5.74-.39,5.34.39,4.94,1.4,4.56,2.38,4.15,2.79,3.56,3.78,3,4.17,2.18,4.78,1.38,5.17.4,5.57-.4,5.37-1.19,5-2.17,4.57-2.57,4.38-3.56,3.58-4.16,3.18-4.75,2.19L604.07,581l-5.94.6ZM408.4,582,405,570.61l-3.56-11.93-3.56-11.54L394.36,536l-3.76,11.34L387,559.07l-3.37,11.74L380.31,582h-.2l-2-6-2-6.17L374,563.45l-2.18-6.56-4.35-12.34L365.27,539l-1.78-5-1.78-4.37-1.39-3.58-.79-1.59-1.19-1-1.18-.4-2.38-.39v-.4h18.6v.4l-1.19.2-1.38.19-1.19.6-.79.8-.4,1.39.4,1.79L371.2,535l2.77,7.75,5.54,15.92,2.57,7.55L389,543.76l7.12-22.48h.2L403.05,544l3.76,11.34,4,10.93,3.36-9.74,3.56-10,3.37-9.74,3-9.55.2-1.59-.2-1-.79-.8-1-.59-1.38-.2-2.37-.4v-.39h15.43v.39l-1.78.2-1.39.6-1.19.79-1.18,1.59-1,2.39-1.19,3.19-1.58,4.17-1.78,4.78-2,5.56-2,5.77-4.35,12.34-4,12.33L408.79,582Zm-182.4.2-41.55-53.71v28l.2,6.56v6.17l.2,5.57.39,2,1.19,1.39,1.78,1,2.38.6,2.76.4v.39H174.16v-.39l2-.6,1.79-.6,1.58-.79,1-1.39.39-2,.2-7.36.2-8V543.16l-.2-4.58v-4.37l-.2-4-.19-3.18-.4-2.19-1-1.59-1.19-1-1.58-.8-1.39-.4h-1.38v-.59l5.54-.4,3.16.2,2.58,1,2.37,1.4,2.38,2,2.37,2.58,2.77,3.38L222,564.84V536.6l-.19-4.18v-4.37l-.4-2.19-1.38-1.59-2-1-3.17-.59v-.4h17v.4l-2.17.59-1.59.6-1.38,1-.79,1.39-.4,1.79v5.57l-.2,6.76V554.3l.2,7,.2,7.36.2,7.16.39,6.37Zm462.34-57.68-1.19.59-.39.8-.2,1.39v22.87l.2,1.2.79.59,1.39.4h2.17l2.77-.2,2.57-.59,2.77-1.2,2.38-1.39,2-2,1.59-2.39,1-3,.39-3.38-.39-3.78-1-3.39-1.39-2.58-2.17-1.79-2.38-1.39-3-1-3.36-.19h-2.77Zm28.29,57.68-3-1-2.76-1.59-2.58-2L706,575.18l-2.57-2.78-13.65-16.51-.8-.59-.39-.6-.4-.4-.39-.2h-.59l-.2.4-.2.2-.19.6v19.49l.39,2,.79,1.39,1.58,1,1.78.6,2,.4v.39H672.92v-.39l1.78-.4,1.38-.6,1.39-.79.79-1.39.39-1.79.2-7.76.2-8.36V544.35l-.2-6.16v-5.77l-.2-5.17-.39-1.79-.79-1.2-1.19-.79-1.38-.4-1.39-.2-1-.2v-.39l3.56-.2h4.16l4.55-.2h7.32l3.95.2,3.76.4,3.56.79,3,1.2,2.57,1.59,2,2.19,1.58,2.58,1,3.18.4,4-.4,3.38-1,3-1.78,2.58-2.17,2.19-3,1.79-3.17,1.39-3.76,1.2-.39.19H698v.6l.2.4L708.72,568l2.18,2.59,4.75,5.17L718,578l2.38,1.79,2.37,1.19,2,.4v.2l-1.38.59-3.17.4Zm104.66,1.39-4.36-.4-3.95-1-3.37-1.59-3.16-2.19-3-2.59-2.77-3L783.5,553.7l-.4-.39h-.39l-.2.39v8.95l.2,4.78.2,4.37.19,3.78.4,1.79.79,1.2,1.19.79,1.38.4,2.37.4v.39H768.86v-.39l1-.2,1.38-.2,1.39-.4,1.18-.79.8-1.2.39-1.79.2-5.37v-6.36l.2-6.76V544.36l-.2-6.17v-5.77l-.2-5.17-.39-1.79-.8-1.19-1.18-.8-1.39-.4-1.38-.19-1-.2v-.4h20.37v.4l-2.37.39-1.38.4-1.19.8-.79,1.19-.4,1.79-.19,5.17-.2,6-.2,6.36v6l7.32-7L797,536.2l6.53-7.36,1.19-1.39.79-1.39.2-1-.4-1.19-1-.6-1.58-.39-2-.2v-.4H816v.4l-2.18.59-2,1.39-2,1.59-2,2-19,20.88,8.51,9.94,1.78,2,2.18,2.38,2.76,3,3,3.18,3.17,3.18,3.36,3,3.36,2.58,3.37,2.19,3.16,1.39,2.77.6v.39l-1.58.4-1.78.2Z"/></svg>