<svg id="Layer_1" data-name="Layer 1" xmlns="http://www.w3.org/2000/svg" viewBox="0 0 1000 1000"><path d="M304.82,580.19a6.14,6.14,0,1,1,0,12.28h0a6.14,6.14,0,1,1,0-12.28Zm0,1.1a5,5,0,0,0,0,10.09,4.83,4.83,0,0,0,4.8-4.85.86.86,0,0,0,0-.16,4.89,4.89,0,0,0-4.72-5h-.1Zm-1.06,8.39h-1.19v-6.43a12.82,12.82,0,0,1,2.22-.2,2.93,2.93,0,0,1,2,.52,1.61,1.61,0,0,1-.57,2.86h0a2,2,0,0,1,1,1.58,5.12,5.12,0,0,0,.49,1.57H306.5a4.82,4.82,0,0,1-.55-1.64c0-.74-.58-1-1.45-1h-.77Zm0-3.6h.81c.83,0,1.67-.26,1.67-1s-.42-1.06-1.55-1.06a4.82,4.82,0,0,0-.93,0Z"/><path d="M363.65,484.46a15.62,15.62,0,0,0-4.92-1.51.85.85,0,0,0-.61,1.54,8.8,8.8,0,0,1,3.22,2.93c.61,1,.38,2.47,1.7,3.21,2.12,1.61,4.79-1.12,3.7-3.21A6.1,6.1,0,0,0,363.65,484.46ZM447.24,518c-6.08-8.33-12.51-10.87-20.87-14.76a252.74,252.74,0,0,1-42.53-19.29c-12.5-7.9-26.55-18.32-30.44-25.71-4.34-8.36-3.22-10.16-10.71-21.25a71.66,71.66,0,0,0-33.62-25.72,97.85,97.85,0,0,0-40.7-7.69c-64.71-1-101.75,61.95-103.68,129.72h0v5.37c0,22.5,1.93,33.08,6.11,55.58h27.81c-6.24-18.77-10.39-31-12.86-50.53-.48-4-.74-7.27-.9-10.45h0c-.26-4.31-.26-8.46-.26-14,0-54.65,36-105.48,90.43-104.61a90,90,0,0,1,47.42,13.21A46.46,46.46,0,0,1,342.6,449.8c.45,1-7.82-3.92-12.51-5.75-13.08-5.11-20.06-4-30-5.11-1.39,0-1.68-5.15-8.49-5a7.18,7.18,0,0,0-7.36,7v.26a7.8,7.8,0,0,0,7.41,8.18h.24c7.65,0,5.14-6.11,11.67-6a47.79,47.79,0,0,1,26.13,9.33c4.44,4.18,8.75,9,8.33,14.72a20.43,20.43,0,0,1-2.93,10.77,15.77,15.77,0,0,1-6.94,5.43c-4.31,2.22-9.64,1.8-9.64,6.43s5.85,3.89,5.85,8.49c0,5.69-12.22,9.64-21.41,10.7-10.29,1.13-15.82.9-26.14,1.39-18.32.86-30.67,9.38-35,22.69h0A36.73,36.73,0,0,0,240,544.77c0,20.15,7.94,34.94,19.29,49.57h37.78c-16.53-10.48-43.4-28.61-41.31-52.79a18.31,18.31,0,0,1,2.57-8.23h0c6.65-10.67,24.94-10.61,44.52-12.86,20.93-2.21,27.1-10,34.88-9.64,8.94.32,12.86,3.76,21.54,6.27a167.42,167.42,0,0,0,40.57,8.32,157.45,157.45,0,0,0,19.29,1,179.59,179.59,0,0,0,21-1.42c4.18-.41,6.43,5.37,9.45,2,2.13-2.29-2.34-9-2.34-9Zm-12.86,1.7a119.9,119.9,0,0,1-20.67-.16A175.34,175.34,0,0,1,356.16,503c-7.58-3.76-16.07-5-16.81-11.79-.39-3.22,1.19-4.63,3.21-9.17a20.68,20.68,0,0,0,3.06-13.88c0-1.8,1-3.22,2.76-1.26,10.07,10.64,22.06,17.07,34.92,24.82,18.42,11,51.24,16.88,56.83,27.81,0,2.12-2.67.06-5.85.16Z"/><path d="M584.83,474.52a25.58,25.58,0,0,0,11.54-2.7c.74-.32,1.19-.51,1.06.36L597,474.3c0,.42-.19.67-1,1.09A27,27,0,0,1,584,477.93c-10.54,0-16.56-6.17-13.86-19.29,2.25-11,10-19,21.22-19,8.84,0,11.32,4.92,10.45,9.07a3.68,3.68,0,0,1-3.63,3c-1.55,0-2.54-1.09-2.19-3a3.92,3.92,0,0,1,2.64-2.89,8.23,8.23,0,0,0-7.49-3c-9.65,0-15.11,7.71-16.88,16.52S574.86,474.52,584.83,474.52Z"/><path d="M616.62,449.22c9.1,0,11.48,6.63,9.65,15-1.55,7.65-5.92,13.76-14.5,13.76s-11.41-6.72-9.65-15.11C603.7,455.2,608.07,449.22,616.62,449.22Zm-10.41,14.37c-1.39,6.72,0,11.38,5.75,11.38s9.1-4.66,10.48-11.38,0-11.34-5.82-11.34-9.06,4.63-10.45,11.34Z"/><path d="M632.5,453.18c-.54,0-.67-.19-.61-.77l.29-1.45c0-.67.35-.84,1-.87l6-.35c.9,0,1.06.42.84,1.45l-.68,3.53a10.43,10.43,0,0,1,9.45-5.5c5.08,0,7.94,2.8,6.66,9.07l-2.83,14c-.35,1.52,0,2.22,1.09,2.22a7.55,7.55,0,0,0,1.83-.32c.52,0,.71,0,.62.45l-.36,1.7a1,1,0,0,1-.54.74,9.54,9.54,0,0,1-3.38.58c-1.9,0-4-.77-3.21-4.72l2.82-14c.81-3.92-.45-6.27-4.18-6.27-5,0-8.22,4.15-9.64,11.29l-2.57,12.63c0,.61-.29.77-.93.77h-2.29c-.57,0-.74,0-.57-.77l4.43-21.79C636,453.24,635.56,453.18,632.5,453.18Z"/><path d="M678.57,458.23c-1.35,0-2.19-.94-1.9-2.61A3.61,3.61,0,0,1,678,453.5a7.83,7.83,0,0,0-5.27-1.54,5.33,5.33,0,0,0-6,4.24c-1.44,7.39,14.5,2.54,12.19,13.89-1.07,5.24-5.12,7.87-11.19,7.87s-9.65-2.21-8.81-6.43a3.22,3.22,0,0,1,3-2.73c1.38,0,2.19,1,1.83,2.61a3.23,3.23,0,0,1-1.38,2.12,8.05,8.05,0,0,0,5.76,1.77,6.44,6.44,0,0,0,7.1-4.86c1.64-7.87-14.3-2.89-12.18-14a8.84,8.84,0,0,1,9.64-7.14c6.66,0,9.65,2.44,8.65,6.43A3.21,3.21,0,0,1,678.57,458.23Z"/><path d="M706.54,458.23c-1,5.07-4.76,8.39-11.83,8.39a20.18,20.18,0,0,1-7-1.19c-.93,6.43,1.35,9.06,6.43,9.06a20.22,20.22,0,0,0,6.75-1.25,17.25,17.25,0,0,1,2.38-.93c.26,0,.35.19.29.57l-.35,1.64c0,.62-.39.87-1.29,1.35a21.11,21.11,0,0,1-8.39,1.8c-8.91,0-11.48-5.62-9.65-14.27s6.82-14.27,14.21-14.27C704.77,449.22,707.79,452.5,706.54,458.23Zm-18.29,4.24a21,21,0,0,0,6.75,1.19,7.1,7.1,0,0,0,8-5.85c.81-3.89-1-5.63-5.11-5.63-4.76.07-8,3.92-9.64,10.39Z"/><path d="M712.16,453.18c-.54,0-.7-.19-.57-.77l.28-1.45c0-.67.29-.84,1-.87l6.21-.35c.9,0,1.06.42.83,1.45l-1.12,5.62c1.22-2.63,4.47-7.59,9.93-7.59,3.44,0,4.66,1.9,4.11,4.67a3.44,3.44,0,0,1-3.21,2.73c-1.35,0-2.19-1-1.83-2.64a3,3,0,0,1,.74-1.61,3.93,3.93,0,0,0-.84,0c-5.17,0-9.64,7.72-10.74,12.86l-1.44,7.24c-.36,1.6,0,1.86,1.57,1.86h2.64c.67,0,.74,0,.64.74l-.35,1.61c0,.58-.26.71-.84.71H707.08c-.64,0-.8,0-.64-.84l.32-1.51c0-.58.26-.74.9-.74h1.58c1.48,0,2.09-.32,2.44-1.87l3.57-17.64C715.67,453.24,715.19,453.18,712.16,453.18Z"/><path d="M743,473.79l10-19.1c.58-1.13.26-1.51-1.64-1.51h-.61c-.55,0-.64-.19-.55-.71l.29-1.51c0-.61.29-.77.84-.77H761c.61,0,.71,0,.61.67l-.28,1.45c0,.68-.26.87-.9.93h-1a2.47,2.47,0,0,0-2.73,1.61l-12,22.21c-.36.61-.45.78-1.29.78h-2.67c-.55,0-.8,0-.83-.71l-3-22.12c-.26-1.61-.55-1.61-2-1.77h-.74c-.61,0-.64-.25-.54-.83l.35-1.55c0-.51.26-.67.8-.67h9.65c.61,0,.71.19.61.71l-.29,1.51a.87.87,0,0,1-.93.77h-.71c-1.74,0-2.19.51-2,1.86Z"/><path d="M768.17,474.46a8.17,8.17,0,0,0,1.83-.32c.48,0,.7,0,.61.45l-.36,1.61a1,1,0,0,1-.83.93,8,8,0,0,1-3.22.48c-1.89,0-4-.77-3.21-4.73l3.7-18c.25-1.19,0-1.67-1-1.67H763.5c-.64,0-.64-.35-.48-.93l.26-1.26c0-.73.26-.83.83-.86l6.43-.36c.94,0,1.06.42.84,1.45l-4.28,21C766.72,473.75,767.1,474.46,768.17,474.46Zm4.11-36.58c1.48,0,2.44,1.19,2,3a3.83,3.83,0,0,1-3.7,3.21c-1.45,0-2.38-1.09-2-2.89A3.93,3.93,0,0,1,772.28,437.88Z"/><path d="M778,453.18c-.54,0-.67-.19-.61-.77l.29-1.45c0-.67.36-.84,1-.87l6-.35c.9,0,1.06.42.84,1.45l-.71,3.53a10.43,10.43,0,0,1,9.45-5.5c5.08,0,7.94,2.8,6.66,9.07l-2.83,14c-.35,1.52,0,2.22,1.09,2.22a8,8,0,0,0,2-.19c.48,0,.71,0,.61.45l-.35,1.7a1,1,0,0,1-.55.74,9.45,9.45,0,0,1-3.37.58c-1.9,0-4-.77-3.22-4.72l2.83-14c.81-3.92-.45-6.27-4.18-6.27-5,0-8.26,4.15-9.64,11.29l-2.57,12.63c0,.61-.29.77-.94.77h-2.28c-.61,0-.74,0-.61-.77l4.41-21.8C781.57,453.24,781.06,453.18,778,453.18Z"/><path d="M810.86,490.37c-4.89,0-9.65-1.6-8.46-7.13a3.21,3.21,0,0,1,3.22-2.64,1.93,1.93,0,0,1,2.07,1.78,2.1,2.1,0,0,1-.08.7,3.64,3.64,0,0,1-1.8,2.34,7.71,7.71,0,0,0,5.75,1.77c5.08,0,8.94-2.64,10.32-9.48l.9-4.44a11.9,11.9,0,0,1-9.64,4.92c-6.11,0-9-4.76-7.27-13.5s7.3-15.27,14.92-15.27a9,9,0,0,1,6.43,2.22v-.36c.26-1,.55-1.44,1.48-1.44l5.91.41c.58,0,.81.23.65.77l-.29,1.55c0,.51-.45.61-.93.7h-2c-1.09,0-1.38.52-1.67,1.77l-4.56,22.51C823.94,486.42,818.32,490.37,810.86,490.37ZM824.55,464l1.83-9.09a7.34,7.34,0,0,0-5.81-2.29c-6,0-9.65,6-10.74,12.16-1.13,5.36-.26,10.09,4.66,10.09s8.13-3.83,10.19-11Z"/><path d="M584.83,532.74a25.84,25.84,0,0,0,11.54-2.7c.74-.32,1.19-.51,1.06.36l-.39,2.12c0,.42-.19.67-1,1.09A27,27,0,0,1,584,536.15c-10.54,0-16.56-6.17-13.86-19.29,2.25-11,10-19,21.22-19,8.84,0,11.32,4.92,10.45,9.07a3.68,3.68,0,0,1-3.63,3c-1.55,0-2.54-1.09-2.19-3a3.92,3.92,0,0,1,2.64-2.89,8.23,8.23,0,0,0-7.49-3c-9.65,0-15.11,7.71-16.88,16.52S574.86,532.74,584.83,532.74Z"/><path d="M623.92,532.68a9.43,9.43,0,0,0,1.9-.32c.45,0,.7,0,.61.48l-.36,1.61a1,1,0,0,1-.9.93,8,8,0,0,1-3,.45c-1.9,0-4-.74-3.21-4.4a11.18,11.18,0,0,1-9.45,4.82c-6.21,0-9.36-4.5-7.4-13.86,1.8-8.84,7.27-14.91,14.92-14.91a9.33,9.33,0,0,1,6.43,2.21v-.35c.25-1,.54-1.45,1.44-1.45l6,.45c.61,0,.74.2.64.78l-.35,1.63c0,.49-.45.58-.9.68h-2c-.9,0-1.35.26-1.63,1.67L623,530.4C622.54,532,622.86,532.68,623.92,532.68Zm-3.22-10.55,1.84-9.09a8,8,0,0,0-5.82-2.29c-6,0-9.65,6-10.74,12.16-1.09,5.27-.38,10.09,4.66,10.09,4.54,0,8-3.63,10-10.87Z"/><path d="M633.79,511.43c-.55,0-.71-.19-.61-.77l.29-1.45c0-.67.35-.83,1-.87l6.08-.35c.9,0,1,.42.84,1.45l-.71,3.53a10.44,10.44,0,0,1,9.45-5.53c5.08,0,7.94,2.8,6.65,9.07l-2.82,14c-.36,1.51,0,2.22,1.09,2.22a7.64,7.64,0,0,0,1.83-.32c.51,0,.71,0,.61.48l-.35,1.71a1,1,0,0,1-.58.8,9.73,9.73,0,0,1-3.38.58c-1.89,0-4-.77-3.21-4.7l2.83-14c.8-3.92-.45-6.27-4.18-6.27-5,0-8.23,4.15-9.65,11.29l-2.57,12.63c0,.61-.29.77-.93.77h-2.28c-.61,0-.74,0-.61-.77l4.4-22C637.26,511.46,636.84,511.43,633.79,511.43Z"/><path d="M683.65,532.68a9.43,9.43,0,0,0,1.9-.32c.45,0,.7,0,.61.48l-.36,1.61a1,1,0,0,1-.9.93,7.73,7.73,0,0,1-3,.45c-1.9,0-4-.74-3.21-4.4a11.18,11.18,0,0,1-9.45,4.82c-6.21,0-9.36-4.5-7.4-13.86,1.8-8.84,7.27-14.91,14.92-14.91a9.33,9.33,0,0,1,6.43,2.21v-.35c.25-1,.54-1.45,1.44-1.45l5.95.45c.58,0,.74.2.64.78l-.35,1.63c0,.49-.45.58-.9.68h-2c-.9,0-1.35.26-1.63,1.67l-3.54,17.3C682.27,532,682.59,532.68,683.65,532.68Zm-3.22-10.55,1.84-9.25a8,8,0,0,0-5.82-2.29c-6,0-9.65,6-10.74,12.16-1.09,5.27-.38,10.09,4.66,10.09,4.54.16,7.94-3.47,10-10.71Z"/><path d="M712.84,532.68a9.43,9.43,0,0,0,1.9-.32c.45,0,.64,0,.54.48l-.35,1.61a1,1,0,0,1-.84.93,7.76,7.76,0,0,1-3,.45c-1.93,0-4.08-.74-3.21-4.5a12.1,12.1,0,0,1-9.65,4.92c-6.11,0-9-4.76-7.26-13.5s7.26-15.27,14.91-15.27a9,9,0,0,1,6.43,2.21l1.71-8.42c.29-1.25,0-1.7-1-1.7h-2.15c-.65,0-.65-.36-.55-.93l.26-1.26c.19-.77.29-.87.93-.93l6.27-.35c.93,0,1.09.41.9,1.44l-6.72,32.92C711.46,532,711.84,532.68,712.84,532.68Zm-3.22-10.55,1.84-9.09a7.36,7.36,0,0,0-5.82-2.29c-5.95,0-9.65,6-10.74,12.16-1.12,5.37-.26,10.09,4.66,10.09S707.5,529.37,709.62,522.13Z"/><path d="M741.8,532.68a9.32,9.32,0,0,0,1.9-.32c.45,0,.71,0,.61.48l-.35,1.61a1,1,0,0,1-.9.93,7.79,7.79,0,0,1-3,.45c-1.9,0-4-.74-3.22-4.4a11.2,11.2,0,0,1-9.45,4.82c-6.2,0-9.35-4.5-7.39-13.86,1.8-8.84,7.26-14.91,14.91-14.91a9.31,9.31,0,0,1,6.43,2.21v-.35c.26-1,.55-1.45,1.45-1.45l6,.45c.57,0,.74.2.64.78l-.35,1.63c0,.49-.45.58-.9.68h-2c-.9,0-1.35.26-1.64,1.67l-3.54,17.3C740.42,532,740.78,532.68,741.8,532.68Zm-3.21-10.55,1.83-9.09a8,8,0,0,0-5.82-2.29c-5.94,0-9.64,6-10.73,12.16-1.1,5.27-.39,10.09,4.66,10.09C733.06,533,736.5,529.37,738.59,522.13Z"/><path d="M758.33,498.06c1.57,0,2.54,1.19,2.09,3.4a16.85,16.85,0,0,1-6.59,8.59c-.48.35-.74.45-1,0l-.29-.42c-.26-.35,0-.61.39-1a13.33,13.33,0,0,0,3.63-4.4c-1.35,0-2.19-1.19-1.83-3A3.88,3.88,0,0,1,758.33,498.06Z"/><path d="M776.78,516.54c-1.35,0-2.19-.93-1.9-2.57a3.58,3.58,0,0,1,1.35-2.12A7.89,7.89,0,0,0,771,510.3a5.32,5.32,0,0,0-6,4.25c-1.44,7.39,14.5,2.54,12.19,13.85-1,5.24-5.11,7.88-11.19,7.88s-9.64-2.22-8.81-6.43a3.22,3.22,0,0,1,3-2.73c1.39,0,2.19,1,1.84,2.57a3.18,3.18,0,0,1-1.39,2.12,8,8,0,0,0,5.76,1.77,6.42,6.42,0,0,0,7.1-4.85c1.64-7.88-14.3-2.9-12.18-14A8.84,8.84,0,0,1,771,507.6c6.66,0,9.65,2.45,8.65,6.43A3.21,3.21,0,0,1,776.78,516.54Z"/><path d="M581.87,587.3l12.86-29.67c.45-1,.55-1.19,1.35-1.19h5.18c.8,0,.8.25.8,1.25l.83,27.65,9.84-21.73c.26-.68.45-1.13.55-1.52.19-.93-.45-1-2.35-1-.74,0-.9-.36-.74-1l.55-2.7c.19-.87.19-1,1.38-1h10.29c.74,0,.83,0,.71,1l-.52,2.48a1.08,1.08,0,0,1-1.12,1.16c-2.38,0-2.64,0-3.93,2.89l-13.08,28.93c-.61,1.29-.71,1.45-1.83,1.45h-4.76c-1,0-1-.61-1-1.45l-1-26.39-11,26.39c-.58,1.29-.84,1.45-1.58,1.45h-6.43c-.7,0-.93-.19-1-1.45l-1.64-28.67c0-2.87-.45-3-2.21-3-1.29,0-1.39-.33-1.16-1.51l.45-2.19c0-.84.39-1,1-1h12.5c.74,0,.9.2.74,1l-.54,2.7a1.08,1.08,0,0,1-1.1,1c-2,0-2.66,0-2.89,1a8.72,8.72,0,0,0,0,1.77Z"/><path d="M641.6,574.82c-1.16,5.12-5.08,8.65-12.54,8.65a22.91,22.91,0,0,1-5.82-.77c-.45,4.6,1.26,6.43,6.11,6.43a20.32,20.32,0,0,0,6.95-1.19,12.62,12.62,0,0,1,2.18-.71c.39,0,.48.26.39.71l-.61,3c0,.61-.45.93-1.39,1.38a22.79,22.79,0,0,1-9,1.77c-9.64,0-12.66-6-10.89-14.75,1.64-8.14,6.81-13.76,14.72-13.76S642.85,569,641.6,574.82Zm-17.55,3.48a23.67,23.67,0,0,0,5.37.77,5.79,5.79,0,0,0,6.43-4.57c.61-3-1-4.24-4.38-4.24s-6,2.89-7.39,8Z"/><path d="M649.19,566.63l4.14-7.14c.45-.74,1.13-.84,2.25-.84s1.45,0,1.29.84l-1.45,7.14h5.73c.93,0,1.22,0,1,.93l-.61,2.89a1.19,1.19,0,0,1-1.26,1.11h-5.87L651.89,584c-.93,4.44,0,5.17,2.73,5.17a8.87,8.87,0,0,0,3.22-.51c.54-.19.8,0,.61.77l-.52,2.64a1.53,1.53,0,0,1-1.12,1.35,15.7,15.7,0,0,1-4.76.67c-4.66,0-8.13-1.77-6.75-8.48l2.86-14.08h-2.48c-1,0-1.35,0-1.09-1.13l.48-2.44a1.18,1.18,0,0,1,1.26-1.35Z"/><path d="M666.84,559.49h-1.29c-.84,0-.9-.51-.8-1.12l.51-2.45c.19-.93.45-1,1.25-1.09l8-.48c.9,0,1,.41.81,1.44l-6.43,31.12c-.29,1.61,0,2.32,1.06,2.32a8.31,8.31,0,0,0,1.64-.23c.38,0,.61,0,.48.52l-.58,2.86a1.54,1.54,0,0,1-1,1.25,10.51,10.51,0,0,1-4,.45c-2.48,0-5.11-1-4.18-5.75l5.46-26.75C668.19,560.07,667.9,559.55,666.84,559.49Z"/><path d="M700.37,589.19a8.89,8.89,0,0,0,1.7-.22c.35,0,.55,0,.45.51l-.61,2.86a1.54,1.54,0,0,1-1,1.26,10.4,10.4,0,0,1-3.92.45c-2,0-4.11-.68-4.37-3.41a11.07,11.07,0,0,1-8.84,3.83c-6.11,0-9.9-3.67-7.81-14,2-9.64,7.68-14.69,14.91-14.69a8.61,8.61,0,0,1,6.11,2.06v-.32c.26-1,.55-1.45,1.45-1.45l7.55.58c.74,0,.93.19.81,1l-.55,2.57c0,.58-.45.84-1.19,1.09h-1c-1.15.32-1.64.45-2,2.29l-2.8,13.56C699.08,588.58,699.43,589.19,700.37,589.19Zm-5.92-8.8,1.54-7.72a6.74,6.74,0,0,0-4.82-1.77c-4.56,0-7.46,4.31-8.65,10.13-1,4.85-.19,8.39,3.57,8.39S692.81,586.14,694.45,580.39Z"/><path d="M709.21,571.35c-.74,0-.84-.35-.71-1l.55-2.63c0-.77.38-1,1.19-1l7.74-.45c.9,0,1,.42.81,1.45l-.71,3.47a10.72,10.72,0,0,1,10-5.44c4.76,0,7.74,2.32,6.43,9.07L732,586.82c-.36,1.6,0,2.31,1,2.31a9.76,9.76,0,0,0,1.71-.22c.35,0,.48,0,.38.51l-.61,2.89a1.31,1.31,0,0,1-.64,1.1,11.78,11.78,0,0,1-4.21.57c-2.54,0-5.11-1-4.18-5.75L728,575.37c.61-2.73-.29-4.56-3.21-4.56-4.31,0-7.27,4.08-8.65,11.09l-2.19,10.67c-.19.84-.38,1-1.19,1h-4.37c-.71,0-.9-.19-.71-1l3.93-19.29C712.1,571.8,711.84,571.35,709.21,571.35Z"/><path d="M762.89,589.19a8.9,8.9,0,0,0,1.71-.22c.35,0,.54,0,.45.51l-.61,2.86a1.59,1.59,0,0,1-.94,1.26,10.74,10.74,0,0,1-4,.45c-2,0-4.25-.68-4.37-3.57a12.15,12.15,0,0,1-9.2,4c-5.91,0-9.42-3.67-7.49-13.22,2.09-10.15,7.75-15.46,14.95-15.46a8.64,8.64,0,0,1,6.11,2.06l1.28-6.43c.29-1.51,0-2-1.09-2.06h-1.29c-.8,0-.83-.51-.73-1.12l.51-2.45c.19-.93.45-1,1.19-1.09l8-.48c.9,0,1,.42.83,1.44l-6.43,31.48C761.61,588.58,762,589.19,762.89,589.19Zm-5.91-8.8,1.54-7.72a6.47,6.47,0,0,0-4.82-1.77c-4.57,0-7.46,4.31-8.65,10.13-1,4.92,0,8.39,3.57,8.39S755.34,586.14,757,580.39Z"/><path d="M787.68,575.63c-2.09,0-3.22-1.35-2.73-3.63a4.25,4.25,0,0,1,.64-1.61,11.12,11.12,0,0,0-3.44-.52c-2.77,0-4.47,1.19-4.86,3.22-1.12,5.66,14.57,1.54,12.22,12.86-1.19,5.69-5.11,8.48-12.41,8.48-6.43,0-10.54-2.12-9.64-6.78a4.39,4.39,0,0,1,4.27-3.82c2.13,0,3,1.44,2.58,3.56a5.24,5.24,0,0,1-.94,2,11.33,11.33,0,0,0,4.34.77c3.22,0,5.21-1.28,5.73-3.63,1.28-6.27-14.41-1.87-12.22-12.86,1-5.11,5-8,11.32-8,6.84,0,10,2.28,9.16,6.27A4.48,4.48,0,0,1,787.68,575.63Z"/><path d="M507.29,595.11a1.35,1.35,0,0,1-1.35,1.35h0a1.34,1.34,0,0,1-1.35-1.35V434.76a1.34,1.34,0,0,1,1.35-1.35h0a1.35,1.35,0,0,1,1.35,1.35Z"/></svg>