<svg id="Layer_1" data-name="Layer 1" xmlns="http://www.w3.org/2000/svg" viewBox="0 0 1000 1000"><path d="M325.6,506.18h59.2V486.59H325.6v-45.1h69.64V421.92H304.29V576h93.46V556.38H325.6Z"/><path d="M668.46,493.87c13.18-6.38,20.44-19.13,20.44-33.63,0-24-19.78-41.77-46.82-41.77-28.58,0-49.9,20.22-50.34,49.24H613.5c.66-17.81,11.65-29.24,27.92-29.24,15.39,0,26.16,10.34,26.16,23.74s-11.43,23.52-28.8,23.52H627.06v18.91h12.6c21.32,0,34.73,10.55,34.73,27.47,0,15.83-13.41,27.48-31.87,27.48-18.25,0-31.44-12.31-32.54-31.43v-.22H588.22v.22c.66,30.77,22.86,51.21,54.3,51.21,30.33,0,53.19-19.78,53.19-47.26C695.71,514.75,684.94,500.24,668.46,493.87Z"/><path d="M491,418.47c-44.18,0-80,35.61-80,80.89a79.6,79.6,0,0,0,80,80c17.59,0,33.42-5,45.72-13.62l17.81,19.78,16.05-12.31L552.11,551.9A80.74,80.74,0,0,0,491,418.47Zm46.16,117.38-18-19.56-15.39,12.09,18.69,21.54A54.27,54.27,0,0,1,491,559.37c-31.87,0-58-28.35-58-60,0-32.09,26.16-60.45,58-60.45,32.76,0,58.91,28.36,58.91,60.45a59.8,59.8,0,0,1-12.75,36.49Z"/></svg>