<svg id="Layer_1" data-name="Layer 1" xmlns="http://www.w3.org/2000/svg" viewBox="0 0 1000 1000"><path d="M235.68,514.28c5.56,0,9.71-.83,13,3.79A14.49,14.49,0,0,1,251,526.6c0,15.28-12.8,22.27-26.54,22.27-8,0-19.42-3.79-19.42-13.62,0-4.62,3.55-8.42,7.58-10-4.74-1.77-7.71-5.44-7.71-10.77,0-7.11,4.39-10.31,10.67-12.09-4.5-2.84-7.93-6.75-7.93-12.31,0-10.43,8.29-16.59,18-16.59,5.45,0,9.48,1.78,13.51,5.33,2.37-2.85,4.51-5.8,8.65-5.8,2.84,0,5.21,1.89,5.21,4.85s-1.42,4.26-4.26,4.26-3.91-4-4.86-4c-1.3,0-2.37,1.66-3.2,2.49a13.23,13.23,0,0,1,2.84,8.76c0,5.34-2.84,11-7.58,13.74S225,505,220,505c-3.43,0-11.37.24-11.37,5.33,0,3,2.13,3.91,4.73,3.91Zm-18.36,11.13c-4.15,0-4.74,5.69-4.74,8.89,0,7.46,5.21,11.61,12.31,11.61,9.6,0,18.49-2.84,21.57-13.15,2-6.75-2.84-7.35-9-7.35Zm1.77-28.19c0,4.27,1.78,5.92,6.29,5.92,5.08,0,6.74-1.06,6.74-5.92V480.76c0-3.91-2.25-4.86-6.28-4.86-5,0-6.75,2.37-6.75,4.86Z"/><path d="M266.36,495v9.48c0,8.29.47,16.11,10.54,16.11,8.53,0,15.05-6.16,17.41-14.22h3c-3.08,11.49-11.25,16.59-22.74,16.59-12.91,0-22.27-12.44-22.27-24.52,0-13,10.66-24.88,23.57-24.88,11,0,21.21,7.59,21.21,19.31,0,2.49-1.07,2.13-3,2.13Zm17.29-3c0-7.94,2-16.11-8.53-16.11-9.83,0-8.76,8.65-8.76,16.11Z"/><path d="M319.66,484.9h.24c3.79-7.34,9.12-11.37,17.65-11.37,15.76,0,14.45,11,14.45,22.74v21.92h7.46v3H332v-3h7.45V496.87c0-11,1.19-19.08-6.75-19.08-5.09,0-9.71,5.46-11.49,9.83-1.54,3.92-1.54,9.36-1.54,14.93v15.64h7.46v3H299.05v-3h8.06v-41h-8.06v-2.95c6,.23,13.27-.25,20.61-.48Z"/><path d="M375.34,495v9.48c0,8.29.47,16.11,10.54,16.11,8.53,0,15-6.16,17.41-14.22h3c-3.08,11.49-11.26,16.59-22.75,16.59-12.91,0-22.27-12.44-22.27-24.52,0-13,10.66-24.88,23.57-24.88,11,0,21.21,7.59,21.21,19.31,0,2.49-1.06,2.13-3,2.13Zm17.3-3c0-7.94,2-16.11-8.53-16.11-9.84,0-8.77,8.65-8.77,16.11Z"/><path d="M429.47,486.92c3.79-6.52,7.94-13.39,16.59-13.39,4.62,0,9.47,2.37,9.47,7.7,0,4.62-3.2,6.64-7.46,6.64a5.82,5.82,0,0,1-5.69-5.46,10.33,10.33,0,0,1,.24-1.77c.36-1.9.47-2.61-.82-2.61-2.26,0-3.44,1.19-5,2.73-4.5,4.5-7.35,10.89-7.35,26.41v11h10.66v3H409.69v-3h7v-41h-7.83v-3c6.17.24,13.4-.24,20.62-.47Z"/><path d="M488.71,480.16c0-3.08-5.81-4.26-7.83-4.26-4.49,0-10.06,2.25-8.29,4.5a11.17,11.17,0,0,1,1.66,5.69c0,3.08-3,5.21-5.69,5.21-3.32,0-6.16-1.78-6.16-5.57,0-9,11.61-12.2,18.84-12.2a33.57,33.57,0,0,1,15.16,3.2c3.32,1.66,4.39,3.55,4.39,7.22v31.51c0,1.55,1.42,2.26,2.84,2.26s3.2-1.78,4.14-2.73l1.43,1.66c-3.08,3.78-6.28,6.28-11.26,6.28-5.21,0-8.53-3.2-9.23-8.41a22.65,22.65,0,0,1-17.31,8.41c-7.1,0-12.31-3.91-12.31-11.49,0-14.1,19-17.06,29.62-16.47Zm0,17.3c-7.36,0-17.18,1-17.18,10.54,0,5.21,2.13,9.12,7.69,9.12,4.15,0,7.23-3.19,8.65-7a16.73,16.73,0,0,0,.84-6.16Z"/><path d="M518.31,458.5c4.27,0,8.54-.47,12.8-.71V474.3h14.12v2.91H531.11v34.58c0,3.8.12,6.52,4.62,6.52,3.79,0,6-3,7.22-6.28l2.37,1.18c-2.48,6.64-7.57,9.72-14.44,9.72-10.79,0-12.57-3.67-12.57-10.19V477.21h-7.57V474.3h7.57Z"/><path d="M552.55,521.15v-3h8.65v-41h-8.65v-2.89c6.9-.1,14.21-.31,21.45-.54v44.42h8.76v3Zm14.1-56.51c-3.68,0-6.4-3.67-6.4-7.11a6.88,6.88,0,0,1,6.4-6.4c3.43,0,7,2.85,7,6.4a6.89,6.89,0,0,1-7,7.11"/><path d="M608.94,473.53c13.39,0,24.88,11.73,24.88,25s-11.49,24.4-24.88,24.4-24.88-11.14-24.88-24.4,11.5-25,24.88-25m0,2.37c-11.61,0-10.78,9.24-10.78,22.63,0,15.39.24,22,10.78,22s10.78-6.64,10.78-22c0-13.39.83-22.63-10.78-22.63"/><path d="M657.15,484.9h.24c3.79-7.34,9.12-11.37,17.65-11.37,15.75,0,14.45,11,14.45,22.74v21.92H697v3H669.47v-3h7.46V496.87c0-11,1.19-19.08-6.74-19.08-5.1,0-9.72,5.46-11.5,9.83-1.54,3.92-1.54,9.36-1.54,14.93v15.64h7.46v3H636.54v-3h8.05v-41h-8.05v-2.95c6,.23,13.27-.25,20.61-.48Z"/><rect x="703.57" y="521.2" width="119.59" height="2.96"/></svg>