<svg width="772" height="528" viewBox="0 0 772 528" fill="none" xmlns="http://www.w3.org/2000/svg">
<rect width="772" height="528" fill="white"/>
<g clip-path="url(#clip0_103_97)">
<g style="mix-blend-mode:multiply">
<g style="mix-blend-mode:multiply">
<g style="mix-blend-mode:multiply">
<path d="M138.896 287.46V290.898L136.471 291.116C134.755 291.38 134.423 291.758 134.423 293.706V306.702H130.327L129.469 301.201C126.781 305.144 122.308 307.459 116.062 307.459C105.457 307.459 99.9084 299.963 99.9084 287.334C99.9084 275.198 106.692 267.978 118.212 267.978C123.704 267.978 127.685 270.132 129.79 273.903L130.865 268.722H133.988L133.931 284.423H129.893L129.515 281.294C128.76 275.473 124.882 272.229 118.967 272.229C112.287 272.229 106.383 276.275 106.383 287.334C106.383 298.176 110.582 303.092 117.583 303.195C123.132 303.253 128.085 300.387 128.085 293.867V293.11C128.085 291.758 127.273 291.276 125.877 291.276L118.224 291.001V287.449L138.896 287.46Z" fill="#399542"/>
</g>
<g style="mix-blend-mode:multiply">
<path d="M164.064 285.89C164.064 288.858 162.405 289.717 160.735 289.717C160.369 289.767 159.997 289.737 159.644 289.629C159.291 289.522 158.965 289.34 158.689 289.095C158.412 288.851 158.191 288.549 158.041 288.212C157.891 287.874 157.814 287.508 157.818 287.139C157.808 286.633 157.96 286.137 158.252 285.724C158.545 285.311 158.962 285.004 159.442 284.847C158.876 284.555 158.248 284.406 157.612 284.411C154.18 284.411 151.732 288.25 151.732 294.393V302.106C151.732 303.355 152.224 303.733 153.894 303.894L157.497 304.1V306.747H141.481V304.1L144.227 303.894C145.577 303.733 145.897 303.355 145.897 302.106V285.786C145.897 284.549 145.577 284.17 144.227 284.056L141.481 283.838V281.145H150.256L150.805 287.838C151.949 282.921 154.512 280.389 158.39 280.389C159.13 280.349 159.87 280.463 160.564 280.723C161.258 280.983 161.891 281.384 162.424 281.9C162.957 282.416 163.377 283.037 163.659 283.723C163.941 284.41 164.079 285.147 164.064 285.89Z" fill="#399542"/>
</g>
<g style="mix-blend-mode:multiply">
<path d="M193.614 305.739C192.126 306.716 190.381 307.223 188.603 307.195C185.434 307.195 183.764 305.636 183.546 302.405C182.69 303.988 181.41 305.301 179.85 306.196C178.29 307.091 176.511 307.532 174.715 307.47C170.139 307.47 167.553 304.823 167.553 300.834C167.553 296.033 170.619 293.603 177.3 292.812L183.02 292.17V290.027C183.02 284.79 180.732 283.93 178.112 283.93C177.061 283.874 176.011 284.058 175.042 284.469C174.072 284.88 173.209 285.507 172.518 286.303C173.107 286.364 173.649 286.651 174.031 287.104C174.413 287.557 174.605 288.141 174.566 288.732C174.552 289.108 174.462 289.477 174.3 289.817C174.138 290.156 173.909 290.458 173.626 290.705C173.343 290.953 173.012 291.139 172.654 291.253C172.297 291.367 171.919 291.406 171.546 291.368C171.136 291.378 170.729 291.301 170.352 291.142C169.974 290.983 169.634 290.746 169.354 290.446C169.074 290.146 168.861 289.791 168.728 289.403C168.595 289.014 168.546 288.602 168.583 288.194C168.583 284.148 172.678 280.366 178.982 280.366C185.651 280.366 188.729 283.392 188.729 290.612V300.926C188.729 302.645 189.106 303.459 190.445 303.459C191.285 303.462 192.108 303.219 192.813 302.76L193.614 305.739ZM183.009 296.571V295.425L178.593 295.964C174.715 296.445 172.45 297.305 172.45 300.055C172.45 302.806 174.337 303.619 176.27 303.619C180.149 303.585 183.009 299.757 183.009 296.571Z" fill="#399542"/>
</g>
<g style="mix-blend-mode:multiply">
<path d="M228.471 303.78V306.69H214.743V303.78L217.031 303.562C218.175 303.459 218.484 303.126 218.484 302.209V290.371C218.484 285.191 216.116 284.056 213.691 284.056C210.03 284.056 207.067 286.967 207.067 292.846V302.187C207.067 303.149 207.341 303.527 208.577 303.642L210.728 303.802V306.713H197.114V303.78L199.585 303.562C200.935 303.459 201.255 303.08 201.255 301.843V286.004C201.255 284.858 200.935 284.434 199.585 284.274L197.114 284.056V281.145H206.049L206.529 286.704C207.246 284.776 208.555 283.126 210.267 281.992C211.98 280.857 214.008 280.296 216.059 280.389C221.882 280.389 224.307 283.735 224.307 289.993V301.866C224.307 303.103 224.627 303.482 225.977 303.585L228.471 303.78Z" fill="#399542"/>
</g>
<g style="mix-blend-mode:multiply">
<path d="M250.299 304.399C247.812 306.441 244.682 307.53 241.467 307.47C235.816 307.47 233.23 304.445 233.23 297.603V284.435H229.798V281.146H233.23C234.683 281.146 235.518 279.255 235.438 274.27H239.099V281.146H247.988V284.435H239.099V297.706C239.099 301.591 240.449 303.436 243.137 303.436C244.233 303.427 245.315 303.192 246.317 302.746C247.318 302.301 248.218 301.654 248.96 300.846L250.299 304.399Z" fill="#399542"/>
</g>
<g style="mix-blend-mode:multiply">
<path d="M284.802 303.78V306.69H271.074V303.78L273.362 303.562C274.506 303.459 274.757 303.126 274.757 302.209V290.027C274.757 285.271 272.469 284.091 269.907 284.091C266.36 284.091 263.397 287.059 263.397 292.617V302.164C263.397 303.126 263.661 303.504 264.908 303.619L267.115 303.78V306.69H253.387V303.78L255.927 303.562C257.22 303.459 257.597 303.08 257.597 301.843V271.862C257.597 270.716 257.22 270.304 255.927 270.143L253.387 269.926V267.015H263.409V279.208C263.409 281.627 263.352 283.793 263.294 285.672C264.14 284.016 265.442 282.639 267.046 281.702C268.65 280.766 270.489 280.31 272.344 280.389C278.212 280.389 280.638 283.827 280.638 289.557V301.866C280.638 303.103 280.958 303.482 282.251 303.585L284.802 303.78Z" fill="#399542"/>
</g>
<g style="mix-blend-mode:multiply">
<path d="M314.82 305.739C313.337 306.716 311.596 307.223 309.821 307.195C306.641 307.195 304.97 305.636 304.753 302.405C303.897 303.988 302.617 305.301 301.057 306.196C299.496 307.091 297.718 307.532 295.921 307.47C291.403 307.47 288.76 304.823 288.76 300.834C288.76 296.033 291.837 293.603 298.507 292.812L304.227 292.17V290.027C304.227 284.79 301.939 283.93 299.331 283.93C298.278 283.873 297.225 284.056 296.254 284.467C295.283 284.879 294.418 285.506 293.725 286.303C294.314 286.364 294.856 286.651 295.238 287.104C295.62 287.557 295.811 288.141 295.773 288.732C295.761 289.108 295.671 289.476 295.511 289.816C295.35 290.155 295.122 290.458 294.84 290.705C294.558 290.952 294.228 291.139 293.871 291.253C293.514 291.367 293.137 291.406 292.764 291.368C292.354 291.378 291.947 291.301 291.57 291.142C291.192 290.983 290.852 290.746 290.572 290.446C290.292 290.146 290.079 289.791 289.946 289.403C289.813 289.014 289.764 288.602 289.801 288.194C289.801 284.148 293.885 280.366 300.189 280.366C306.87 280.366 309.935 283.392 309.935 290.612V300.926C309.935 302.645 310.313 303.459 311.663 303.459C312.503 303.459 313.325 303.216 314.031 302.76L314.82 305.739ZM304.215 296.571V295.425L299.8 295.964C295.921 296.445 293.668 297.305 293.668 300.055C293.668 302.806 295.544 303.619 297.489 303.619C301.344 303.585 304.215 299.757 304.215 296.571Z" fill="#399542"/>
</g>
<g style="mix-blend-mode:multiply">
<path d="M365.294 303.779V306.69H351.68V303.779L353.842 303.561C354.986 303.458 355.295 303.126 355.295 302.209V289.889C355.295 285.305 353.35 284.056 350.879 284.056C347.596 284.056 344.736 286.703 344.736 292.078V302.221C344.736 303.183 345.01 303.561 346.143 303.676L348.294 303.836V306.747H335.309V303.779L337.46 303.561C338.604 303.458 338.913 303.126 338.913 302.209V289.603C338.913 285.179 336.98 284.044 334.611 284.044C331.179 284.044 328.308 286.795 328.308 292.135V302.175C328.308 303.137 328.571 303.516 329.704 303.63L331.912 303.791V306.702H318.344V303.779L320.826 303.561C322.165 303.458 322.485 303.08 322.485 301.842V286.004C322.485 284.858 322.165 284.434 320.826 284.274L318.344 284.056V281.145H327.118L327.873 286.004C328.6 284.267 329.843 282.796 331.433 281.791C333.023 280.786 334.884 280.296 336.762 280.389C341.235 280.389 343.546 282.383 344.404 285.844C345.135 284.145 346.368 282.712 347.937 281.737C349.506 280.762 351.335 280.291 353.179 280.389C359.002 280.389 361.187 283.827 361.187 289.671V301.865C361.187 303.103 361.507 303.481 362.8 303.584L365.294 303.779Z" fill="#399542"/>
</g>
<g style="mix-blend-mode:multiply">
<path d="M412.312 279.953H409.246L408.651 275.965C408.171 273.215 407.359 272.894 404.716 272.894H392.132V285.626H405.379V289.718H392.12V300.731C392.12 302.404 392.658 302.782 395.083 303.023L399.499 303.298V306.736H380.921V303.298L383.666 303.08C385.554 302.805 385.954 302.427 385.954 301.029V274.406C385.954 272.997 385.577 272.619 383.666 272.401L380.921 272.137V268.699H412.312V279.953Z" fill="#399542"/>
</g>
<g style="mix-blend-mode:multiply">
<path d="M426.223 307.47C417.437 307.47 413.353 302.186 413.353 293.602C413.353 285.019 417.872 280.389 426.223 280.389C434.574 280.389 439.036 284.973 439.036 293.602C439.036 302.232 434.94 307.47 426.223 307.47ZM426.223 283.575C422.608 283.575 419.359 286.004 419.359 293.602C419.359 301.201 422.368 304.238 426.223 304.18C430.078 304.123 433.087 301.212 433.087 293.602C433.087 285.993 429.827 283.575 426.223 283.575Z" fill="#399542"/>
</g>
<g style="mix-blend-mode:multiply">
<path d="M472.509 303.78V306.691H463.792L463.037 301.671C461.584 305.293 458.255 307.401 453.885 307.401C448.062 307.401 445.694 303.963 445.694 298.015V286.005C445.694 284.859 445.431 284.435 444.184 284.274L441.713 284.056V281.146H451.563V298.336C451.563 302.645 453.771 303.837 456.196 303.837C459.754 303.837 462.66 300.708 462.66 295.311V286.039C462.66 284.893 462.339 284.469 461.046 284.309L458.301 284.091V281.18H468.471V301.9C468.471 303.138 468.791 303.516 469.981 303.619L472.509 303.78Z" fill="#399542"/>
</g>
<g style="mix-blend-mode:multiply">
<path d="M508.088 303.78V306.691H494.36V303.78L496.648 303.562C497.792 303.459 498.1 303.127 498.1 302.21V290.371C498.1 285.191 495.732 284.057 493.307 284.057C489.646 284.057 486.683 286.967 486.683 292.847V302.187C486.683 303.15 486.958 303.528 488.193 303.642L490.344 303.803V306.714H476.742V303.78L479.224 303.562C480.574 303.459 480.895 303.081 480.895 301.843V286.005C480.895 284.859 480.574 284.435 479.224 284.274L476.742 284.057V281.146H485.688L486.168 286.704C486.884 284.776 488.193 283.125 489.905 281.99C491.618 280.855 493.647 280.294 495.698 280.389C501.521 280.389 503.935 283.736 503.935 289.993V301.866C503.935 303.104 504.267 303.482 505.605 303.585L508.088 303.78Z" fill="#399542"/>
</g>
<g style="mix-blend-mode:multiply">
<path d="M540.223 304.066V306.713H531.883L531.128 302.45C529.457 305.579 526.334 307.412 521.758 307.412C514.894 307.412 510.982 302.565 510.982 294.038C510.982 285.729 514.803 280.389 522.422 280.389C526.403 280.389 528.668 282.165 529.961 284.492V271.69C529.961 270.441 529.641 270.063 528.291 269.96L525.27 269.742V267.049H535.864V302.106C535.864 303.355 536.241 303.734 537.534 303.894L540.223 304.066ZM530.258 294.038C530.258 286.921 527.97 283.575 523.909 283.632C519.596 283.632 517.045 287.07 517.045 294.038C517.045 301.006 519.528 304.18 523.509 304.18C527.135 304.18 530.258 301.487 530.258 294.038V294.038Z" fill="#399542"/>
</g>
<g style="mix-blend-mode:multiply">
<path d="M570.184 305.739C568.697 306.716 566.951 307.223 565.173 307.195C561.993 307.195 560.323 305.636 560.105 302.404C559.25 303.989 557.97 305.303 556.41 306.197C554.849 307.092 553.071 307.533 551.274 307.47C546.698 307.47 544.112 304.823 544.112 300.834C544.112 296.033 547.19 293.603 553.859 292.812L559.579 292.17V290.027C559.579 284.79 557.291 283.93 554.683 283.93C553.63 283.873 552.578 284.056 551.606 284.467C550.635 284.879 549.77 285.506 549.077 286.303C549.666 286.364 550.208 286.651 550.59 287.104C550.972 287.557 551.164 288.141 551.125 288.732C551.113 289.108 551.024 289.476 550.863 289.816C550.703 290.155 550.474 290.458 550.192 290.705C549.91 290.952 549.58 291.139 549.223 291.253C548.866 291.367 548.489 291.406 548.116 291.368C547.707 291.378 547.3 291.301 546.922 291.142C546.544 290.983 546.204 290.746 545.925 290.446C545.645 290.146 545.431 289.791 545.298 289.403C545.166 289.014 545.116 288.602 545.153 288.194C545.153 284.148 549.249 280.366 555.541 280.366C562.222 280.366 565.288 283.392 565.288 290.612V300.926C565.288 302.645 565.665 303.459 567.015 303.459C567.855 303.459 568.677 303.216 569.383 302.76L570.184 305.739ZM559.568 296.571V295.425L555.152 295.964C551.274 296.445 549.02 297.305 549.02 300.055C549.02 302.806 550.896 303.619 552.841 303.619C556.685 303.585 559.533 299.757 559.533 296.571H559.568Z" fill="#399542"/>
</g>
<g style="mix-blend-mode:multiply">
<path d="M591.382 304.399C588.896 306.441 585.765 307.53 582.551 307.47C576.899 307.47 574.314 304.445 574.314 297.603V284.435H570.882V281.146H574.314C575.767 281.146 576.602 279.255 576.522 274.27H580.183V281.146H589.071V284.435H580.183V297.706C580.183 301.591 581.533 303.436 584.232 303.436C585.326 303.425 586.406 303.189 587.406 302.744C588.405 302.299 589.303 301.653 590.044 300.846L591.382 304.399Z" fill="#399542"/>
</g>
<g style="mix-blend-mode:multiply">
<path d="M609.343 304.066V306.713H594.688V304.066L597.446 303.86C598.727 303.699 599.104 303.321 599.104 302.072V285.787C599.104 284.549 598.727 284.171 597.446 284.056L594.688 283.838V281.145H604.984V302.072C604.984 303.321 605.305 303.699 606.598 303.86L609.343 304.066ZM598.521 273.215C598.521 272.292 598.887 271.407 599.538 270.755C600.189 270.103 601.072 269.736 601.993 269.736C602.914 269.736 603.797 270.103 604.448 270.755C605.099 271.407 605.465 272.292 605.465 273.215C605.465 274.137 605.099 275.022 604.448 275.674C603.797 276.326 602.914 276.693 601.993 276.693C601.072 276.693 600.189 276.326 599.538 275.674C598.887 275.022 598.521 274.137 598.521 273.215V273.215Z" fill="#399542"/>
</g>
<g style="mix-blend-mode:multiply">
<path d="M624.73 307.47C615.955 307.47 611.86 302.186 611.86 293.602C611.86 285.019 616.436 280.389 624.73 280.389C633.024 280.389 637.543 284.973 637.543 293.602C637.543 302.232 633.459 307.47 624.73 307.47ZM624.73 283.575C621.126 283.575 617.866 286.004 617.866 293.602C617.866 301.201 620.886 304.238 624.73 304.18C628.574 304.123 631.594 301.212 631.594 293.602C631.594 285.993 628.333 283.575 624.73 283.575Z" fill="#399542"/>
</g>
<g style="mix-blend-mode:multiply">
<path d="M672 303.78V306.69H658.272V303.78L660.56 303.562C661.704 303.459 662.013 303.126 662.013 302.209V290.371C662.013 285.191 659.645 284.056 657.22 284.056C653.559 284.056 650.596 286.967 650.596 292.846V302.187C650.596 303.149 650.87 303.527 652.106 303.642L654.257 303.802V306.713H640.643V303.78L643.114 303.562C644.464 303.459 644.784 303.08 644.784 301.843V286.004C644.784 284.858 644.464 284.434 643.114 284.274L640.643 284.056V281.145H649.578L650.058 286.704C650.775 284.776 652.084 283.126 653.797 281.992C655.509 280.857 657.537 280.296 659.588 280.389C665.411 280.389 667.836 283.735 667.836 289.993V301.866C667.836 303.103 668.156 303.482 669.495 303.585L672 303.78Z" fill="#399542"/>
</g>
<g style="mix-blend-mode:multiply">
<path d="M172.896 324.569L171.328 325.715C171.088 323.858 169.955 323.262 168.88 323.262C166.89 323.262 166.157 324.5 166.157 326.609V328.901H170.219V330.517H166.157V341.656H163.869V330.482H161.776V328.866H163.904V326.838C163.904 323.652 165.299 321.417 168.754 321.417C169.702 321.381 170.633 321.675 171.388 322.25C172.144 322.825 172.676 323.644 172.896 324.569V324.569Z" fill="#399542"/>
</g>
<g style="mix-blend-mode:multiply">
<path d="M178.307 342C174.131 342 172.061 339.353 172.061 335.067C172.061 330.78 174.349 328.488 178.307 328.488C182.265 328.488 184.553 330.78 184.553 335.067C184.553 339.353 182.482 342 178.307 342ZM178.307 330.104C176.316 330.104 174.429 331.25 174.429 335.067C174.429 338.883 176.179 340.384 178.307 340.35C180.435 340.315 182.185 338.848 182.185 335.067C182.185 331.285 180.297 330.139 178.307 330.139V330.104Z" fill="#399542"/>
</g>
<g style="mix-blend-mode:multiply">
<path d="M197.24 332.878L195.41 333.256C195.41 330.746 194.334 330.265 193.339 330.265C191.611 330.265 190.239 331.743 190.239 335.147V341.599H187.951V328.867H189.701L189.998 331.365C190.26 330.519 190.791 329.783 191.51 329.267C192.229 328.752 193.096 328.487 193.98 328.511C196.268 328.511 197.24 330.139 197.24 332.878Z" fill="#399542"/>
</g>
<g style="mix-blend-mode:multiply">
<path d="M213.256 340.189C212.763 340.797 212.132 341.278 211.415 341.593C210.699 341.908 209.918 342.048 209.138 342C206.575 342 205.259 340.544 205.259 337.255V330.619H203.452V328.866H205.248C205.866 328.866 206.163 327.571 206.106 325.52H207.536V328.866H212.112V330.619H207.536V336.957C207.536 339.089 208.257 340.109 209.744 340.109C210.282 340.131 210.815 340.001 211.283 339.734C211.75 339.466 212.133 339.072 212.387 338.596L213.256 340.189Z" fill="#399542"/>
</g>
<g style="mix-blend-mode:multiply">
<path d="M226.641 333.015V341.599H224.353V333.473C224.353 330.861 223.003 330.299 221.607 330.299C219.582 330.299 217.889 331.858 217.889 334.826V341.599H215.601V321.772H217.889V328.351C217.889 329.497 217.889 330.459 217.889 331.319C218.296 330.44 218.952 329.7 219.776 329.192C220.6 328.685 221.555 328.432 222.522 328.465C225.405 328.488 226.641 330.207 226.641 333.015Z" fill="#399542"/>
</g>
<g style="mix-blend-mode:multiply">
<path d="M241.41 335.582H232.178C232.304 339.112 233.711 340.35 235.839 340.384C236.273 340.435 236.712 340.399 237.132 340.278C237.552 340.157 237.944 339.953 238.285 339.679C238.625 339.405 238.908 339.066 239.117 338.681C239.325 338.296 239.455 337.874 239.499 337.439L241.364 337.794C241.032 340.384 239.019 342 235.644 342C231.663 342 229.855 339.387 229.855 335.124C229.855 330.86 232.063 328.522 235.999 328.522C239.522 328.522 241.433 330.436 241.433 334.94L241.41 335.582ZM232.258 334.012H239.316C239.179 331.021 237.806 330.104 236.033 330.104C234.26 330.104 232.555 330.941 232.224 334.012H232.258Z" fill="#399542"/>
</g>
<g style="mix-blend-mode:multiply">
<path d="M264.621 328.213C264.621 331.8 262.494 334.367 258.238 334.367H252.667V341.598H250.219V322.654H258.455C262.734 322.654 264.621 324.488 264.621 328.213ZM262.093 328.293C262.093 325.921 260.949 324.706 257.941 324.706H252.644V332.43H257.643C260.686 332.43 262.093 330.619 262.093 328.293Z" fill="#399542"/>
</g>
<g style="mix-blend-mode:multiply">
<path d="M276.668 332.877L274.838 333.255C274.838 330.745 273.762 330.264 272.767 330.264C271.039 330.264 269.667 331.742 269.667 335.146V341.598H267.379V328.866H269.129L269.426 331.364C269.687 330.518 270.217 329.78 270.936 329.264C271.655 328.749 272.524 328.484 273.408 328.511C275.73 328.511 276.668 330.138 276.668 332.877Z" fill="#399542"/>
</g>
<g style="mix-blend-mode:multiply">
<path d="M284.859 342C280.683 342 278.613 339.353 278.613 335.067C278.613 330.78 280.901 328.488 284.859 328.488C288.817 328.488 291.105 330.78 291.105 335.067C291.105 339.353 289.035 342 284.859 342ZM284.859 330.104C282.868 330.104 280.981 331.25 280.981 335.067C280.981 338.883 282.731 340.384 284.859 340.35C286.987 340.315 288.76 338.848 288.76 335.067C288.76 331.285 286.85 330.139 284.859 330.139V330.104Z" fill="#399542"/>
</g>
<g style="mix-blend-mode:multiply">
<path d="M302.602 340.189C302.106 340.796 301.473 341.277 300.755 341.592C300.037 341.907 299.255 342.047 298.473 342C295.921 342 294.594 340.544 294.594 337.255V330.619H292.798V328.866H294.594C295.224 328.866 295.51 327.571 295.464 325.52H296.917V328.866H301.493V330.619H296.917V336.957C296.917 339.089 297.649 340.109 299.136 340.109C299.673 340.132 300.205 340.002 300.67 339.734C301.136 339.466 301.517 339.072 301.767 338.596L302.602 340.189Z" fill="#399542"/>
</g>
<g style="mix-blend-mode:multiply">
<path d="M315.484 335.582H306.24C306.378 339.112 307.785 340.35 309.913 340.384C310.346 340.433 310.785 340.396 311.205 340.274C311.624 340.153 312.015 339.949 312.355 339.675C312.696 339.402 312.979 339.063 313.188 338.679C313.397 338.295 313.528 337.874 313.573 337.439L315.427 337.794C315.106 340.384 313.081 342 309.707 342C305.714 342 303.918 339.387 303.918 335.124C303.918 330.86 306.126 328.522 310.05 328.522C313.585 328.522 315.495 330.436 315.495 334.94L315.484 335.582ZM306.332 334.012H313.39C313.253 331.021 311.88 330.104 310.107 330.104C308.334 330.104 306.618 330.941 306.297 334.012H306.332Z" fill="#399542"/>
</g>
<g style="mix-blend-mode:multiply">
<path d="M327.656 337.015L329.624 337.313C329.326 340.201 327.336 341.954 323.904 341.954C319.671 341.954 317.898 339.284 317.898 335.078C317.898 330.872 320.026 328.5 324.167 328.5C327.599 328.5 329.235 330.196 329.532 333.084L327.565 333.405C327.29 331.193 326.249 330.116 324.201 330.116C322.153 330.116 320.266 331.262 320.266 335.078C320.266 338.895 321.959 340.339 324.03 340.373C324.492 340.409 324.957 340.349 325.395 340.197C325.833 340.045 326.235 339.804 326.576 339.488C326.916 339.173 327.188 338.79 327.374 338.365C327.56 337.939 327.656 337.48 327.656 337.015V337.015Z" fill="#399542"/>
</g>
<g style="mix-blend-mode:multiply">
<path d="M341.315 340.189C340.822 340.797 340.191 341.278 339.475 341.593C338.759 341.908 337.978 342.048 337.197 342C334.634 342 333.319 340.544 333.319 337.255V330.619H331.511V328.866H333.376C333.994 328.866 334.291 327.571 334.234 325.52H335.664V328.866H340.24V330.619H335.664V336.957C335.664 339.089 336.385 340.109 337.872 340.109C338.41 340.131 338.943 340.001 339.411 339.734C339.878 339.466 340.261 339.072 340.515 338.596L341.315 340.189Z" fill="#399542"/>
</g>
<g style="mix-blend-mode:multiply">
<path d="M343.386 324.889C343.393 324.605 343.483 324.328 343.645 324.094C343.807 323.86 344.035 323.679 344.299 323.573C344.563 323.467 344.852 323.441 345.13 323.498C345.409 323.556 345.665 323.694 345.866 323.895C346.067 324.097 346.205 324.353 346.262 324.632C346.319 324.911 346.293 325.201 346.187 325.465C346.082 325.73 345.901 325.957 345.667 326.12C345.434 326.282 345.157 326.372 344.873 326.379C344.48 326.376 344.103 326.218 343.825 325.94C343.547 325.661 343.389 325.284 343.386 324.889V324.889ZM345.994 328.866V341.599H343.706V328.866H345.994Z" fill="#399542"/>
</g>
<g style="mix-blend-mode:multiply">
<path d="M355.501 342C351.325 342 349.243 339.353 349.243 335.067C349.243 330.78 351.531 328.488 355.501 328.488C359.471 328.488 361.747 330.78 361.747 335.067C361.747 339.353 359.688 342 355.501 342ZM355.501 330.104C353.499 330.104 351.611 331.25 351.611 335.067C351.611 338.883 353.373 340.384 355.501 340.35C357.629 340.315 359.379 338.848 359.379 335.067C359.379 331.285 357.491 330.139 355.501 330.139V330.104Z" fill="#399542"/>
</g>
<g style="mix-blend-mode:multiply">
<path d="M376.173 333.015V341.599H373.885V333.473C373.885 330.86 372.512 330.299 371.117 330.299C369.115 330.299 367.399 331.857 367.399 334.826V341.599H365.111V328.866H366.964L367.261 331.582C367.646 330.64 368.309 329.839 369.162 329.286C370.015 328.733 371.016 328.454 372.032 328.488C374.938 328.488 376.173 330.207 376.173 333.015Z" fill="#399542"/>
</g>
<g style="mix-blend-mode:multiply">
<path d="M391.148 342C386.972 342 384.902 339.353 384.902 335.067C384.902 330.78 387.19 328.488 391.148 328.488C395.106 328.488 397.394 330.78 397.394 335.067C397.394 339.353 395.324 342 391.148 342ZM391.148 330.104C389.158 330.104 387.27 331.25 387.27 335.067C387.27 338.883 389.02 340.384 391.148 340.35C393.276 340.315 395.026 338.848 395.026 335.067C395.026 331.285 393.139 330.139 391.148 330.139V330.104Z" fill="#399542"/>
</g>
<g style="mix-blend-mode:multiply">
<path d="M410.276 324.568L408.708 325.714C408.468 323.858 407.335 323.262 406.26 323.262C404.27 323.262 403.537 324.499 403.537 326.608V328.9H407.61V330.516H403.537V341.656H401.249V330.482H399.122V328.866H401.249V326.837C401.249 323.651 402.657 321.417 406.1 321.417C407.054 321.372 407.993 321.663 408.755 322.238C409.517 322.814 410.055 323.638 410.276 324.568Z" fill="#399542"/>
</g>
<g style="mix-blend-mode:multiply">
<path d="M424.381 340.189C423.888 340.797 423.257 341.278 422.541 341.593C421.825 341.908 421.044 342.048 420.263 342C417.7 342 416.385 340.544 416.385 337.255V330.619H414.6V328.866H416.408C417.025 328.866 417.323 327.571 417.266 325.52H418.719V328.866H423.295V330.619H418.719V336.957C418.719 339.089 419.451 340.109 420.926 340.109C421.464 340.131 421.998 340.001 422.465 339.734C422.933 339.466 423.315 339.072 423.569 338.596L424.381 340.189Z" fill="#399542"/>
</g>
<g style="mix-blend-mode:multiply">
<path d="M437.789 333.015V341.599H435.501V333.473C435.501 330.861 434.151 330.299 432.755 330.299C430.73 330.299 429.037 331.858 429.037 334.826V341.599H426.749V321.772H429.037V328.351C429.037 329.497 429.037 330.459 429.037 331.319C429.444 330.44 430.1 329.7 430.924 329.192C431.749 328.685 432.704 328.432 433.671 328.465C436.553 328.488 437.789 330.207 437.789 333.015Z" fill="#399542"/>
</g>
<g style="mix-blend-mode:multiply">
<path d="M452.569 335.582H443.326C443.463 339.112 444.859 340.35 446.987 340.384C447.421 340.436 447.861 340.401 448.282 340.281C448.702 340.161 449.095 339.957 449.436 339.683C449.777 339.409 450.059 339.069 450.268 338.683C450.476 338.298 450.605 337.875 450.647 337.439L452.512 337.794C452.192 340.384 450.167 342 446.792 342C442.811 342 441.003 339.387 441.003 335.124C441.003 330.86 443.211 328.522 447.147 328.522C450.67 328.522 452.592 330.436 452.592 334.94L452.569 335.582ZM443.417 334.012H450.476C450.338 331.021 448.966 330.104 447.181 330.104C445.396 330.104 443.703 330.941 443.383 334.012H443.417Z" fill="#399542"/>
</g>
<g style="mix-blend-mode:multiply">
<path d="M463.792 324.786V330.883H472.601V332.854H463.792V339.49H474.271V341.598H461.344V322.654H474.271V324.786H463.792Z" fill="#399542"/>
</g>
<g style="mix-blend-mode:multiply">
<path d="M488.354 333.015V341.599H486.066V333.473C486.066 330.86 484.693 330.299 483.286 330.299C481.295 330.299 479.568 331.857 479.568 334.826V341.599H477.28V328.866H479.145L479.442 331.582C479.825 330.641 480.486 329.84 481.337 329.287C482.188 328.734 483.187 328.455 484.201 328.488C487.118 328.488 488.354 330.207 488.354 333.015Z" fill="#399542"/>
</g>
<g style="mix-blend-mode:multiply">
<path d="M503.386 328.867L497.94 341.599H495.332L490.504 328.844H493.044L496.728 339.846L500.846 328.844L503.386 328.867Z" fill="#399542"/>
</g>
<g style="mix-blend-mode:multiply">
<path d="M505.754 324.89C505.754 324.694 505.792 324.501 505.867 324.321C505.942 324.141 506.052 323.978 506.19 323.84C506.328 323.703 506.492 323.594 506.673 323.52C506.853 323.447 507.046 323.41 507.241 323.411C507.624 323.42 507.989 323.581 508.254 323.858C508.52 324.135 508.666 324.505 508.66 324.89C508.663 325.274 508.517 325.644 508.252 325.923C507.987 326.201 507.625 326.365 507.241 326.379C506.848 326.376 506.471 326.218 506.193 325.94C505.915 325.661 505.757 325.284 505.754 324.89V324.89ZM508.374 328.866V341.599H506.086V328.866H508.374Z" fill="#399542"/>
</g>
<g style="mix-blend-mode:multiply">
<path d="M521.85 332.878L520.02 333.256C520.02 330.746 518.933 330.265 517.938 330.265C516.222 330.265 514.849 331.743 514.849 335.147V341.599H512.561V328.867H514.311L514.597 331.365C514.861 330.518 515.394 329.781 516.115 329.266C516.836 328.751 517.705 328.486 518.59 328.511C520.901 328.511 521.85 330.139 521.85 332.878Z" fill="#399542"/>
</g>
<g style="mix-blend-mode:multiply">
<path d="M530.041 342C525.866 342 523.795 339.353 523.795 335.067C523.795 330.78 526.083 328.488 530.041 328.488C533.999 328.488 536.287 330.78 536.287 335.067C536.287 339.353 534.217 342 530.041 342ZM530.041 330.104C528.039 330.104 526.163 331.25 526.163 335.067C526.163 338.883 527.913 340.384 530.041 340.35C532.169 340.315 533.919 338.848 533.919 335.067C533.919 331.285 532.032 330.139 530.041 330.139V330.104Z" fill="#399542"/>
</g>
<g style="mix-blend-mode:multiply">
<path d="M550.736 333.015V341.599H548.448V333.473C548.448 330.86 547.075 330.299 545.68 330.299C543.689 330.299 541.962 331.857 541.962 334.826V341.599H539.674V328.866H541.527L541.824 331.582C542.209 330.64 542.872 329.839 543.725 329.286C544.578 328.733 545.579 328.454 546.595 328.488C549.478 328.488 550.736 330.207 550.736 333.015Z" fill="#399542"/>
</g>
<g style="mix-blend-mode:multiply">
<path d="M573.765 333.095V341.599H571.477V333.451C571.477 330.78 570.333 330.219 568.994 330.219C567.107 330.219 565.471 331.72 565.471 334.666V341.542H563.183V333.313C563.183 330.723 562.039 330.162 560.735 330.162C558.767 330.162 557.131 331.697 557.131 334.746V341.622H554.843V328.867H556.708L557.005 331.48C557.366 330.57 558 329.795 558.82 329.263C559.64 328.731 560.605 328.468 561.581 328.511C562.477 328.4 563.38 328.647 564.095 329.199C564.81 329.75 565.28 330.561 565.402 331.457C565.746 330.554 566.366 329.782 567.173 329.254C567.981 328.725 568.934 328.465 569.898 328.511C572.712 328.511 573.765 330.242 573.765 333.095Z" fill="#399542"/>
</g>
<g style="mix-blend-mode:multiply">
<path d="M588.557 335.582H579.336C579.462 339.112 580.869 340.35 582.997 340.384C583.431 340.433 583.87 340.396 584.289 340.274C584.708 340.153 585.099 339.949 585.44 339.675C585.78 339.402 586.063 339.063 586.272 338.679C586.481 338.295 586.612 337.874 586.658 337.439L588.522 337.794C588.191 340.384 586.234 342 582.802 342C578.821 342 577.014 339.387 577.014 335.124C577.014 330.86 579.222 328.522 583.157 328.522C586.681 328.522 588.591 330.436 588.591 334.94L588.557 335.582ZM579.405 334.012H586.463C586.326 331.021 584.953 330.104 583.18 330.104C581.407 330.104 579.702 330.941 579.336 334.012H579.405Z" fill="#399542"/>
</g>
<g style="mix-blend-mode:multiply">
<path d="M602.914 333.015V341.599H600.626V333.473C600.626 330.86 599.253 330.299 597.857 330.299C595.867 330.299 594.139 331.857 594.139 334.825V341.599H591.851V328.866H593.705L594.002 331.582C594.388 330.641 595.052 329.841 595.904 329.288C596.757 328.735 597.757 328.456 598.772 328.488C601.678 328.488 602.914 330.207 602.914 333.015Z" fill="#399542"/>
</g>
<g style="mix-blend-mode:multiply">
<path d="M615.258 340.189C614.764 340.797 614.133 341.278 613.417 341.593C612.701 341.908 611.92 342.048 611.139 342C608.577 342 607.261 340.544 607.261 337.255V330.619H605.454V328.866H607.261C607.879 328.866 608.176 327.571 608.119 325.52H609.572V328.866H614.148V330.619H609.572V336.957C609.572 339.089 610.293 340.109 611.78 340.109C612.318 340.131 612.851 340.001 613.319 339.734C613.786 339.466 614.169 339.072 614.423 338.596L615.258 340.189Z" fill="#399542"/>
</g>
</g>
</g>
<path d="M408.617 176.569C408.617 176.569 398.881 177.108 392.246 180.924C392.85 182.499 393.175 184.166 393.207 185.852C393.208 187.92 392.613 189.943 391.492 191.68C390.372 193.416 388.774 194.791 386.892 195.639C387.555 197.009 388.499 198.223 389.661 199.204C390.824 200.181 392.181 200.9 393.642 201.312C394.15 199.309 395.224 197.495 396.736 196.088C398.248 194.681 400.133 193.742 402.165 193.382C402.856 193.257 403.556 193.196 404.258 193.198C405.237 193.206 406.213 193.298 407.175 193.473C409.784 186.265 408.617 176.569 408.617 176.569" fill="#99CA3C"/>
<path d="M389.97 217.552C388.721 217.557 387.482 217.778 386.309 218.205C384.883 218.722 383.584 219.539 382.499 220.6C383.976 222.045 385.006 223.886 385.464 225.903C385.923 227.919 385.791 230.026 385.085 231.969C384.48 233.542 383.605 234.996 382.499 236.267C387.43 242.123 396.387 245.962 396.387 245.962C396.387 245.962 400.792 237.252 400.815 229.585C399.149 229.325 397.542 228.774 396.067 227.958C394.29 226.928 392.846 225.408 391.907 223.58C390.968 221.751 390.573 219.69 390.77 217.643C390.507 217.643 390.233 217.643 389.97 217.643" fill="#99CA3C"/>
<path d="M395.152 209.953C393.922 210.84 392.896 211.981 392.143 213.3C391.375 214.61 390.903 216.073 390.759 217.586C392.817 217.741 394.787 218.487 396.433 219.735C398.078 220.983 399.33 222.68 400.037 224.622C400.576 226.22 400.835 227.899 400.803 229.585C402.252 229.821 403.717 229.936 405.185 229.929C409.412 229.848 413.611 229.22 417.677 228.061C417.677 228.061 415.458 218.56 410.55 212.669C409.109 213.536 407.531 214.149 405.883 214.48C405.263 214.59 404.635 214.643 404.007 214.64C402.262 214.637 400.544 214.209 399.001 213.392C397.459 212.576 396.138 211.395 395.152 209.953" fill="#39B54A"/>
<path d="M390.77 217.586C390.573 219.633 390.968 221.693 391.907 223.522C392.846 225.35 394.29 226.87 396.067 227.9C397.542 228.717 399.149 229.267 400.815 229.527C400.847 227.841 400.587 226.162 400.048 224.565C399.341 222.622 398.09 220.925 396.444 219.677C394.799 218.429 392.829 217.683 390.77 217.528" fill="#00AD4D"/>
<path d="M363.543 207.925C361.666 207.921 359.821 208.419 358.201 209.369C350.639 213.735 347.298 228.061 347.298 228.061C351.369 229.22 355.571 229.847 359.802 229.929C361.266 229.936 362.728 229.821 364.172 229.585C364.138 227.898 364.402 226.218 364.95 224.623C365.656 222.679 366.907 220.982 368.553 219.733C370.199 218.485 372.169 217.739 374.228 217.586C373.959 214.935 372.717 212.48 370.742 210.695C368.768 208.91 366.203 207.922 363.543 207.925" fill="#39B54A"/>
<path d="M382.499 167C382.499 167 375.384 173.681 372.741 180.879C374.219 181.692 375.543 182.759 376.653 184.03C377.979 185.614 378.82 187.548 379.076 189.599C379.332 191.65 378.991 193.732 378.095 195.594C379.477 196.221 380.976 196.545 382.494 196.545C384.011 196.545 385.51 196.221 386.892 195.594C385.995 193.731 385.654 191.649 385.912 189.597C386.17 187.545 387.015 185.612 388.345 184.03C389.448 182.756 390.769 181.688 392.246 180.879C389.604 173.681 382.499 167 382.499 167" fill="#39B54A"/>
<path d="M392.246 180.879C390.769 181.689 389.448 182.756 388.345 184.031C387.015 185.612 386.17 187.545 385.912 189.597C385.654 191.649 385.995 193.732 386.892 195.594C388.774 194.746 390.372 193.371 391.492 191.634C392.612 189.898 393.208 187.874 393.207 185.807C393.175 184.121 392.849 182.453 392.246 180.879" fill="#00AD4D"/>
<path d="M407.175 193.428C406.636 195.025 405.818 196.515 404.762 197.829C403.757 199.032 402.501 200 401.081 200.664C399.662 201.327 398.114 201.67 396.548 201.668C395.565 201.666 394.588 201.531 393.642 201.267C393.267 202.74 393.209 204.276 393.471 205.774C393.734 207.271 394.31 208.696 395.163 209.954C396.992 208.632 399.19 207.922 401.444 207.925C403.321 207.921 405.166 208.42 406.787 209.369C408.232 210.234 409.511 211.352 410.562 212.67C417.185 208.819 422.517 200.636 422.517 200.636C422.517 200.636 414.714 194.78 407.175 193.428" fill="#3A9441"/>
<path d="M404.304 193.152C403.602 193.15 402.901 193.211 402.211 193.336C400.179 193.696 398.294 194.635 396.782 196.042C395.27 197.449 394.196 199.263 393.688 201.266C394.634 201.531 395.611 201.666 396.594 201.667C398.16 201.67 399.707 201.327 401.127 200.664C402.546 200 403.803 199.032 404.807 197.828C405.864 196.515 406.681 195.025 407.221 193.427C406.259 193.252 405.283 193.16 404.304 193.152Z" fill="#008F44"/>
<path d="M401.444 207.925C399.189 207.922 396.991 208.632 395.163 209.953C396.149 211.396 397.47 212.576 399.013 213.393C400.555 214.209 402.273 214.638 404.018 214.641C404.647 214.644 405.275 214.59 405.894 214.48C407.542 214.149 409.121 213.536 410.562 212.669C409.511 211.351 408.232 210.233 406.786 209.369C405.166 208.419 403.321 207.921 401.444 207.925" fill="#008D46"/>
<path d="M375.017 217.552H374.228C374.421 219.599 374.024 221.66 373.083 223.488C372.142 225.316 370.697 226.836 368.92 227.866C367.445 228.683 365.838 229.233 364.172 229.493C364.172 237.16 368.6 245.87 368.6 245.87C368.6 245.87 377.557 242.031 382.499 236.175C381.386 234.908 380.507 233.452 379.902 231.877C379.196 229.933 379.065 227.826 379.526 225.809C379.987 223.792 381.019 221.951 382.499 220.508C380.492 218.562 377.811 217.47 375.017 217.46" fill="#3A9441"/>
<path d="M382.499 220.601C381.019 222.044 379.987 223.884 379.526 225.901C379.065 227.918 379.196 230.025 379.902 231.969C380.507 233.545 381.386 235 382.499 236.267C383.605 234.996 384.48 233.542 385.085 231.969C385.791 230.026 385.923 227.92 385.464 225.903C385.006 223.887 383.976 222.046 382.499 220.601Z" fill="#008F44"/>
<path d="M374.228 217.586C372.169 217.739 370.199 218.485 368.553 219.733C366.907 220.982 365.656 222.679 364.95 224.623C364.402 226.218 364.138 227.898 364.172 229.585C365.838 229.325 367.445 228.774 368.92 227.958C370.697 226.927 372.142 225.408 373.083 223.58C374.024 221.751 374.421 219.691 374.228 217.643" fill="#008D46"/>
<path d="M331.317 189.175C323.034 189.175 313.07 196.659 313.07 196.659C313.07 196.659 321.078 208.979 329.692 210.503C330.312 210.613 330.94 210.667 331.569 210.664C334.259 210.671 336.854 209.664 338.838 207.843C340.822 206.022 342.05 203.52 342.278 200.834C342.505 198.148 341.716 195.474 340.067 193.344C338.418 191.214 336.03 189.783 333.376 189.336C332.685 189.211 331.985 189.149 331.283 189.152" fill="#99CA3C"/>
<path d="M356.37 176.569C356.37 176.569 354.62 191.181 360.226 197.874C362.052 200.056 364.669 201.423 367.501 201.672C370.333 201.921 373.148 201.033 375.327 199.204C376.489 198.223 377.432 197.009 378.095 195.639C376.213 194.791 374.616 193.416 373.495 191.68C372.375 189.943 371.779 187.92 371.78 185.852C371.813 184.166 372.138 182.499 372.741 180.924C366.106 177.108 356.37 176.569 356.37 176.569" fill="#3A9441"/>
<path d="M372.741 180.879C372.138 182.453 371.812 184.121 371.78 185.807C371.779 187.874 372.375 189.898 373.495 191.634C374.615 193.371 376.213 194.746 378.095 195.594C378.991 193.732 379.332 191.651 379.076 189.599C378.82 187.548 377.979 185.615 376.653 184.031C375.543 182.759 374.219 181.692 372.741 180.879Z" fill="#008D46"/>
</g>
<defs>
<clipPath id="clip0_103_97">
<rect width="572" height="175" fill="white" transform="translate(100 167)"/>
</clipPath>
</defs>
</svg>
