<svg id="Layer_1" data-name="Layer 1" xmlns="http://www.w3.org/2000/svg" viewBox="0 0 1000 1000"><path d="M276.55,564.45a76.48,76.48,0,0,1,60.24-138.54l9.91-22.76c-48.33-14.47-101.11,9.11-121.7,56.5a101.24,101.24,0,0,0,41.64,127.54Z"/><path d="M369.18,413l-9.91,22.73a76.5,76.5,0,0,1-60.19,138.47L289.19,597C337.43,611.2,390,587.6,410.52,540.35A101.22,101.22,0,0,0,369.18,413"/><path d="M604.44,487c-11.62-2.12-16.21-4.74-16.21-13.44,0-8.42,7.58-14.54,20-14.54,12.08,0,20.94,4,32,12.39l8.52-19.56c-12.56-9.66-24.43-14.38-42.42-14.38-27.34,0-45.58,15.22-45.58,37.09,0,21.42,12.21,31.46,34.06,35.66l19.31,3.61c11.66,2.1,14.36,7.89,14.17,12.8-.23,7.08-5.57,12.85-18.83,12.85-13.83-.29-28.56-6.62-39.4-15.54l-8.74,20.11c10.54,10.55,34.15,17.71,46.75,17.71,28.58,0,47.34-15.06,47.34-37.87,0-20-13.19-29-36-33.87Z"/><rect x="469.92" y="440.11" width="25.43" height="119.2"/><rect x="516.21" y="440.11" width="25.43" height="119.2"/><path d="M719.58,440.11c36.64,0,63.8,25.07,63.8,59.08,0,34.72-27.16,60.13-63.8,60.13H673.13V440.11Zm0,95.9c21.21,0,38-16.12,38-36.82,0-20-16.82-35.93-38-35.93H698.53V536Z"/></svg>