<svg width="1246" height="700" viewBox="0 0 1246 700" fill="none" xmlns="http://www.w3.org/2000/svg">
<rect width="1246" height="700" fill="white"/>
<path d="M382.851 295.093H396.518V381.435H382.851V295.093Z" fill="black"/>
<path d="M405.873 318.524H418.727V329.357C422.632 321.814 430.116 317.4 440.448 317.4C454.928 317.4 462.25 325.826 462.25 339.869V381.435H448.908V341.955C448.908 333.289 443.62 329.036 436.136 329.036C426.618 329.036 419.215 335.856 419.215 347.652V381.435H405.792V318.524H405.873Z" fill="black"/>
<path d="M468.27 361.936H481.774C483.157 369.318 489.747 372.287 498.126 372.287C505.773 372.287 510.41 369.96 510.41 364.664C510.41 359.368 505.529 357.602 498.777 356.399L490.153 354.954C480.066 353.109 469.734 349.418 469.734 336.418C469.734 323.82 479.74 317.4 494.953 317.4C510.735 317.4 520.823 324.221 522.124 337.381H508.783C508.051 330.56 502.519 327.672 494.546 327.672C486.818 327.672 482.669 330.48 482.669 335.455C482.669 340.992 487.469 342.757 494.058 343.961L502.925 345.566C513.176 347.412 523.426 350.621 523.426 363.219C523.426 376.54 511.955 382.799 497.638 382.799C483.32 382.799 469.734 376.62 468.27 361.936Z" fill="black"/>
<path d="M530.585 318.524H543.438V330.48C546.53 322.696 554.096 317.4 564.915 317.4C580.453 317.4 593.307 327.672 593.307 349.337C593.307 371.404 580.209 381.435 564.427 381.435C553.526 381.435 547.262 376.62 543.927 371.083V405.107H530.585V318.524ZM561.905 369.318C571.911 369.318 579.64 363.3 579.64 349.337C579.64 335.616 571.993 329.758 561.905 329.758C551.818 329.758 543.764 335.535 543.764 349.337C543.764 363.3 552.062 369.318 561.905 369.318Z" fill="black"/>
<path d="M599.978 293.567H614.214V308.011H599.978V293.567ZM600.466 318.523H613.889V381.434H600.466V318.523Z" fill="black"/>
<path d="M625.359 318.524H638.213V330.159C640.735 322.616 646.429 317.802 655.459 317.802H660.747V330.641H655.785C643.175 330.641 638.782 338.505 638.782 350.702V381.435H625.359V318.524Z" fill="black"/>
<path d="M664.001 364.262C664.001 350.942 674.495 346.769 684.42 345.405L698.575 343.56C703.212 342.918 707.117 341.794 707.117 336.659C707.117 330.961 702.968 327.912 694.508 327.912C684.908 327.912 680.027 331.603 678.726 337.943H665.465C667.499 323.98 678.319 317.48 694.996 317.48C712.161 317.48 720.54 324.141 720.54 338.344V381.515H708.012V370.12C703.863 377.904 696.216 382.799 685.234 382.799C673.031 382.799 664.001 376.379 664.001 364.262ZM688.406 371.725C698.901 371.725 707.036 365.065 707.036 354.794V350.862C704.677 351.825 701.911 352.467 697.192 353.189L688.813 354.312C683.932 354.954 677.587 356.399 677.587 363.3C677.505 368.997 681.898 371.725 688.406 371.725Z" fill="black"/>
<path d="M736.485 364.262V330.078H724.608V318.523H736.485V302.876L749.908 299.185V318.523H763.738V330.159H749.908V362.336C749.908 367.552 751.698 369.879 757.067 369.879H765.202V381.434H753.894C742.424 381.434 736.485 375.737 736.485 364.262Z" fill="black"/>
<path d="M772.443 293.567H786.679V308.011H772.443V293.567ZM772.931 318.523H786.272V381.434H772.931V318.523Z" fill="black"/>
<path d="M793.431 350.14C793.431 329.758 806.041 317.48 824.833 317.48C843.625 317.48 856.234 329.838 856.234 350.14C856.234 370.441 843.625 382.799 824.833 382.799C806.041 382.799 793.431 370.441 793.431 350.14ZM824.833 370.441C835.327 370.441 842.567 363.54 842.567 350.059C842.567 336.498 835.327 329.677 824.833 329.677C814.338 329.677 807.098 336.498 807.098 350.059C807.017 363.54 814.338 370.441 824.833 370.441Z" fill="black"/>
<path d="M863.8 318.524H876.653V329.357C880.558 321.814 888.042 317.4 898.455 317.4C912.936 317.4 920.258 325.826 920.258 339.869V381.435H906.916V341.955C906.916 333.289 901.628 329.036 894.144 329.036C884.626 329.036 877.223 335.856 877.223 347.652V381.435H863.8V318.524Z" fill="black"/>
<path d="M359.666 357.522L327.288 361.454C326.393 361.534 325.661 360.973 325.58 360.09C325.58 360.01 325.58 359.929 325.58 359.929V345.485C325.498 344.763 326.068 344.041 326.881 343.961L359.259 340.109C360.154 340.029 360.886 340.591 360.967 341.473C360.967 341.554 360.967 341.634 360.967 341.634V355.997C360.967 356.8 360.398 357.442 359.666 357.522Z" fill="#057ADC"/>
<path d="M360.967 319.005V333.368C360.967 334.171 360.398 334.813 359.584 334.893L327.288 338.825C326.393 338.905 325.661 338.344 325.579 337.461C325.579 337.381 325.579 337.381 325.579 337.3V322.937C325.579 322.134 326.149 321.492 326.962 321.412L359.259 317.48C360.154 317.4 360.886 317.962 360.967 318.844C360.967 318.925 360.967 319.005 360.967 319.005Z" fill="#057ADC"/>
<path d="M326.881 298.784L359.259 294.932C360.154 294.852 360.886 295.414 360.967 296.297C360.967 296.377 360.967 296.457 360.967 296.457V310.821C360.967 311.623 360.398 312.265 359.584 312.345L327.288 316.277C326.393 316.357 325.661 315.796 325.58 314.913C325.58 314.833 325.58 314.753 325.58 314.753V300.309C325.498 299.587 326.068 298.864 326.881 298.784Z" fill="#057ADC"/>
</svg>
