<svg width="772" height="528" viewBox="0 0 772 528" fill="none" xmlns="http://www.w3.org/2000/svg">
<rect width="772" height="528" fill="white"/>
<g clip-path="url(#clip0_103_94)">
<path d="M171 286.471C179.623 285.124 182.076 281.367 182.076 272.385V235.188C182.076 229.595 178.888 225.103 171 224.94V223.838H194.009L213.995 273.201H214.362L233.244 223.838H254.333V224.94C246.445 225.226 244.32 227.308 244.32 230.983V280.428C244.32 284.185 246.445 286.185 254.333 286.471V287.573H224.457V286.389C232.222 286.104 233.694 284.307 233.694 280.346V229.962H233.244L211.052 287.778H208.968L184.855 229.799H184.364V272.385C184.364 281.367 186.653 285.205 195.93 286.471V287.573H171V286.471Z" fill="#414242"/>
<path d="M258.338 278.059C258.314 276.157 258.817 274.284 259.79 272.649C260.764 271.013 262.171 269.679 263.856 268.791C270.64 265.035 281.348 264.708 283.473 263.483V256.91C283.473 250.05 281.47 246.743 276.035 246.743C273.253 246.614 270.529 247.565 268.433 249.397C269.169 250.002 269.771 250.754 270.2 251.605C270.629 252.456 270.877 253.386 270.926 254.337C270.976 255.069 270.867 255.802 270.606 256.487C270.345 257.172 269.938 257.793 269.413 258.305C268.889 258.818 268.259 259.21 267.567 259.455C266.876 259.701 266.139 259.794 265.409 259.727C264.699 259.744 263.994 259.616 263.336 259.35C262.678 259.085 262.082 258.687 261.584 258.182C261.086 257.676 260.697 257.075 260.441 256.413C260.185 255.752 260.067 255.046 260.096 254.337C260.096 248.948 266.798 244.987 277.138 244.987C287.478 244.987 292.996 249.07 292.996 258.461V279.815C292.996 284.266 294.671 286.185 299.984 283.898L300.352 284.797C297.791 286.699 294.713 287.781 291.524 287.9C286.415 287.9 284.495 285.817 283.923 280.877H283.555C281.979 283 279.953 284.75 277.621 285.999C275.29 287.248 272.71 287.967 270.068 288.104C261.935 288.226 258.338 283.204 258.338 278.059ZM283.473 278.876V265.239C271.212 267.607 268.596 270.261 268.596 276.508C268.596 280.877 270.722 284.021 275.381 284.021C277.033 283.836 278.62 283.276 280.023 282.384C281.425 281.493 282.605 280.293 283.473 278.876V278.876Z" fill="#414242"/>
<path d="M304.071 267.158C303.928 264.322 304.354 261.486 305.324 258.817C306.294 256.147 307.788 253.699 309.718 251.614C311.648 249.53 313.976 247.852 316.565 246.679C319.153 245.506 321.95 244.861 324.792 244.783C337.052 244.783 343.428 253.398 342.692 264.3H314.533V266.586C314.533 277.202 319.315 284.837 328.919 284.837C334.723 284.837 338.115 281.898 341.875 277.039L342.856 277.774C340.616 281.838 337.072 285.031 332.794 286.838C328.517 288.644 323.755 288.96 319.276 287.734C314.797 286.508 310.861 283.812 308.103 280.08C305.345 276.347 303.925 271.795 304.071 267.158V267.158ZM314.615 262.667H332.434C333.333 252.582 331.045 246.335 324.26 246.335C318.866 246.457 315.269 252.051 314.779 262.585L314.615 262.667Z" fill="#414242"/>
<path d="M349.926 273.2H351.193C357.078 283.367 360.552 286.674 367.173 286.674C368.161 286.764 369.157 286.649 370.098 286.336C371.039 286.023 371.906 285.52 372.643 284.856C373.38 284.193 373.971 283.384 374.38 282.482C374.789 281.579 375.007 280.601 375.02 279.61C375.02 275.527 372.486 273.118 363.413 270.546C354.34 267.974 350.09 264.952 350.09 258.297C350.09 250.417 356.138 244.823 365.579 244.823C369.227 244.874 372.801 245.857 375.96 247.681L378.249 244.823H379.271V258.501H377.963C372.65 249.886 369.789 246.579 364.394 246.579C363.434 246.523 362.472 246.664 361.569 246.995C360.665 247.325 359.839 247.837 359.142 248.5C358.445 249.162 357.891 249.96 357.515 250.844C357.139 251.729 356.949 252.681 356.956 253.642C356.956 257.725 360.634 259.604 367.705 261.4C377.064 263.972 381.559 267.28 381.559 274.425C381.575 276.4 381.174 278.355 380.383 280.164C379.591 281.974 378.426 283.596 376.965 284.925C375.503 286.255 373.777 287.261 371.9 287.879C370.023 288.497 368.036 288.712 366.07 288.511C361.787 288.368 357.594 287.251 353.809 285.245L350.785 288.511H349.804L349.926 273.2Z" fill="#414242"/>
<path d="M393.289 276.428V248.745H384.747V247.561L393.289 245.56V233.924L402.893 230.453V245.805H415.93V248.663H402.893V277.244C402.893 282.715 404.446 284.839 408.206 284.839C410.863 284.839 413.519 283.001 415.93 278.714L417.034 279.449C416.079 282.08 414.35 284.361 412.075 285.993C409.799 287.625 407.083 288.532 404.283 288.595C397.131 288.595 393.289 284.839 393.289 276.428Z" fill="#414242"/>
<path d="M419.486 286.552C424.717 286.552 425.984 285.858 425.984 283.082V251.602C425.984 248.825 424.717 247.11 419.486 246.988V245.926L435.425 245.273V254.501C438.654 248.58 443.149 244.906 447.686 244.906C448.623 244.794 449.574 244.885 450.473 245.173C451.372 245.461 452.198 245.939 452.896 246.574C453.594 247.209 454.147 247.987 454.517 248.854C454.887 249.722 455.067 250.659 455.042 251.602C455.124 252.388 455.042 253.182 454.8 253.934C454.559 254.686 454.164 255.381 453.641 255.973C453.118 256.565 452.478 257.043 451.76 257.376C451.043 257.708 450.265 257.889 449.474 257.906C448.684 257.923 447.898 257.776 447.167 257.474C446.436 257.173 445.776 256.723 445.228 256.154C444.679 255.584 444.255 254.908 443.982 254.167C443.709 253.425 443.592 252.635 443.64 251.847C443.676 250.883 443.869 249.931 444.212 249.029C440.615 249.479 438.163 252.132 435.507 256.624V283.082C435.507 285.858 437.223 286.389 443.476 286.552V287.573H419.364L419.486 286.552Z" fill="#414242"/>
<path d="M459.62 278.059C459.596 276.157 460.098 274.284 461.072 272.649C462.046 271.013 463.452 269.679 465.137 268.791C471.922 265.035 482.63 264.708 484.755 263.483V256.91C484.755 250.05 482.752 246.743 477.316 246.743C474.535 246.614 471.811 247.565 469.715 249.397C470.451 250.002 471.053 250.754 471.482 251.605C471.911 252.456 472.158 253.386 472.208 254.337C472.265 255.07 472.161 255.807 471.902 256.495C471.644 257.184 471.237 257.807 470.711 258.321C470.184 258.835 469.552 259.228 468.857 259.47C468.162 259.713 467.423 259.801 466.69 259.727C465.981 259.744 465.275 259.616 464.618 259.35C463.96 259.085 463.363 258.687 462.866 258.182C462.368 257.676 461.979 257.075 461.723 256.413C461.467 255.752 461.349 255.046 461.377 254.337C461.377 248.948 468.08 244.987 478.42 244.987C488.76 244.987 494.277 249.07 494.277 258.461V279.815C494.277 284.266 495.953 286.185 501.266 283.898L501.634 284.797C499.073 286.699 495.995 287.781 492.806 287.9C487.697 287.9 485.776 285.817 485.204 280.877H484.836C483.265 283.005 481.239 284.757 478.907 286.007C476.574 287.257 473.993 287.973 471.349 288.104C463.216 288.226 459.62 283.204 459.62 278.059ZM484.755 278.876V265.239C472.494 267.607 469.919 270.261 469.919 276.508C469.919 280.877 472.003 284.021 476.703 284.021C478.348 283.83 479.928 283.267 481.323 282.376C482.718 281.485 483.891 280.288 484.755 278.876V278.876Z" fill="#414242"/>
<path d="M504.004 286.552C509.317 286.552 510.584 285.858 510.584 283.082V228.329C510.584 225.226 509.685 223.837 503.268 223.674V222.572L520.229 222V283.245C520.229 286.021 521.414 286.634 526.727 286.715V287.573H504.004V286.552Z" fill="#414242"/>
<path d="M549.042 289.451C553.15 289.451 556.48 286.124 556.48 282.02C556.48 277.916 553.15 274.589 549.042 274.589C544.934 274.589 541.604 277.916 541.604 282.02C541.604 286.124 544.934 289.451 549.042 289.451Z" fill="#414242"/>
<path d="M581.656 314.523H611L568.496 292.924C567.302 292.319 565.947 292.108 564.625 292.321C563.303 292.534 562.083 293.159 561.139 294.108V294.108C560.197 295.055 559.578 296.277 559.372 297.597C559.167 298.917 559.385 300.268 559.995 301.457L581.656 344.002V314.523Z" fill="#AECC36"/>
</g>
<defs>
<clipPath id="clip0_103_94">
<rect width="440" height="122" fill="white" transform="translate(171 222)"/>
</clipPath>
</defs>
</svg>
