<svg width="772" height="528" viewBox="0 0 772 528" fill="none" xmlns="http://www.w3.org/2000/svg">
<rect width="772" height="528" fill="white"/>
<g clip-path="url(#clip0_103_121)">
<path d="M270.062 250.468V256.604H270.4C272.672 251.143 278.475 249.946 283.848 249.946C289.221 249.946 295.423 251.296 296.559 257.493H296.897C298.862 251.572 304.726 249.946 310.437 249.946C321.521 249.946 325.206 253.751 325.206 264.273V293.204H314.92V265.255C314.674 259.886 313.385 257.739 307.735 257.739C299.445 257.739 297.787 261.512 297.787 269.09V293.204H287.532V265.255C287.287 259.886 285.967 257.739 280.348 257.739C272.027 257.739 270.4 261.512 270.4 269.09V293.204H260.114V250.468H270.062Z" fill="#717073"/>
<path d="M357.966 287.865H357.721C355.694 293.572 349.431 293.725 344.426 293.725C334.724 293.725 328.46 291.7 328.46 280.103C328.46 269.857 333.833 266.973 344.426 266.973C349.646 266.973 354.804 266.973 357.229 271.881H357.567V266.328C357.567 259.426 356.984 256.971 348.356 256.971C343.843 256.971 340.25 257.401 340.25 262.923H329.965C329.965 250.467 338.562 249.977 348.387 249.977C362.08 249.977 367.791 252.063 367.791 266.421V293.234H357.506L357.966 287.865ZM338.623 280.103C338.623 286.239 341.079 286.73 348.018 286.73C353.483 286.73 357.475 286.239 357.475 280.103C357.475 273.968 353.084 273.968 348.018 273.968C342.952 273.968 338.623 273.998 338.623 280.103Z" fill="#717073"/>
<path d="M410.745 279.643C410.745 293.081 402.977 293.725 390.757 293.725C374.361 293.725 371.015 288.509 371.015 271.973C371.015 256.634 373.44 249.977 390.757 249.977C408.074 249.977 410.745 255.1 410.745 273.753H381.27C381.27 282.957 381.515 286.025 390.757 286.025C396.468 286.025 400.459 286.025 400.459 279.889L410.745 279.643ZM400.459 267.372C400.459 258.567 399.139 257.892 390.757 257.892C381.853 257.892 381.27 259.794 381.27 267.372H400.459Z" fill="#717073"/>
<path d="M441.909 262.095C441.909 256.971 439.207 256.971 433.742 256.971C428.277 256.971 424.531 256.971 424.531 262.586C424.531 266.819 425.667 266.973 434.632 267.402C444.765 267.893 453.73 267.157 453.73 280.993C453.73 292.59 444.519 293.725 433.742 293.725C422.075 293.725 414.245 293.725 414.245 279.797H424.592C424.592 285.932 426.22 286.73 433.803 286.73C439.944 286.73 443.506 286.884 443.506 280.993C443.506 277.25 443.26 275.379 432.913 275.225C417.162 274.98 414.307 272.863 414.307 261.941C414.307 250.191 422.781 249.977 433.803 249.977C442.216 249.977 452.226 249.977 452.226 262.095H441.909Z" fill="#717073"/>
<path d="M454.467 250.468H459.84V240.742H470.126V250.468H486.521V258.26H470.126V280.196C470.126 284.123 470.126 285.902 474.547 285.902C480.319 285.902 479.675 281.331 479.675 276.851H488.732C488.886 289.829 485.662 293.725 474.547 293.725C463.432 293.725 459.84 291.117 459.84 280.288V258.26H454.467V250.468Z" fill="#717073"/>
<path d="M501.504 250.468L501.259 256.082H501.658C503.715 251.327 508.136 249.946 513.08 249.946C522.137 249.946 524.348 255.315 524.348 263.384V266.728H514.738V264.55C514.738 260.224 514.308 257.677 509.518 257.677C503.377 257.677 501.597 261.206 501.75 266.728V293.142H491.495V250.468H501.504Z" fill="#717073"/>
<path d="M555.85 287.865H555.635C553.578 293.572 547.314 293.725 542.309 293.725C532.607 293.725 526.344 291.7 526.344 280.103C526.344 269.857 531.717 266.973 542.309 266.973C547.529 266.973 552.687 266.973 555.113 271.881H555.451V266.328C555.451 259.426 554.898 256.971 546.24 256.971C541.726 256.971 538.164 257.401 538.164 262.923H527.879C527.879 250.467 536.445 249.977 546.301 249.977C559.995 249.977 565.705 252.063 565.705 266.421V293.234H555.42L555.85 287.865ZM536.629 280.103C536.629 286.239 539.055 286.73 545.994 286.73C551.459 286.73 555.451 286.239 555.451 280.103C555.451 273.968 551.06 273.968 545.994 273.968C540.928 273.968 536.629 273.998 536.629 280.103Z" fill="#717073"/>
<path d="M578.939 293.236H568.653V232.123H578.939V293.236Z" fill="#717073"/>
<path d="M196.374 115.756C196.374 121.156 193.303 125.512 189.711 125.512C186.119 125.512 183.048 121.156 183.048 115.756C183.048 110.357 186.119 106 189.711 106C193.303 106 196.374 110.264 196.374 115.756Z" fill="#717073"/>
<path d="M273.562 208.436C268.158 208.436 263.799 205.368 263.799 201.81C263.799 198.251 268.158 195.152 273.562 195.152C278.966 195.152 283.326 198.22 283.326 201.81C283.326 205.399 278.935 208.436 273.562 208.436Z" fill="#717073"/>
<path d="M204.08 164.506L189.711 153.308L175.311 164.506L185.443 134.195H193.948L204.08 164.506Z" fill="#C4960C"/>
<path d="M197.694 283.664C197.694 278.295 194.623 273.908 191.031 273.908C187.439 273.908 184.399 278.295 184.399 283.664C184.399 289.033 187.47 293.42 191.031 293.42C194.593 293.42 197.694 289.064 197.694 283.664Z" fill="#717073"/>
<path d="M205.432 236.326L191.431 247.524L176.632 236.326L186.764 266.668H195.299L205.432 236.326Z" fill="#C4960C"/>
<path d="M226.433 216.107L237.639 201.289L226.433 187.33L256.798 197.454V205.952L226.433 216.107Z" fill="#C4960C"/>
<path d="M107.764 208.436C113.167 208.436 117.527 205.368 117.527 201.81C117.527 198.251 113.167 195.152 107.764 195.152C102.36 195.152 98 198.22 98 201.81C98 205.399 102.391 208.436 107.764 208.436Z" fill="#717073"/>
<path d="M153.542 216.107L142.336 201.044L153.542 187.33L123.207 197.454V205.952L153.542 216.107Z" fill="#C4960C"/>
<path d="M257.136 201.719C257.201 200.683 257.535 199.683 258.106 198.816C258.677 197.95 259.464 197.248 260.391 196.779C259.671 179.385 252.541 162.871 240.373 150.412C228.204 137.953 211.855 130.428 194.47 129.285C193.98 130.126 193.288 130.832 192.458 131.341C191.628 131.849 190.684 132.144 189.711 132.2C188.744 132.124 187.808 131.821 186.981 131.314C186.154 130.807 185.459 130.112 184.952 129.285C167.618 130.422 151.311 137.903 139.149 150.298C126.988 162.693 119.826 179.132 119.032 196.472C120.104 196.902 121.032 197.626 121.711 198.559C122.39 199.492 122.792 200.598 122.87 201.749C122.789 202.843 122.416 203.896 121.789 204.797C121.163 205.698 120.306 206.415 119.308 206.873C121.008 223.715 128.697 239.389 140.979 251.048C153.261 262.707 169.321 269.577 186.242 270.409C186.664 269.514 187.328 268.755 188.159 268.218C188.989 267.68 189.954 267.385 190.944 267.366C191.933 267.347 192.909 267.604 193.76 268.109C194.611 268.615 195.304 269.347 195.76 270.225C212.268 268.829 227.764 261.69 239.546 250.051C251.328 238.413 258.65 223.013 260.237 206.535C259.351 206.065 258.601 205.375 258.058 204.531C257.515 203.688 257.197 202.719 257.136 201.719V201.719ZM234.231 244.117C223.956 254.365 210.443 260.737 195.994 262.146C181.545 263.556 167.054 259.917 154.989 251.848C142.924 243.78 134.032 231.781 129.827 217.897C125.623 204.012 126.366 189.101 131.93 175.702C137.494 162.303 147.535 151.247 160.342 144.415C173.149 137.584 187.93 135.401 202.168 138.238C216.405 141.074 229.218 148.755 238.424 159.973C247.629 171.19 252.658 185.249 252.653 199.755C252.657 207.997 251.032 216.159 247.871 223.772C244.709 231.385 240.074 238.299 234.231 244.117Z" fill="#C4960C"/>
<path d="M201.471 201.688C201.465 203.937 200.792 206.133 199.538 208C198.284 209.867 196.505 211.321 194.425 212.179C192.345 213.036 190.057 213.259 187.85 212.819C185.643 212.379 183.616 211.296 182.025 209.706C180.434 208.116 179.35 206.09 178.909 203.885C178.469 201.68 178.692 199.394 179.55 197.316C180.408 195.237 181.864 193.459 183.732 192.206C185.601 190.953 187.799 190.281 190.049 190.275C193.078 190.275 195.983 191.478 198.125 193.618C200.267 195.758 201.471 198.661 201.471 201.688V201.688Z" fill="#717073"/>
<path d="M189.711 163.646C182.254 163.646 174.964 165.856 168.764 169.996C162.563 174.135 157.731 180.019 154.877 186.903C152.023 193.787 151.277 201.362 152.731 208.67C154.186 215.978 157.777 222.691 163.05 227.96C168.323 233.229 175.041 236.817 182.355 238.27C189.669 239.724 197.25 238.978 204.139 236.127C211.029 233.275 216.917 228.446 221.06 222.251C225.203 216.056 227.415 208.772 227.415 201.32C227.415 191.329 223.442 181.746 216.371 174.681C209.301 167.616 199.71 163.646 189.711 163.646V163.646ZM189.711 225.68C184.882 225.68 180.161 224.248 176.147 221.567C172.132 218.886 169.003 215.075 167.157 210.616C165.31 206.158 164.828 201.252 165.773 196.52C166.717 191.788 169.045 187.442 172.462 184.033C175.879 180.623 180.231 178.302 184.968 177.365C189.705 176.427 194.613 176.915 199.073 178.765C203.533 180.616 207.343 183.747 210.021 187.762C212.7 191.777 214.126 196.495 214.12 201.32C214.112 207.784 211.537 213.98 206.96 218.547C202.383 223.114 196.179 225.68 189.711 225.68V225.68Z" fill="#717073"/>
<path d="M149.213 201.321C149.209 196.004 150.254 190.739 152.287 185.826C154.32 180.913 157.303 176.448 161.064 172.687C164.825 168.926 169.291 165.943 174.206 163.907C179.121 161.872 184.39 160.824 189.711 160.824V160.824V166.438C180.455 166.447 171.58 170.124 165.035 176.664C158.49 183.204 154.809 192.072 154.801 201.321C154.809 210.569 158.49 219.437 165.035 225.977C171.58 232.517 180.455 236.195 189.711 236.203V236.203C198.967 236.195 207.842 232.517 214.387 225.977C220.932 219.437 224.613 210.569 224.621 201.321V201.321C224.613 192.072 220.932 183.204 214.387 176.664C207.842 170.124 198.967 166.447 189.711 166.438V166.438V160.824C195.032 160.824 200.3 161.872 205.216 163.907C210.131 165.943 214.597 168.926 218.358 172.687C222.119 176.448 225.102 180.913 227.135 185.826C229.168 190.739 230.213 196.004 230.209 201.321C230.209 212.053 225.942 222.345 218.347 229.934C210.752 237.523 200.452 241.786 189.711 241.786C178.97 241.786 168.669 237.523 161.075 229.934C153.48 222.345 149.213 212.053 149.213 201.321ZM162.508 201.321C162.508 194.112 165.374 187.198 170.475 182.1C175.577 177.003 182.496 174.139 189.711 174.139V174.139C196.926 174.139 203.845 177.003 208.947 182.1C214.048 187.198 216.914 194.112 216.914 201.321V201.321C216.906 208.527 214.037 215.436 208.938 220.532C203.838 225.628 196.923 228.494 189.711 228.502V228.502V222.888C195.399 222.848 200.842 220.572 204.864 216.554C208.886 212.535 211.163 207.096 211.203 201.413V201.413C211.155 195.732 208.875 190.297 204.855 186.28C200.835 182.263 195.396 179.985 189.711 179.937V179.937C184.011 179.937 178.544 182.2 174.514 186.227C170.483 190.255 168.219 195.717 168.219 201.413V201.413C168.219 207.108 170.483 212.571 174.514 216.598C178.544 220.626 184.011 222.888 189.711 222.888V222.888V228.502C182.499 228.494 175.584 225.628 170.484 220.532C165.384 215.436 162.516 208.527 162.508 201.321V201.321Z" fill="#C4960C"/>
<path d="M141.814 200.953C141.814 188.17 146.896 175.911 155.942 166.872C164.987 157.834 177.256 152.756 190.049 152.756V152.756C196.386 152.752 202.661 153.995 208.517 156.416C214.373 158.836 219.694 162.386 224.176 166.862C228.658 171.337 232.214 176.652 234.64 182.502C237.066 188.351 238.315 194.621 238.315 200.953V200.953C238.315 207.286 237.066 213.557 234.641 219.409C232.215 225.26 228.66 230.576 224.178 235.055C219.696 239.533 214.375 243.086 208.52 245.509C202.664 247.933 196.387 249.18 190.049 249.18V249.18C183.712 249.18 177.437 247.933 171.583 245.509C165.729 243.085 160.41 239.532 155.931 235.053C151.451 230.574 147.899 225.257 145.477 219.406C143.055 213.555 141.81 207.285 141.814 200.953ZM143.38 200.953C143.38 213.323 148.296 225.187 157.047 233.938C165.798 242.688 177.669 247.608 190.049 247.616C202.432 247.608 214.306 242.689 223.062 233.939C231.818 225.19 236.741 213.326 236.749 200.953C236.733 188.582 231.807 176.723 223.053 167.975C214.298 159.228 202.43 154.306 190.049 154.29C177.671 154.306 165.805 159.229 157.056 167.977C148.306 176.725 143.388 188.585 143.38 200.953Z" fill="#717073"/>
<path d="M263.4 300.016H266.47V303.36H263.4V300.016ZM263.4 307.624H266.47V325.725H263.4V307.624Z" fill="#C4960C"/>
<path d="M275.405 307.625H278.26V310.693C279.396 307.87 281.791 307.257 285.598 307.257H290.173C295.915 307.257 297.726 310.141 297.726 313.393V325.664H294.656V314.16C294.656 311.491 293.919 309.742 287.993 309.742H287.195C280.041 309.742 278.414 311.092 278.414 315.356V325.664H275.344L275.405 307.625Z" fill="#C4960C"/>
<path d="M307.92 310.11H303.928V307.625H307.92V303.299H310.99V307.625H323.271V310.11H310.99V319.129C310.99 322.504 312.187 323.516 315.534 323.516H316.486C320.539 323.516 321.184 322.688 321.184 318.884V317.534H323.671V319.528C323.671 323.148 323.302 326.032 316.701 326.032H315.012C309.301 326.032 307.95 323.24 307.95 320.295L307.92 310.11Z" fill="#C4960C"/>
<path d="M329.412 314.65C329.412 308.084 333.956 307.317 338.316 307.317H343.198C348.694 307.317 352.624 308.729 352.624 315.171V317.196H332.482V318.331C332.482 322.473 334.447 323.516 339.79 323.516H343.996C347.834 323.516 349.4 323.025 349.584 320.264H352.654V320.601C352.654 324.774 349.216 326.032 343.443 326.032H337.886C333.895 326.032 329.351 325.265 329.351 318.577L329.412 314.65ZM349.584 313.515C349.584 311.674 348.172 309.802 343.198 309.802H338.623C333.803 309.802 332.667 310.6 332.482 314.711H349.584V313.515Z" fill="#C4960C"/>
<path d="M360.392 307.625H363.186V310.233C363.718 309.258 364.526 308.461 365.509 307.943C366.492 307.424 367.606 307.207 368.712 307.318H371.598C377.34 307.318 379.213 309.19 379.213 313.454V315.817H376.358V315.019C376.358 310.57 375.436 309.834 370.002 309.834H368.129C367.514 309.769 366.892 309.835 366.304 310.028C365.716 310.222 365.177 310.538 364.721 310.956C364.265 311.374 363.903 311.884 363.659 312.452C363.416 313.02 363.296 313.634 363.309 314.252V325.757H360.238L360.392 307.625Z" fill="#C4960C"/>
<path d="M385.722 307.625H388.578V310.693C389.714 307.87 392.109 307.257 395.916 307.257H400.491C406.232 307.257 408.044 310.141 408.044 313.393V325.664H404.973V314.16C404.973 311.491 404.236 309.742 398.311 309.742H397.512C390.358 309.742 388.731 311.092 388.731 315.356V325.664H385.661L385.722 307.625Z" fill="#C4960C"/>
<path d="M435.37 323.914C434.541 325.54 433.589 326.031 428.891 326.031H421.523C416.917 326.031 415.689 324.006 415.689 320.57V319.374C415.689 315.263 418.759 314.741 423.948 314.741H428.861C432.852 314.741 434.265 315.171 435.339 316.92V313.514C435.339 310.232 433.282 309.802 428.584 309.802H424.102C420.264 309.802 419.527 310.753 419.527 312.226V312.747H416.457V311.858C416.457 308.544 418.544 307.194 424.04 307.194H428.861C434.541 307.194 438.379 308.053 438.379 313.33V325.602H435.308L435.37 323.914ZM435.37 320.049C435.37 317.564 433.159 317.226 428.462 317.226H423.764C419.834 317.226 418.729 317.809 418.729 320.08V320.662C418.729 322.687 419.435 323.516 423.641 323.516H427.663C433.19 323.516 435.339 323.147 435.339 320.877L435.37 320.049Z" fill="#C4960C"/>
<path d="M448.234 310.11H444.243V307.625H448.234V303.299H451.305V307.625H463.432V310.11H451.305V319.129C451.305 322.504 452.471 323.516 455.818 323.516H456.77C460.823 323.516 461.467 322.688 461.467 318.884V317.534H463.954V319.528C463.954 323.148 463.586 326.032 456.985 326.032H455.296C449.585 326.032 448.234 323.24 448.234 320.295V310.11Z" fill="#C4960C"/>
<path d="M470.894 300.016H473.964V303.36H470.894V300.016ZM470.894 307.624H473.964V325.725H470.894V307.624Z" fill="#C4960C"/>
<path d="M482.285 314.68C482.285 308.729 486.522 307.317 492.325 307.317H496.685C502.488 307.317 506.725 308.729 506.725 314.68V318.669C506.725 324.62 502.488 326.032 496.685 326.032H492.325C486.522 326.032 482.285 324.62 482.285 318.669V314.68ZM503.777 314.864C503.777 310.631 501.29 309.802 497.636 309.802H491.496C487.934 309.802 485.355 310.631 485.355 314.864V318.485C485.355 322.718 487.842 323.516 491.496 323.516H497.636C501.198 323.516 503.777 322.718 503.777 318.485V314.864Z" fill="#C4960C"/>
<path d="M514.646 307.625H517.501V310.693C518.637 307.87 521.032 307.257 524.839 307.257H529.414C535.125 307.257 536.967 310.141 536.967 313.393V325.664H533.897V314.16C533.897 311.491 533.16 309.742 527.204 309.742H526.436C519.282 309.742 517.655 311.092 517.655 315.356V325.664H514.584L514.646 307.625Z" fill="#C4960C"/>
<path d="M564.293 323.914C563.495 325.54 562.513 326.031 557.846 326.031H550.477C545.841 326.031 544.643 324.006 544.643 320.57V319.374C544.643 315.263 547.56 314.741 552.903 314.741H557.815C561.776 314.741 563.219 315.171 564.263 316.92V313.514C564.263 310.232 562.206 309.802 557.508 309.802H553.025C549.187 309.802 548.42 310.753 548.42 312.226V312.747H545.349V311.858C545.349 308.544 547.437 307.194 552.903 307.194H557.754C563.434 307.194 567.272 308.053 567.272 313.33V325.602H564.201L564.293 323.914ZM564.293 320.049C564.293 317.564 562.083 317.226 557.385 317.226H552.688C548.758 317.226 547.652 317.809 547.652 320.08V320.662C547.652 322.687 548.358 323.516 552.534 323.516H556.618C562.144 323.516 564.293 323.147 564.293 320.877V320.049Z" fill="#C4960C"/>
<path d="M575.93 300.016H579V325.725H575.93V300.016Z" fill="#C4960C"/>
</g>
<defs>
<clipPath id="clip0_103_121">
<rect width="481" height="220" fill="white" transform="translate(98 106)"/>
</clipPath>
</defs>
</svg>
