<svg width="1246" height="700" viewBox="0 0 1246 700" fill="none" xmlns="http://www.w3.org/2000/svg">
<rect width="1246" height="700" fill="white"/>
<path d="M545.797 398.578C548.734 398.184 550.31 397.288 550.31 394.672V363.68C550.31 361.136 548.734 360.097 545.797 359.846V357.911H578.032C578.676 357.911 578.999 358.126 579.07 358.664C579.346 361.39 579.801 364.095 580.431 366.761H578.999C578.46 364.883 577.312 363.238 575.737 362.084C574.162 360.929 572.248 360.331 570.295 360.383H562.631C559.73 360.383 558.369 361.422 558.369 363.966V374.07C558.369 376.65 559.73 377.653 562.631 377.653H567.967C572.695 377.653 573.591 376.005 574.128 373.354H575.381V384.461H574.128C573.591 381.917 572.695 380.126 567.967 380.126H562.631C559.73 380.126 558.369 381.021 558.369 383.708V394.78C558.369 397.395 559.873 398.363 563.598 398.685V400.62H545.797V398.578Z" fill="#231F20"/>
<path d="M580.395 384.928C580.353 381.716 581.266 378.564 583.019 375.872C584.771 373.181 587.285 371.072 590.239 369.813C593.193 368.554 596.454 368.203 599.609 368.803C602.763 369.403 605.668 370.929 607.953 373.185C610.239 375.441 611.802 378.326 612.444 381.473C613.087 384.62 612.779 387.888 611.56 390.859C610.341 393.831 608.267 396.373 605.6 398.163C602.933 399.952 599.795 400.907 596.584 400.908C594.45 401.008 592.318 400.665 590.323 399.9C588.328 399.135 586.513 397.965 584.992 396.464C583.471 394.963 582.277 393.163 581.486 391.177C580.695 389.192 580.324 387.064 580.395 384.928ZM605.001 387.686C605.001 378.908 600.954 371.276 595.152 371.276C591.033 371.276 587.988 374.859 587.988 382.025C587.988 390.804 592.036 398.399 597.874 398.399C602.064 398.579 605.001 395.175 605.001 387.615V387.686Z" fill="#231F20"/>
<path d="M614.815 398.65C618.038 398.328 619.22 397.432 619.22 394.53V376.615C619.22 373.462 618.181 372.495 614.815 372.781V370.99L623.661 369.198C625.452 368.84 626.419 369.664 626.419 371.312V372.889C626.419 373.999 627.314 374.214 628.138 373.319C629.221 372.028 630.561 370.976 632.071 370.23C633.581 369.484 635.23 369.059 636.913 368.983C637.762 368.889 638.622 368.972 639.438 369.227C640.253 369.483 641.007 369.906 641.65 370.469C642.293 371.031 642.813 371.722 643.175 372.496C643.537 373.271 643.734 374.112 643.754 374.967C643.81 375.516 643.749 376.071 643.573 376.595C643.397 377.119 643.111 377.599 642.735 378.002C642.358 378.406 641.899 378.725 641.389 378.937C640.879 379.149 640.33 379.249 639.778 379.23C639.335 379.28 638.886 379.237 638.46 379.104C638.034 378.972 637.64 378.752 637.303 378.459C636.967 378.166 636.694 377.806 636.504 377.402C636.313 376.998 636.209 376.56 636.197 376.113C636.216 375.691 636.149 375.268 635.999 374.873C635.848 374.478 635.618 374.117 635.322 373.815C635.027 373.512 634.672 373.274 634.28 373.115C633.888 372.955 633.468 372.878 633.045 372.889C629.463 372.889 626.383 376.758 626.383 383.315V394.637C626.383 397.539 627.529 398.435 631.039 398.758V400.621H614.779L614.815 398.65Z" fill="#231F20"/>
<path d="M646.87 384.998C646.801 382.832 647.185 380.675 647.996 378.665C648.808 376.655 650.03 374.837 651.584 373.326C653.138 371.816 654.989 370.646 657.021 369.892C659.052 369.138 661.218 368.816 663.381 368.946C670.544 368.946 675.307 372.529 675.307 378.155C675.307 383.78 671.081 384.461 662.629 384.855L656.791 385.213C655.215 385.213 654.821 386.252 655.071 388.079C655.607 390.672 657.079 392.976 659.208 394.549C661.336 396.123 663.97 396.856 666.604 396.607C668.194 396.7 669.783 396.425 671.249 395.804C672.715 395.183 674.018 394.231 675.057 393.024L676.489 394.278C674.484 397.049 671.662 399.122 668.419 400.206C665.176 401.29 661.676 401.331 658.408 400.323C655.141 399.316 652.271 397.309 650.201 394.586C648.132 391.863 646.967 388.56 646.87 385.141V384.998ZM660.981 383.027C666.891 382.669 668.467 381.558 668.467 378.226C668.586 377.346 668.513 376.451 668.253 375.601C667.992 374.752 667.55 373.97 666.957 373.309C666.365 372.648 665.635 372.124 664.82 371.772C664.004 371.421 663.122 371.252 662.235 371.275C657.471 371.275 655.071 375.073 654.678 379.946C654.463 382.526 655.143 383.206 656.862 383.135L660.981 383.027Z" fill="#231F20"/>
<path d="M681.145 397.827C679.498 394.244 679.319 390.374 681.79 390.374C682.204 390.367 682.608 390.507 682.929 390.77C683.251 391.032 683.469 391.4 683.545 391.808C683.96 393.823 685.077 395.625 686.698 396.892C688.318 398.158 690.336 398.807 692.391 398.723C696.868 398.723 698.516 396.537 698.516 393.993C698.516 390.41 695.149 389.407 690.887 388.081C685.55 386.361 680.393 383.782 680.393 378.085C680.393 372.388 685.694 368.948 692.749 368.948C696.266 368.874 699.723 369.86 702.671 371.779C704.318 375.111 704.533 378.945 702.062 378.945C701.166 378.945 700.629 378.515 700.271 377.476C699.896 375.598 698.88 373.909 697.396 372.7C695.913 371.49 694.055 370.835 692.141 370.847C688.559 370.847 686.983 372.531 686.983 375.218C686.983 378.801 689.741 380.163 693.358 381.345C698.301 382.922 705.428 384.677 705.428 391.27C705.428 397.863 699.268 400.729 691.711 400.729C687.968 400.925 684.263 399.907 681.145 397.827Z" fill="#231F20"/>
<path d="M712.09 392.056V374.428C712.09 372.458 711.553 372.028 710.3 372.028H707.148V370.308C709.084 369.765 710.887 368.83 712.446 367.56C714.005 366.29 715.286 364.713 716.209 362.927C716.297 362.682 716.465 362.474 716.686 362.337C716.908 362.2 717.169 362.143 717.427 362.174H718.251C718.391 362.159 718.533 362.174 718.668 362.218C718.802 362.261 718.926 362.333 719.031 362.427C719.135 362.522 719.219 362.638 719.276 362.767C719.333 362.896 719.362 363.036 719.361 363.178V367.728C719.361 369.161 719.898 369.555 722.943 369.555H727.957V372.457L722.943 372.171C719.791 372.171 719.361 372.601 719.361 374.571V391.376C719.361 395.353 720.042 397.897 723.193 397.897C724.585 397.879 725.942 397.455 727.097 396.678L728.064 398.04C727.133 398.982 726.014 399.717 724.78 400.198C723.546 400.68 722.224 400.897 720.901 400.835C719.711 400.985 718.503 400.862 717.368 400.475C716.233 400.088 715.201 399.446 714.351 398.6C713.502 397.753 712.856 396.723 712.464 395.59C712.073 394.456 711.945 393.247 712.09 392.056Z" fill="#231F20"/>
<path d="M744.109 398.577C745.65 398.32 747.087 397.631 748.253 396.592C749.42 395.552 750.268 394.203 750.7 392.701L763.128 364.037C764.044 362.078 764.579 359.962 764.703 357.803L769.36 357.337L784.223 391.196C786.515 396.176 787.267 398.111 790.742 398.792V400.655H773.55V398.72C777.74 398.039 777.74 396.391 776.487 393.597L775.054 390.444C774.745 389.71 774.2 389.101 773.506 388.712C772.812 388.322 772.009 388.175 771.222 388.294H759.152C757.29 388.294 755.929 388.724 755.248 390.372L753.995 393.167C752.634 396.391 754.281 398.111 758.543 398.72V400.655H744.217L744.109 398.577ZM771.222 385.535C771.428 385.558 771.636 385.522 771.821 385.43C772.007 385.338 772.162 385.195 772.267 385.017C772.373 384.839 772.426 384.635 772.418 384.428C772.411 384.221 772.343 384.02 772.225 383.851L765.742 369.017C765.241 367.871 764.847 367.871 764.345 369.017L757.97 384.03C757.874 384.196 757.824 384.385 757.826 384.577C757.827 384.769 757.88 384.957 757.979 385.121C758.078 385.286 758.219 385.421 758.387 385.512C758.556 385.604 758.745 385.649 758.937 385.642L771.222 385.535Z" fill="#231F20"/>
<path d="M790.778 385.069C790.743 382.871 791.165 380.69 792.015 378.664C792.865 376.637 794.125 374.809 795.717 373.294C797.309 371.779 799.197 370.61 801.263 369.862C803.328 369.114 805.527 368.801 807.719 368.945C815.383 368.945 820.111 373.352 820.111 377.473C820.145 377.964 820.078 378.457 819.914 378.921C819.749 379.385 819.491 379.81 819.155 380.17C818.819 380.53 818.412 380.816 817.961 381.012C817.509 381.207 817.022 381.308 816.529 381.306C815.58 381.306 814.669 380.929 813.997 380.257C813.325 379.585 812.948 378.674 812.948 377.723C812.625 374.929 811.658 371.346 806.859 371.346C802.06 371.346 798.55 375.681 798.55 382.095C798.55 391.016 804.173 396.427 811.444 396.427C812.982 396.503 814.513 396.169 815.879 395.457C817.245 394.745 818.397 393.683 819.216 392.378L820.648 393.524C819.328 395.821 817.397 397.706 815.071 398.971C812.744 400.236 810.112 400.831 807.468 400.69C805.328 400.843 803.179 400.552 801.156 399.836C799.133 399.119 797.28 397.992 795.713 396.525C794.146 395.059 792.899 393.284 792.05 391.312C791.2 389.341 790.767 387.215 790.778 385.069Z" fill="#231F20"/>
<path d="M823.836 385.069C823.802 382.871 824.223 380.69 825.073 378.664C825.923 376.637 827.184 374.809 828.775 373.294C830.367 371.779 832.255 370.61 834.321 369.862C836.386 369.114 838.585 368.801 840.777 368.945C848.441 368.945 853.169 373.352 853.169 377.473C853.204 377.964 853.136 378.457 852.972 378.921C852.807 379.385 852.549 379.81 852.213 380.17C851.877 380.53 851.47 380.816 851.019 381.012C850.567 381.207 850.08 381.308 849.588 381.306C848.638 381.306 847.727 380.929 847.055 380.257C846.383 379.585 846.006 378.674 846.006 377.723C845.684 374.929 844.717 371.346 839.917 371.346C834.581 371.346 831.608 375.681 831.608 382.095C831.608 391.016 837.231 396.427 844.502 396.427C846.04 396.503 847.571 396.169 848.937 395.457C850.303 394.745 851.455 393.683 852.274 392.378L853.706 393.524C852.386 395.821 850.455 397.706 848.129 398.971C845.802 400.236 843.17 400.831 840.526 400.69C838.386 400.843 836.237 400.552 834.214 399.836C832.191 399.119 830.338 397.992 828.771 396.525C827.204 395.059 825.957 393.284 825.108 391.312C824.259 389.341 823.826 387.215 823.836 385.069Z" fill="#231F20"/>
<path d="M857.646 384.928C857.604 381.716 858.517 378.564 860.27 375.872C862.022 373.181 864.536 371.072 867.49 369.813C870.444 368.554 873.705 368.203 876.86 368.803C880.014 369.403 882.919 370.929 885.204 373.185C887.49 375.441 889.053 378.326 889.695 381.473C890.337 384.62 890.03 387.888 888.811 390.859C887.592 393.831 885.518 396.373 882.851 398.163C880.184 399.952 877.046 400.907 873.835 400.908C871.701 401.008 869.569 400.665 867.574 399.9C865.579 399.135 863.764 397.965 862.243 396.464C860.722 394.963 859.528 393.163 858.737 391.177C857.946 389.192 857.575 387.064 857.646 384.928ZM882.252 387.686C882.252 378.908 878.205 371.276 872.402 371.276C868.284 371.276 865.239 374.859 865.239 382.025C865.239 390.804 869.286 398.399 875.124 398.399C879.315 398.579 882.252 395.175 882.252 387.615V387.686Z" fill="#231F20"/>
<path d="M892.065 398.65C895.288 398.328 896.47 397.432 896.47 394.53V376.615C896.47 373.462 895.431 372.495 892.065 372.781V370.99L900.911 369.198C902.702 368.84 903.669 369.664 903.669 371.312V372.889C903.669 373.999 904.564 374.214 905.388 373.319C906.472 372.028 907.811 370.976 909.321 370.23C910.832 369.484 912.48 369.059 914.163 368.983C915.013 368.889 915.872 368.972 916.688 369.227C917.503 369.483 918.257 369.906 918.9 370.469C919.544 371.031 920.063 371.722 920.425 372.496C920.787 373.271 920.984 374.112 921.004 374.967C921.061 375.516 920.999 376.071 920.823 376.595C920.647 377.119 920.361 377.599 919.985 378.002C919.608 378.406 919.15 378.725 918.64 378.937C918.13 379.149 917.58 379.249 917.028 379.23C916.585 379.28 916.136 379.237 915.71 379.104C915.284 378.972 914.89 378.752 914.553 378.459C914.217 378.166 913.944 377.806 913.754 377.402C913.564 376.998 913.459 376.56 913.447 376.113C913.467 375.691 913.399 375.268 913.249 374.873C913.098 374.478 912.868 374.117 912.572 373.815C912.277 373.512 911.922 373.274 911.53 373.115C911.138 372.955 910.718 372.878 910.295 372.889C906.713 372.889 903.633 376.758 903.633 383.315V394.637C903.633 397.539 904.779 398.435 908.289 398.758V400.621H892.029L892.065 398.65Z" fill="#231F20"/>
<path d="M922.723 385.286C922.55 383.211 922.808 381.123 923.481 379.153C924.154 377.183 925.228 375.374 926.634 373.839C928.04 372.304 929.749 371.077 931.653 370.235C933.556 369.394 935.613 368.955 937.694 368.948C944.535 368.948 947.078 373.605 947.078 368.625V363C947.078 359.883 946.039 358.879 942.708 359.202V357.375L951.519 355.655C953.31 355.296 954.277 356.121 954.277 357.84V395.031C954.277 397.432 955.566 398.113 957.572 397.611V398.65C957.027 399.418 956.291 400.03 955.436 400.426C954.582 400.822 953.639 400.988 952.701 400.908C951.652 401.016 950.596 400.782 949.692 400.239C948.788 399.696 948.084 398.875 947.687 397.898C947.621 397.524 947.428 397.185 947.141 396.936C946.854 396.688 946.49 396.547 946.111 396.536C944.32 396.536 942.135 400.908 935.903 400.908C929.027 400.908 922.723 395.031 922.723 385.286ZM947.078 388.869V382.527C947.078 374.358 941.992 371.205 937.945 371.205C933.038 371.205 930.209 375.898 930.209 382.384C930.209 390.159 934.113 396.536 940.022 396.536C941.014 396.557 941.998 396.361 942.907 395.963C943.816 395.565 944.627 394.974 945.285 394.231C945.942 393.488 946.43 392.61 946.715 391.66C947 390.709 947.075 389.708 946.935 388.725L947.078 388.869Z" fill="#231F20"/>
<path d="M545.583 335.734C549.379 335.196 551.707 334.05 551.707 330.682V290.588C551.707 287.292 549.379 286.145 545.583 285.608V283.136H562.165L580.324 321.008L597.516 283.136H613.848V285.608C610.051 286.145 608.081 287.292 608.081 290.588V330.682C608.081 334.05 610.051 335.196 613.848 335.734V338.206H591.678V335.734C595.51 335.196 597.444 334.05 597.444 330.682V292.165L578.641 333.333H575.453L555.611 291.914V330.682C555.611 334.05 557.903 335.196 561.7 335.734V338.206H545.583V335.734Z" fill="#231F20"/>
<path d="M618.36 335.733C620.349 335.387 622.2 334.488 623.701 333.138C625.202 331.788 626.293 330.043 626.849 328.102L642.894 291.197C644.1 288.671 644.794 285.931 644.936 283.135L650.989 282.526L670.222 325.952C673.123 332.437 674.126 334.909 678.638 335.805V338.206H656.397V335.733C661.805 334.838 661.805 332.688 660.193 329.069L658.331 324.985C657.928 324.035 657.219 323.247 656.317 322.747C655.414 322.247 654.371 322.064 653.352 322.226H637.773C635.373 322.226 633.582 322.763 632.722 324.913L631.111 328.496C629.356 332.652 631.469 334.873 636.985 335.662V338.134H618.36V335.733ZM653.245 318.858C653.512 318.885 653.781 318.837 654.022 318.719C654.263 318.601 654.465 318.417 654.607 318.19C654.749 317.962 654.824 317.699 654.824 317.431C654.824 317.162 654.748 316.9 654.606 316.672L646.153 297.503C645.545 295.998 645.007 295.998 644.398 297.503L636.161 316.672C635.624 317.998 636.412 318.786 637.379 318.786L653.245 318.858Z" fill="#231F20"/>
<path d="M683.51 335.734C687.306 335.196 689.348 334.05 689.348 330.682V290.588C689.348 287.292 687.306 286.145 683.51 285.608V283.136H710.551C723.946 283.136 732.04 288.546 732.04 298.113C732.04 305.278 727.599 310.08 718.717 311.764C718.108 311.764 718.108 312.588 718.717 312.767C721.264 313.507 723.565 314.918 725.38 316.853C727.195 318.789 728.456 321.176 729.032 323.767C731.503 330.932 733.079 335.734 737.09 335.734V338.206H733.186C723.516 338.206 721.116 334.372 717.32 323.48C714.741 316.314 711.625 313.734 705.608 313.734C701.167 313.734 699.949 315.239 699.949 318.607V330.682C699.949 334.05 701.883 335.196 706.683 335.734V338.206H683.546L683.51 335.734ZM709.548 310.259C718.323 310.259 721.188 304.49 721.188 298.22C721.188 291.95 718.323 286.325 710.193 286.325H705.035C701.454 286.325 699.913 287.579 699.913 290.947V305.278C699.913 308.646 701.131 310.151 704.784 310.151L709.548 310.259Z" fill="#231F20"/>
<path d="M743.25 335.734C747.046 335.196 749.088 334.05 749.088 330.682V290.588C749.088 287.292 747.046 286.145 743.25 285.608V283.136H765.492V285.608C761.588 286.145 759.654 287.292 759.654 290.588V330.682C759.654 334.05 761.588 335.196 765.492 335.734V338.206H743.25V335.734Z" fill="#231F20"/>
<path d="M783.042 335.735C790.205 335.198 792.282 334.051 792.282 330.683V292.166C792.282 287.652 791.458 286.684 785.513 286.684C779.567 286.684 777.275 288.798 774.768 295.821H772.189L773.694 284.105C773.696 283.933 773.736 283.763 773.811 283.608C773.885 283.453 773.993 283.316 774.126 283.207C774.259 283.098 774.414 283.019 774.581 282.976C774.747 282.933 774.921 282.927 775.091 282.958C776.344 282.958 778.672 283.137 780.714 283.137H814.416C816.529 283.137 818.678 283.137 819.896 282.958C820.067 282.927 820.243 282.933 820.411 282.976C820.58 283.019 820.737 283.097 820.873 283.206C821.009 283.314 821.119 283.451 821.198 283.606C821.277 283.761 821.321 283.931 821.329 284.105L822.833 295.821H820.254C817.676 288.655 815.741 286.684 809.51 286.684C803.278 286.684 802.776 287.652 802.776 292.166V330.683C802.776 334.051 804.818 335.198 811.981 335.735V338.207H783.006L783.042 335.735Z" fill="#231F20"/>
<path d="M829.603 335.734C833.399 335.196 835.44 334.05 835.44 330.682V290.588C835.44 287.292 833.399 286.145 829.603 285.608V283.136H851.844V285.608C847.94 286.145 846.006 287.292 846.006 290.588V330.682C846.006 334.05 847.94 335.196 851.844 335.734V338.206H829.603V335.734Z" fill="#231F20"/>
<path d="M860.69 335.734C864.523 335.196 866.815 334.05 866.815 330.682V290.588C866.815 287.292 864.523 286.145 860.69 285.608V283.136H877.273L895.432 321.008L912.659 283.136H929.027V285.608C925.231 286.145 923.296 287.292 923.296 290.588V330.682C923.296 334.05 925.231 335.196 929.027 335.734V338.206H906.893V335.734C910.689 335.196 912.659 334.05 912.659 330.682V292.165L893.856 333.333H890.668L870.719 291.914V330.682C870.719 334.05 873.011 335.196 876.843 335.734V338.206H860.69V335.734Z" fill="#231F20"/>
<path d="M937.909 335.734C941.706 335.196 943.747 334.05 943.747 330.682V290.588C943.747 287.292 941.706 286.145 937.909 285.608V283.136H979.85C980.638 283.136 981.067 283.387 981.175 284.103C981.506 287.628 982.092 291.125 982.93 294.565H981.067C978.596 289.155 975.587 286.325 969.821 286.325H959.793C956.211 286.325 954.313 287.65 954.313 291.126V304.168C954.313 307.536 956.068 308.682 959.793 308.682H966.705C972.83 308.682 973.868 306.532 974.692 302.197H976.304V318.356H974.692C973.976 314.164 972.83 311.871 966.705 311.871H959.793C956.211 311.871 954.313 313.018 954.313 316.386V330.288C954.313 333.548 955.996 335.053 961.297 334.981H971.254C973.184 335.239 975.147 334.933 976.907 334.1C978.667 333.267 980.149 331.943 981.175 330.288L983.288 326.991H985.258C983.744 330.163 982.833 333.59 982.572 337.095C982.567 337.271 982.527 337.444 982.454 337.604C982.38 337.763 982.275 337.906 982.144 338.024C982.013 338.141 981.86 338.231 981.693 338.287C981.526 338.343 981.35 338.364 981.175 338.349H937.909V335.734Z" fill="#231F20"/>
<path d="M371.302 339.533C375.135 342.113 379.361 344.693 383.981 347.308C395.369 354.076 407.761 358.986 420.692 361.855L404.539 322.442C392.216 325.296 380.794 331.169 371.302 339.533Z" fill="#D89A2B"/>
<path d="M423.092 312.373C434.621 312.366 446.041 314.593 456.723 318.93C455.577 301.624 450.563 279.374 441.931 252.681C424.574 256.429 407.534 261.52 390.965 267.908L409.697 313.448C414.129 312.758 418.607 312.398 423.092 312.373Z" fill="#E19717"/>
<path d="M345.229 304.564C344.154 313.88 350.709 324.019 364.569 334.697C375.029 325.165 387.714 318.414 401.46 315.062L383.373 271.027C359.842 281.49 346.697 293.027 345.229 304.564Z" fill="#A1A93A"/>
<path d="M447.806 356.55C453.679 350.925 456.724 341.286 456.939 327.886C443.098 321.601 427.786 319.282 412.706 321.186L429.754 362.533C436.323 362.988 442.807 360.838 447.806 356.55Z" fill="#E25227"/>
<path d="M496.013 384.784C495.761 374.075 492.767 363.609 487.318 354.388C481.869 345.167 474.146 337.498 464.889 332.114C464.065 345.694 460.197 355.869 453.356 362.39C447.792 367.486 440.589 370.422 433.049 370.667L440.212 387.901C442.241 392.48 443.094 397.494 442.694 402.487C442.293 407.48 440.652 412.294 437.919 416.491C435.186 420.688 431.448 424.135 427.045 426.52C422.642 428.904 417.712 430.15 412.705 430.144H371.41C385.737 442.574 404.129 449.306 423.092 449.062C463.421 449.062 496.013 420.219 496.013 384.784Z" fill="#BB4718"/>
<path d="M358.982 340.536C343.223 328.174 335.952 315.777 337.493 303.631C339.212 288.869 353.645 275.397 380.472 263.574L349.742 189.299L271.269 391.414C269.824 394.761 269.235 398.416 269.555 402.049C269.875 405.681 271.094 409.176 273.102 412.22C275.11 415.263 277.843 417.758 281.056 419.48C284.269 421.202 287.86 422.097 291.505 422.084H353.681C346.125 411.114 342.078 398.107 342.077 384.785C342.193 368.479 348.197 352.763 358.982 340.536Z" fill="#68962D"/>
<path d="M431.187 412.051C433.159 408.978 434.332 405.462 434.601 401.82C434.87 398.178 434.226 394.527 432.727 391.198L424.238 370.56C402.749 368.339 380.83 354.939 379.863 354.365C374.705 351.427 369.906 348.418 365.536 345.479C355.739 356.282 350.246 370.307 350.1 384.892C350.159 398.537 354.986 411.731 363.745 422.191H412.634C416.33 422.203 419.969 421.279 423.213 419.506C426.457 417.733 429.2 415.169 431.187 412.051Z" fill="#958637"/>
<path d="M464.925 322.871C464.352 303.451 458.765 277.905 448.271 246.697C447.946 245.782 447.307 245.013 446.467 244.527C445.627 244.041 444.641 243.871 443.687 244.046C424.598 247.928 405.871 253.417 387.706 260.456L353.359 176.901C353.067 176.185 352.572 175.57 351.936 175.131C351.3 174.692 350.55 174.448 349.777 174.429C348.998 174.458 348.244 174.715 347.608 175.167C346.971 175.618 346.481 176.246 346.196 176.973L264.106 388.367C262.181 392.917 261.407 397.87 261.851 402.79C262.295 407.71 263.945 412.445 266.654 416.575C269.363 420.706 273.047 424.105 277.382 426.471C281.716 428.838 286.567 430.1 291.505 430.145H352.678V503.13C352.626 503.691 352.69 504.257 352.869 504.792C353.047 505.327 353.335 505.818 353.715 506.235C354.094 506.652 354.556 506.985 355.071 507.213C355.587 507.441 356.144 507.559 356.708 507.559C357.271 507.559 357.829 507.441 358.344 507.213C358.86 506.985 359.322 506.652 359.701 506.235C360.08 505.818 360.368 505.327 360.547 504.792C360.725 504.257 360.79 503.691 360.737 503.13V430.897C374.506 445.501 393.093 454.626 413.064 456.587V490.231C413.011 490.792 413.076 491.359 413.254 491.893C413.433 492.428 413.721 492.92 414.1 493.337C414.479 493.754 414.942 494.087 415.457 494.315C415.972 494.543 416.53 494.66 417.093 494.66C417.657 494.66 418.214 494.543 418.73 494.315C419.245 494.087 419.707 493.754 420.087 493.337C420.466 492.92 420.754 492.428 420.932 491.893C421.111 491.359 421.176 490.792 421.123 490.231V457.089H423.092C467.755 457.089 504.072 424.627 504.072 384.749C504.072 359.453 489.137 335.949 464.925 322.871ZM363.781 422.083C355.022 411.624 350.195 398.429 350.136 384.785C350.282 370.199 355.775 356.175 365.572 345.372C369.906 348.31 374.705 351.32 379.899 354.258C380.866 354.831 402.856 368.231 424.274 370.453L432.727 391.198C434.228 394.55 434.866 398.224 434.583 401.886C434.3 405.548 433.105 409.081 431.108 412.162C429.11 415.243 426.373 417.775 423.146 419.527C419.919 421.279 416.306 422.195 412.634 422.191L363.781 422.083ZM383.373 271.025L401.46 315.06C387.764 318.434 375.131 325.184 364.713 334.695C350.852 323.946 344.298 313.878 345.372 304.562C346.697 293.025 359.842 281.488 383.373 271.025ZM404.54 322.584L420.693 361.997C407.761 359.128 395.369 354.217 383.982 347.45C379.361 344.834 375.135 342.255 371.303 339.675C380.795 331.311 392.216 325.438 404.54 322.584ZM429.754 362.534L412.706 321.187C427.786 319.282 443.098 321.602 456.938 327.887C456.724 341.287 453.679 350.925 447.805 356.551C442.807 360.839 436.323 362.989 429.754 362.534ZM441.932 252.681C450.742 279.374 455.757 301.588 456.903 318.965C446.167 314.593 434.683 312.354 423.092 312.373C418.607 312.398 414.13 312.758 409.697 313.448L390.787 267.908C407.414 261.511 424.514 256.42 441.932 252.681ZM273.131 412.266C271.089 409.229 269.848 405.725 269.522 402.079C269.196 398.433 269.797 394.764 271.269 391.413L349.742 189.298L380.292 263.573C353.502 275.397 339.068 288.869 337.313 303.63C335.917 315.777 343.187 328.174 358.803 340.535C348.018 352.763 342.014 368.478 341.898 384.785C341.899 398.106 345.946 411.113 353.502 422.083H291.505C287.865 422.123 284.273 421.244 281.062 419.528C277.85 417.812 275.123 415.315 273.131 412.266ZM423.092 449.063C404.129 449.307 385.737 442.575 371.41 430.145H412.634C417.641 430.151 422.57 428.905 426.974 426.52C431.377 424.136 435.115 420.689 437.848 416.491C440.581 412.294 442.222 407.481 442.623 402.488C443.023 397.495 442.17 392.481 440.141 387.902L432.978 370.668C440.524 370.479 447.753 367.594 453.357 362.534C460.198 356.013 464.102 345.838 464.89 332.258C474.147 337.642 481.869 345.311 487.318 354.532C492.767 363.753 495.761 374.219 496.014 384.928C496.014 420.22 463.421 449.063 423.092 449.063Z" fill="#231F20"/>
</svg>
