<svg id="Layer_1" data-name="Layer 1" xmlns="http://www.w3.org/2000/svg" viewBox="0 0 1000 1000"><polyline points="753 546.95 770 546.95 770 445.95 753 451.25 753 546.95"/><polyline points="782.9 451.25 782.9 546.95 800 546.95 800 445.95 782.9 451.25"/><path d="M662.7,479.65a17.75,17.75,0,0,0-7.4-1.4c-13.8,0-23,8.5-26.5,12.3v-13.7l-18.4,5.8v64h18.4v-52c15.6-8.7,21.4-3.8,23.5-.4h0a4.05,4.05,0,0,1,.5.9c.3.9.5,2.7.5,6.3v45.2h18.4v-49.8a10.66,10.66,0,0,0,0-2c-.2-3.8-1.4-11.9-9-15.2"/><path d="M590,479.65a17.75,17.75,0,0,0-7.4-1.4c-13.8,0-23,8.5-26.5,12.3v-13.7l-18.4,5.8v64h18.4v-52c15.6-8.7,21.4-3.8,23.5-.4h0a4.05,4.05,0,0,1,.5.9c.3.9.5,2.7.5,6.3v45.2H599v-49.8a10.66,10.66,0,0,0,0-2c-.2-3.8-1.4-11.9-9-15.2"/><path d="M419,544.05c-19.2,0-28-26.1-28-42.1s6.3-42.1,27.6-42.1,26.7,25.9,26.7,25.9h2.1v-22.3c-1.9-.8-17-7.8-31.6-7.8s-45,13.1-45,46.5,28.4,46.3,49,46.3,28.8-6.9,28.8-6.9v-22.9h-2.1c-8.2,28.8-27.5,25.4-27.5,25.4"/><polyline points="250.1 524.15 219.4 457.15 200.6 457.15 200.6 546.65 206 546.65 206 475.45 240.3 547.75 244.5 547.75 274.6 471.35 274.6 546.65 293.4 546.65 293.4 457.15 274.6 457.15 250.1 524.15"/><path d="M358.7,523.65c0,.2-4.2,18.8-19.3,18.8-15.7,0-19.9-20.1-19.9-30.8h0v-.2h0c0-10.7,4.1-30.8,19.9-30.8,15.1,0,19.3,18.6,19.3,18.8l.1.6h2.9v-12.2c-6.8-8.2-16.1-10.7-21-11.4a42.79,42.79,0,0,0-8.8.3h0c-12.3,2.5-28.9,13.2-29,34.8h0v.2h0c.1,21.6,16.7,32.3,29,34.8h0a42.79,42.79,0,0,0,8.8.3c4.9-.7,14.2-3.2,21-11.4v-12.2h-2.9l-.1.4"/><path d="M741.8,510.75a39.27,39.27,0,0,0-1.3-15.8c-2.7-8.6-9.6-17.5-26.9-17.5a36.06,36.06,0,0,0-8.4.9c-25,5.6-24.3,36-24.3,36s-.3,33.5,32.1,33.5a35.84,35.84,0,0,0,13-2.6,32.52,32.52,0,0,0,14.5-9.8v-12.3h-2.9l-.1.6a32.37,32.37,0,0,1-6.6,12.9,16.77,16.77,0,0,1-12.8,5.9c-15.7,0-19.9-20.1-19.9-30.8h0v-.3h0v-.7h43.6m-43.5-6.1c.3-6.7,2.1-21.7,13.5-22.8.4,0,.9-.1,1.4-.1,12.4,0,13.5,13.8,13.3,20.2l-27.7,2.6Z"/><polyline points="217 426.25 200 426.25 200 396.65 205.1 396.65 205.1 421.95 217 421.95 217 426.25"/><path d="M238.3,426.25H234v-1.6a11.44,11.44,0,0,1-6.4,2,6.86,6.86,0,0,1-5.1-1.9,6.55,6.55,0,0,1-1.9-4.9c0-5.1,4.1-7.6,12.2-7.6h.8v-.8a3.81,3.81,0,0,0-.7-2.7c-.7-.7-1.8-1-3.5-1a12.37,12.37,0,0,0-5.9,1.7l-1.7-3.2a9.36,9.36,0,0,1,2.3-1.3,14.71,14.71,0,0,1,5.6-1.1c3,0,5.2.8,6.7,2.3a5.09,5.09,0,0,1,1.5,2.9,29.22,29.22,0,0,1,.2,3.8v13.4m-4.4-4.8v-5.7h-1c-3.4,0-5.7.6-6.7,1.7a2.86,2.86,0,0,0-.8,2.2,2.78,2.78,0,0,0,1.1,2.4,4,4,0,0,0,2.7.8A8.84,8.84,0,0,0,233.7,421.45Z"/><polyline points="271.7 400.85 259.9 400.85 259.9 408.85 271 408.85 271 413.05 259.9 413.05 259.9 426.25 254.8 426.25 254.8 396.65 271.7 396.65 271.7 400.85"/><path d="M296.3,415.25a11.59,11.59,0,0,1-3,8.3,10.39,10.39,0,0,1-7.9,3.2,10,10,0,0,1-7.6-3.1,11.72,11.72,0,0,1-2.9-8.2,11.59,11.59,0,0,1,3-8.3,10.39,10.39,0,0,1,7.9-3.2,10,10,0,0,1,7.6,3.1,11.44,11.44,0,0,1,2.9,8.2m-4.9.2a8.46,8.46,0,0,0-1.6-5.4,5.12,5.12,0,0,0-4.2-2.1,5,5,0,0,0-4.1,2,8.57,8.57,0,0,0-1.6,5.3,8.46,8.46,0,0,0,1.6,5.4,5.12,5.12,0,0,0,4.2,2.1,5,5,0,0,0,4.2-2A8.55,8.55,0,0,0,291.4,415.45Z"/><path d="M319.3,426.25h-4.9v-11.9c0-2.9-.3-4.6-1-5.3a3.71,3.71,0,0,0-2.8-1,8.84,8.84,0,0,0-4.8,1.6v16.5h-4.9v-21.7h4.3v1.6a10.56,10.56,0,0,1,6.4-2.2,7.32,7.32,0,0,1,5.4,2,7.07,7.07,0,0,1,2,3.7,22.88,22.88,0,0,1,.3,4.4v12.3"/><path d="M343.6,426.25h-4.3v-1.6a10.41,10.41,0,0,1-6,2.1,8.7,8.7,0,0,1-7-3.1,11.74,11.74,0,0,1-2.7-8,12,12,0,0,1,3-8.4,9.71,9.71,0,0,1,7.5-3.3,10,10,0,0,1,4.5,1.1v-10.9h4.9v32.1m-4.8-5v-12a6.82,6.82,0,0,0-3.8-1.2,5.62,5.62,0,0,0-4.5,2,8,8,0,0,0-1.8,5.6,7.71,7.71,0,0,0,1.6,5.2,5.26,5.26,0,0,0,4.1,2A8.78,8.78,0,0,0,338.7,421.25Z"/><path d="M365.9,426.25h-4.3v-1.6a11.44,11.44,0,0,1-6.4,2,6.86,6.86,0,0,1-5.1-1.9,6.55,6.55,0,0,1-1.9-4.9c0-5.1,4.1-7.6,12.2-7.6h.8v-.8a3.81,3.81,0,0,0-.7-2.7c-.7-.7-1.8-1-3.5-1a12.37,12.37,0,0,0-5.9,1.7l-1.7-3.2a9.36,9.36,0,0,1,2.3-1.3,14.71,14.71,0,0,1,5.6-1.1c3,0,5.2.8,6.7,2.3a5.09,5.09,0,0,1,1.5,2.9,29.22,29.22,0,0,1,.2,3.8v13.4m-4.4-4.8v-5.7h-1c-3.4,0-5.7.6-6.7,1.7a2.86,2.86,0,0,0-.8,2.2,2.78,2.78,0,0,0,1.1,2.4,4,4,0,0,0,2.7.8A9.08,9.08,0,0,0,361.3,421.45Z"/><path d="M385.1,425.55a9,9,0,0,1-5.1,1.3,7,7,0,0,1-5.2-1.8,5.09,5.09,0,0,1-1.5-2.9,27.37,27.37,0,0,1-.2-3.7v-9.8h-3.8v-4h3.8v-6.1H378v6.1h6.4v4H378v10.2a5.83,5.83,0,0,0,.4,2.7,2.58,2.58,0,0,0,2.5,1.2,9.91,9.91,0,0,0,2.9-.6l1.3,3.4"/><path d="M395,398.05a2.79,2.79,0,0,1-.8,2,3,3,0,0,1-2,.8,2.79,2.79,0,0,1-2-.8,2.44,2.44,0,0,1-.8-2,2.79,2.79,0,0,1,.8-2,2.57,2.57,0,0,1,2-.8,2.79,2.79,0,0,1,2,.8,3,3,0,0,1,.8,2m-5.3,6.5h4.9v21.7h-4.9Z"/><path d="M420.5,415.25a11.59,11.59,0,0,1-3,8.3,10.39,10.39,0,0,1-7.9,3.2,10,10,0,0,1-7.6-3.1,11.72,11.72,0,0,1-2.9-8.2,11.59,11.59,0,0,1,3-8.3A10.39,10.39,0,0,1,410,404a10,10,0,0,1,7.6,3.1,11.44,11.44,0,0,1,2.9,8.2m-4.9.2a9.1,9.1,0,0,0-1.6-5.4,5.12,5.12,0,0,0-4.2-2.1,5,5,0,0,0-4.1,2,8.57,8.57,0,0,0-1.6,5.3,9.1,9.1,0,0,0,1.6,5.4,5.12,5.12,0,0,0,4.2,2.1,5,5,0,0,0,4.2-2A8.55,8.55,0,0,0,415.6,415.45Z"/><path d="M443.5,426.25h-4.9v-11.9c0-2.9-.3-4.6-1-5.3a3.71,3.71,0,0,0-2.8-1,8.84,8.84,0,0,0-4.8,1.6v16.5h-4.9v-21.7h4.3v1.6a10.56,10.56,0,0,1,6.4-2.2,7.32,7.32,0,0,1,5.4,2,7.07,7.07,0,0,1,2,3.7,22.88,22.88,0,0,1,.3,4.4v12.3"/><polyline points="601.8 579.85 590.1 579.85 590.1 587.95 601.2 587.95 601.2 592.05 590.1 592.05 590.1 605.25 585 605.25 585 575.65 601.8 575.65 601.8 579.85"/><path d="M626.5,594.25a11.59,11.59,0,0,1-3,8.3,10.39,10.39,0,0,1-7.9,3.2,10,10,0,0,1-7.6-3.1,11.72,11.72,0,0,1-2.9-8.2,11.59,11.59,0,0,1,3-8.3A10.39,10.39,0,0,1,616,583a10,10,0,0,1,7.6,3.1,11.44,11.44,0,0,1,2.9,8.2m-4.9.2a8.46,8.46,0,0,0-1.6-5.4,5.12,5.12,0,0,0-4.2-2.1,5,5,0,0,0-4.1,2,8.57,8.57,0,0,0-1.6,5.3,8.46,8.46,0,0,0,1.6,5.4,5.12,5.12,0,0,0,4.2,2.1,4.73,4.73,0,0,0,4.1-2A8,8,0,0,0,621.6,594.45Z"/><path d="M649.2,605.25h-4.3v-1.6a10.35,10.35,0,0,1-6.4,2.2,7.32,7.32,0,0,1-5.4-2,7.07,7.07,0,0,1-2-3.7,22.88,22.88,0,0,1-.3-4.4v-12.1h4.9v11.8a18.76,18.76,0,0,0,.1,2.9,3.71,3.71,0,0,0,1.1,2.6,4,4,0,0,0,2.6.8,10,10,0,0,0,4.7-1.6v-16.5h4.9v21.6"/><path d="M673.2,605.25h-4.9v-11.9c0-2.9-.3-4.6-1-5.3a3.71,3.71,0,0,0-2.8-1,8.84,8.84,0,0,0-4.8,1.6v16.5h-4.8v-21.7h4.3v1.6a10.56,10.56,0,0,1,6.4-2.2,7.32,7.32,0,0,1,5.4,2,7.07,7.07,0,0,1,2,3.7,22.88,22.88,0,0,1,.3,4.4v12.3"/><path d="M697.5,605.25h-4.3v-1.6a10.18,10.18,0,0,1-6,2.1,8.7,8.7,0,0,1-7-3.1,11.74,11.74,0,0,1-2.7-8,12,12,0,0,1,3-8.4A9.71,9.71,0,0,1,688,583a10,10,0,0,1,4.5,1.1v-10.9h4.9v32.1m-4.8-5v-12a6.82,6.82,0,0,0-3.8-1.2,5.62,5.62,0,0,0-4.5,2,8,8,0,0,0-1.8,5.6,8.27,8.27,0,0,0,1.6,5.2,5.26,5.26,0,0,0,4.1,2A8.78,8.78,0,0,0,692.6,600.25Z"/><path d="M719.8,605.25h-4.3v-1.6a11.44,11.44,0,0,1-6.4,2,6.86,6.86,0,0,1-5.1-1.9,6.55,6.55,0,0,1-1.9-4.9c0-5.1,4.1-7.6,12.2-7.6h.8v-.8a3.81,3.81,0,0,0-.7-2.7c-.7-.7-1.8-1-3.5-1a12.37,12.37,0,0,0-5.9,1.7l-1.7-3.2a9.36,9.36,0,0,1,2.3-1.3,14.71,14.71,0,0,1,5.6-1.1c3,0,5.2.8,6.7,2.3a5.09,5.09,0,0,1,1.5,2.9,29.22,29.22,0,0,1,.2,3.8v13.4m-4.5-4.8v-5.7h-1c-3.4,0-5.7.6-6.7,1.7a2.86,2.86,0,0,0-.8,2.2,2.78,2.78,0,0,0,1.1,2.4,4,4,0,0,0,2.7.8A8.84,8.84,0,0,0,715.1,600.45Z"/><path d="M738.9,604.55a9.22,9.22,0,0,1-5.1,1.3,7,7,0,0,1-5.2-1.8,5.09,5.09,0,0,1-1.5-2.9,27.37,27.37,0,0,1-.2-3.7v-9.8h-3.8v-4h3.8v-6.1h4.9v6.1h6.4v4h-6.3v10.2a5.83,5.83,0,0,0,.4,2.7,2.58,2.58,0,0,0,2.5,1.2,9.91,9.91,0,0,0,2.9-.6l1.2,3.4"/><path d="M748.8,577.15a2.79,2.79,0,0,1-.8,2,2.44,2.44,0,0,1-2,.8,2.79,2.79,0,0,1-2-.8,2.44,2.44,0,0,1-.8-2,2.79,2.79,0,0,1,.8-2,2.57,2.57,0,0,1,2-.8,2.79,2.79,0,0,1,2,.8,2.44,2.44,0,0,1,.8,2m-5.2,6.4h4.9v21.7h-4.9Z"/><path d="M774.4,594.25a11.59,11.59,0,0,1-3,8.3,10.39,10.39,0,0,1-7.9,3.2,10,10,0,0,1-7.6-3.1,11.72,11.72,0,0,1-2.9-8.2,11.59,11.59,0,0,1,3-8.3,10.39,10.39,0,0,1,7.9-3.2,10,10,0,0,1,7.6,3.1,11.9,11.9,0,0,1,2.9,8.2m-4.9.2a9.1,9.1,0,0,0-1.6-5.4,5.12,5.12,0,0,0-4.2-2.1,5,5,0,0,0-4.1,2,8.57,8.57,0,0,0-1.6,5.3,9.1,9.1,0,0,0,1.6,5.4,5.12,5.12,0,0,0,4.2,2.1,5,5,0,0,0,4.2-2A8.55,8.55,0,0,0,769.5,594.45Z"/><path d="M797.4,605.25h-4.9v-11.9c0-2.9-.3-4.6-1-5.3a3.62,3.62,0,0,0-2.7-1,8.84,8.84,0,0,0-4.8,1.6v16.5h-4.9v-21.7h4.3v1.6a10.56,10.56,0,0,1,6.4-2.2,7.32,7.32,0,0,1,5.4,2,7.07,7.07,0,0,1,2,3.7,22.88,22.88,0,0,1,.3,4.4v12.3"/><path d="M483,483.65l-1-2.3a41.36,41.36,0,0,0-5.9,3.1l1.4,2.1a41.36,41.36,0,0,1,5.5-2.9"/><path d="M472.8,490.55l-1.8-1.8a33.46,33.46,0,0,0-4.2,5.1l2.1,1.4a36,36,0,0,1,3.9-4.7"/><path d="M477.6,486.55l-1.4-2.1a34.53,34.53,0,0,0-5.1,4.2l1.8,1.8a36,36,0,0,1,4.7-3.9"/><path d="M517.2,490.55l1.8-1.8a33.46,33.46,0,0,0-5.1-4.2l-1.4,2.1a25,25,0,0,1,4.7,3.9"/><path d="M512.5,486.55l1.4-2.1a30.09,30.09,0,0,0-5.9-3.1l-1,2.3a31.86,31.86,0,0,1,5.5,2.9"/><path d="M466,500.65l-2.3-1a33.82,33.82,0,0,0-1.9,6.4l2.5.5a24.83,24.83,0,0,1,1.7-5.9"/><path d="M521.1,495.25l2.1-1.4a34.53,34.53,0,0,0-4.2-5.1l-1.8,1.8a25,25,0,0,1,3.9,4.7"/><path d="M507,483.65a31.1,31.1,0,0,0-12-2.4v-2.5a35.22,35.22,0,0,1,6.6.6,36.14,36.14,0,0,1,6.4,1.9l-1,2.4"/><path d="M464.2,506.55l-2.5-.5a36,36,0,0,0-.6,6.6h2.5a31.53,31.53,0,0,1,.6-6.1"/><path d="M472.8,535l-1.8,1.8a33.46,33.46,0,0,0,5.1,4.2l1.4-2.1a57.13,57.13,0,0,1-4.7-3.9"/><path d="M463.6,512.75h-2.5a35.22,35.22,0,0,0,.6,6.6l2.5-.5a31.53,31.53,0,0,1-.6-6.1"/><path d="M464.2,518.85l-2.5.5a36.14,36.14,0,0,0,1.9,6.4l2.3-1a39.83,39.83,0,0,1-1.7-5.9"/><path d="M468.9,530.15l-2.1,1.4a34.53,34.53,0,0,0,4.2,5.1l1.8-1.8a36,36,0,0,1-3.9-4.7"/><path d="M477.6,538.85l-1.4,2.1a30.09,30.09,0,0,0,5.9,3.1l1-2.3a31.86,31.86,0,0,1-5.5-2.9"/><path d="M521.1,530.15l-2.1-1.4a39.76,39.76,0,0,0,2.7-5l2.4,1a35.46,35.46,0,0,1-3,5.4"/><path d="M489.4,541l-.5,2.5a30.78,30.78,0,0,0,6.1.6v-2.6a20.88,20.88,0,0,1-5.6-.5"/><path d="M484,539.35l-1,2.4a28.84,28.84,0,0,0,5.9,1.8l.5-2.5a30.92,30.92,0,0,1-5.4-1.7"/><path d="M489.9,487l-.5-2.5a30.75,30.75,0,0,0-5.4,1.6l1,2.3a25.27,25.27,0,0,1,4.9-1.4"/><path d="M476.4,494.15l-1.8-1.8a31.31,31.31,0,0,0-3.6,4.4l2.1,1.4a26,26,0,0,1,3.3-4"/><path d="M473.2,498.05l-2.1-1.4a39.76,39.76,0,0,0-2.7,5l2.3,1a29.4,29.4,0,0,1,2.5-4.6"/><path d="M509.6,490.85l1.4-2.1a39.76,39.76,0,0,0-5-2.7l-1,2.3a22.53,22.53,0,0,1,4.6,2.5"/><path d="M520.8,507.55l2.5-.5a30.75,30.75,0,0,0-1.6-5.4l-2.3,1a27.46,27.46,0,0,1,1.4,4.9"/><path d="M468.7,512.75h-2.5a26,26,0,0,0,.6,5.6l2.5-.5a22.2,22.2,0,0,1-.6-5.1"/><path d="M519.3,502.65l2.3-1a24.16,24.16,0,0,0-2.7-5l-2.1,1.4a23,23,0,0,1,2.5,4.6"/><path d="M495,486.45V484a26,26,0,0,0-5.6.6l.5,2.5a17.79,17.79,0,0,1,5.1-.6"/><path d="M505.1,488.45l1-2.3a24.09,24.09,0,0,0-5.4-1.6l-.5,2.5a17.13,17.13,0,0,1,4.9,1.4"/><path d="M513.6,494.15l1.8-1.8a31.31,31.31,0,0,0-4.4-3.6l-1.4,2.1a21.3,21.3,0,0,1,4,3.3"/><path d="M500.2,487l.5-2.5a26,26,0,0,0-5.6-.6v2.5a29.56,29.56,0,0,1,5.1.6"/><path d="M520.8,507.55a29.37,29.37,0,0,1,.5,5.1h2.5a26,26,0,0,0-.6-5.6l-2.4.5"/><path d="M469.2,517.85l-2.5.5a30.75,30.75,0,0,0,1.6,5.4l2.3-1c-.5-1.6-1-3.2-1.4-4.9"/><path d="M470.7,522.75l-2.3,1a24.16,24.16,0,0,0,2.7,5l2.1-1.4a29.4,29.4,0,0,1-2.5-4.6"/><path d="M511.8,529.45l1.8,1.8a26,26,0,0,0,3.3-4l-2.1-1.4a26,26,0,0,1-3,3.6"/><path d="M508.2,532.45l1.4,2.1a31.89,31.89,0,0,0,4-3.3l-1.8-1.8a26,26,0,0,1-3.6,3"/><path d="M504.1,534.65l1,2.3a32.09,32.09,0,0,0,4.5-2.4l-1.4-2.1a20.17,20.17,0,0,1-4.1,2.2"/><path d="M477.4,501l-2.1-1.4a23.21,23.21,0,0,0-2.2,4.1l2.3,1a18.55,18.55,0,0,1,2-3.7"/><path d="M475.4,504.55l-2.3-1a29.6,29.6,0,0,0-1.4,4.5l2.5.5a26.43,26.43,0,0,1,1.2-4"/><path d="M474.2,508.55l-2.5-.5a23.15,23.15,0,0,0-.5,4.6h2.5c.1-1.4.3-2.7.5-4.1"/><path d="M510,497.75l1.8-1.8a26,26,0,0,0-3.6-3l-1.4,2.1a20.79,20.79,0,0,1,3.2,2.7"/><path d="M506.8,495.05l1.4-2.1a23.21,23.21,0,0,0-4.1-2.2l-1,2.3a21.8,21.8,0,0,1,3.7,2"/><path d="M485.9,534.65a23.21,23.21,0,0,1-4.1-2.2,25.88,25.88,0,0,1-6.6-6.6l2.1-1.4a27.85,27.85,0,0,0,2.6,3.2,19.2,19.2,0,0,0,3.2,2.6,21.8,21.8,0,0,0,3.7,2l-.9,2.4"/><path d="M528.3,506.05a36.14,36.14,0,0,0-1.9-6.4,41.36,41.36,0,0,0-3.1-5.9l-2.1,1.4a35,35,0,0,1,2.9,5.4,30.88,30.88,0,0,1,1.8,5.9l-2.5.5a26,26,0,0,1,.6,5.6h-2.5a27.56,27.56,0,0,0-.5-5.1l-2.5.5a38.09,38.09,0,0,0-1.3-4.5,23.21,23.21,0,0,0-2.2-4.1,26,26,0,0,0-3-3.6l-1.8,1.8a19.2,19.2,0,0,1,2.6,3.2,21.8,21.8,0,0,1,2,3.7,26.43,26.43,0,0,1,1.2,4,21.21,21.21,0,0,1,0,8.2,26.43,26.43,0,0,1-1.2,4,19,19,0,0,1-2,3.7,27.85,27.85,0,0,1-2.6,3.2,19.2,19.2,0,0,1-3.2,2.6,21.8,21.8,0,0,1-3.7,2,26.43,26.43,0,0,1-4,1.2,21.21,21.21,0,0,1-8.2,0,26.43,26.43,0,0,1-4-1.2l-1,2.3a23.21,23.21,0,0,1-4.1-2.2,25.88,25.88,0,0,1-6.6-6.6,23.21,23.21,0,0,1-2.2-4.1l-2.3,1a32.09,32.09,0,0,0,2.4,4.5l-2.1,1.4a38.33,38.33,0,0,0,3.6,4.4,31.31,31.31,0,0,0,4.4,3.6l-1.4,2.1a35,35,0,0,0,5.4,2.9l1-2.4a24.09,24.09,0,0,0,5.4,1.6,26,26,0,0,0,5.6.6v2.6a31.1,31.1,0,0,1-12-2.4l-1,2.3a33.82,33.82,0,0,0,6.4,1.9,36,36,0,0,0,6.6.6,35.22,35.22,0,0,0,6.6-.6,36.14,36.14,0,0,0,6.4-1.9,41.36,41.36,0,0,0,5.9-3.1,34.53,34.53,0,0,0,5.1-4.2,33.46,33.46,0,0,0,4.2-5.1,30.09,30.09,0,0,0,3.1-5.9,33.82,33.82,0,0,0,1.9-6.4,35.22,35.22,0,0,0,.6-6.6,50,50,0,0,0-.7-6.4m-14.7,25.2a31.89,31.89,0,0,1-4,3.3,19.48,19.48,0,0,1-4.5,2.4l-1-2.3a23.21,23.21,0,0,0,4.1-2.2,25.88,25.88,0,0,0,6.6-6.6l2.1,1.4A26,26,0,0,1,513.6,531.25Zm7.5-1.1-2.1-1.4a39.76,39.76,0,0,0,2.7-5l2.4,1A35.46,35.46,0,0,1,521.1,530.15Z"/><path d="M463.7,525.65a41.36,41.36,0,0,0,3.1,5.9l2.1-1.4a35,35,0,0,1-2.9-5.4l-2.3.9"/></svg>