<svg id="Layer_1" data-name="Layer 1" xmlns="http://www.w3.org/2000/svg" viewBox="0 0 1000 1000"><path d="M262.9,465,266,475q4.42,14.68,6.29,19t3.29,4.34q2.46,0,13.26-18.54l.88-1.52,6-10.36q3.81-6.66,5.6-9.1a15.67,15.67,0,0,1,3.37-3.57,21.28,21.28,0,0,1,7.94-3.57,49.76,49.76,0,0,1,11.67-1.15q12,0,18,3t6,9a9.79,9.79,0,0,1-1,4.61,8.41,8.41,0,0,1-3.22,3.25,30.74,30.74,0,0,1-3.41.84,6.67,6.67,0,0,0-4.36,2.61q-2.55,3.69-3.75,21.59c-.16,2.36-.27,4.13-.32,5.3q-1.2,14.7-1.61,22.68t-.41,14.9v4.41a12.89,12.89,0,0,0,.51,4.1,5.7,5.7,0,0,0,1.78,2.49,23.86,23.86,0,0,0,2.07,1.53q4.75,3.38,4.75,7,0,6.25-8.58,9.7t-24.12,3.44q-13.72,0-21.06-2.91t-7.34-8.28a10.28,10.28,0,0,1,.84-4.17,7.37,7.37,0,0,1,2.58-3,10.6,10.6,0,0,1,3.61-1.49,9.21,9.21,0,0,0,2.9-1q1.18-1.2,3-9.79a200,200,0,0,0,3-20.15l.71-5.22v-.8a3.86,3.86,0,0,0-.36-1.85,1.11,1.11,0,0,0-1-.64,1.56,1.56,0,0,0-1,.44,6.63,6.63,0,0,0-1.24,1.65l-4.44,7.62-3.18,5.3q-17.88,29.37-24.31,29.36-4,0-7.65-7.67t-7.71-24.38l-1.82-7.14a10,10,0,0,0-.87-2.69,1.19,1.19,0,0,0-1-.61,1.56,1.56,0,0,0-1.31.56,6.67,6.67,0,0,0-.84,2.25l-2.31,10.2v.24Q232.14,544,232.13,547t4.08,6.46c2.72,2.33,4.08,4.52,4.08,6.55q0,5.54-6.2,8.26T215.21,571q-12.3,0-17.69-2.75a9.26,9.26,0,0,1-5.39-8.91,6.63,6.63,0,0,1,.76-3.34,8.25,8.25,0,0,1,2.66-2.6,20.88,20.88,0,0,1,3.61-1.52,7.35,7.35,0,0,0,3.93-2.73,91.26,91.26,0,0,0,4.81-10.36,133.5,133.5,0,0,0,4.73-14q4-14,6.33-26.93t2.35-18.27a8.69,8.69,0,0,0-1.14-4.81,9.6,9.6,0,0,0-3.93-3.14c-.58-.27-1.5-.62-2.77-1.05-3.65-1.18-5.48-3.18-5.47-6q0-7.06,8.57-10.59t25.55-3.51q9.69,0,14,3.06T262.9,465"/><path d="M355.09,544.75l5.58-27.29c.53-2.62.87-4.46,1-5.5a17.31,17.31,0,0,0,.24-2.45,2.81,2.81,0,0,0-2.77-3.13,17.07,17.07,0,0,1-2.78-.49,5.42,5.42,0,0,1-3-1.85,4.93,4.93,0,0,1-1.11-3.21,9.6,9.6,0,0,1,2.66-6.46,26.44,26.44,0,0,1,8.22-5.73,79.46,79.46,0,0,1,15.08-5.33,61.84,61.84,0,0,1,14.84-2,9.36,9.36,0,0,1,6.74,2.38,8.61,8.61,0,0,1,2.45,6.54,49,49,0,0,1-.64,6.31q-.63,4.37-2.07,11.92l-2.79,14.13q-1.51,8-2.23,12.68a51,51,0,0,0-.72,6.26,6.06,6.06,0,0,0,.24,2.09.87.87,0,0,0,.87.56,14.79,14.79,0,0,0,2.22-.2,16.09,16.09,0,0,1,1.83-.2,3.6,3.6,0,0,1,3,1.45,6.19,6.19,0,0,1,1.11,3.86,11.29,11.29,0,0,1-2.15,6.26,25.11,25.11,0,0,1-6,6.09,51,51,0,0,1-13.06,7,40,40,0,0,1-13.45,2.48q-7.38,0-11.23-3t-3.84-8.68a51.56,51.56,0,0,1,.44-6.3c.3-2.33.73-5,1.32-8.15"/><path d="M373.71,477.8Q367,477.8,363,475a8.48,8.48,0,0,1-4-7.27,11.65,11.65,0,0,1,2.67-7.23,27.26,27.26,0,0,1,8.05-6.57A43.4,43.4,0,0,1,380,449.67a40.6,40.6,0,0,1,10.75-1.56q6.91,0,11.27,2.74c2.91,1.82,4.36,4.13,4.36,6.91q0,7.64-9.81,13.84t-22.9,6.2"/><path d="M456.45,528.86a23,23,0,0,0,13.22-7.22c3.73-4,5.6-7.83,5.6-11.64a4.57,4.57,0,0,0-.91-3.17,3.59,3.59,0,0,0-2.81-1c-3.44,0-6.79,2.31-10,6.93a28.19,28.19,0,0,0-5.06,16.1m-41,24,2.31-12.52c.27-1.45.7-3.72,1.28-6.83q4.54-23.83,6.22-40.54l1.2-10.76c.16-1.33.28-2.54.36-3.61s.12-2,.12-2.89a9.82,9.82,0,0,0-.75-4.61,2.63,2.63,0,0,0-2.49-1.33,17.43,17.43,0,0,0-2.46.24,17.53,17.53,0,0,1-2.3.24,4.08,4.08,0,0,1-3.06-1.21,4.46,4.46,0,0,1-1.15-3.21q0-7.71,13.26-13.56t32-5.84c2.53,0,4.28.44,5.23,1.29s1.43,2.47,1.42,4.82a46.69,46.69,0,0,1-.4,5.42q-.39,3.33-1.59,10.88l-3.91,25.61a68.44,68.44,0,0,1,16.59-10.35,41.34,41.34,0,0,1,16.19-3.43q9.75,0,15.31,5.23t5.54,14.37a21.85,21.85,0,0,1-2.87,11,32.54,32.54,0,0,1-8.73,9.51,57,57,0,0,1-6.11,4c-2.23,1.25-3.34,2-3.34,2.28a7.42,7.42,0,0,0,1,1.53A90.56,90.56,0,0,1,503,543.19c.47,1,2,2.33,4.6,3.94s3.88,3.48,3.88,5.62q0,6.75-9.73,12.56a42.34,42.34,0,0,1-22.18,5.8,14.28,14.28,0,0,1-7.46-1.65q-2.7-1.65-4.68-6.07a89.87,89.87,0,0,1-4.11-10.68q-2.85-8.67-5.63-8.68-3.33,0-4,7c-.48,4.65-1.09,7.84-1.83,9.55q-2.07,4.89-9.09,7.7t-17.26,2.79c-4,0-6.85-.69-8.65-2s-2.7-3.58-2.69-6.63a26.27,26.27,0,0,1,.28-3.25c.18-1.42.52-3.49,1-6.22"/><path d="M568.29,501.65,563,534.09q-.24,1.75-.36,3.21c-.08,1-.12,1.74-.12,2.32a7.15,7.15,0,0,0,2.18,5.55,8.49,8.49,0,0,0,6,2q7.85,0,13.93-8.54t6.09-20.51q0-6.82-4.32-16.18t-4.31-12.09q0-3.53,3.81-5.81a18.53,18.53,0,0,1,9.69-2.29q8.8,0,12.61,4.83T612,502.33a88.2,88.2,0,0,1-3.79,25.85,73.68,73.68,0,0,1-10.93,22.15,52.54,52.54,0,0,1-18.14,15.89,47.81,47.81,0,0,1-22.66,5.68q-14.43,0-23.28-7.49t-8.83-19.52q0-7.46,3-19.62t3-16.42a5.7,5.7,0,0,0-.91-3.7,4.12,4.12,0,0,0-3.21-1,3.58,3.58,0,0,0-.63.08l-.48.08a4.93,4.93,0,0,1-3.77-1.33,5.66,5.66,0,0,1-1.22-4,9.89,9.89,0,0,1,2.3-6.58q2.31-2.73,7.78-5.21a64.77,64.77,0,0,1,13-4.28A62,62,0,0,1,557,481.25q7,0,9.83,2.18c1.85,1.44,2.78,4,2.77,7.55a32.3,32.3,0,0,1-.32,4q-.32,2.54-1,6.7"/><path d="M672.06,501.1c-1.7,0-3.56,1.11-5.6,3.33a53.15,53.15,0,0,0-6.79,10.15,66.37,66.37,0,0,0-5.49,13,41.07,41.07,0,0,0-2,11.32,7.58,7.58,0,0,0,.91,3.94,2.71,2.71,0,0,0,2.34,1.53c1.53,0,3.23-1,5.08-2.85a42.8,42.8,0,0,0,6-8.39,72,72,0,0,0,6.44-14.56,44.37,44.37,0,0,0,2.39-12.73,5.73,5.73,0,0,0-.95-3.41,2.78,2.78,0,0,0-2.3-1.33m37.22-11.21-2,16.46Q706,516.79,705,524.82t-1.16,9.71l-.48,7.71v.32q0,2.57,4.84,3.05a4.05,4.05,0,0,0,.72.08A2.92,2.92,0,0,1,711,547a5,5,0,0,1,.79,3,12,12,0,0,1-2.66,7.06,29.13,29.13,0,0,1-7.75,6.9,52,52,0,0,1-12.18,6,36.1,36.1,0,0,1-11.55,2.23,10.48,10.48,0,0,1-6.46-1.77,8.53,8.53,0,0,1-3-5.46c-.16-.91-.32-2.14-.47-3.7q-.48-4.72-2-4.73c-.8,0-1.94.75-3.42,2.24-.79.8-1.43,1.42-1.9,1.85a48.48,48.48,0,0,1-12.43,8.62A30.27,30.27,0,0,1,635.26,572q-10.23,0-15.94-7.36t-5.69-20.68a61.32,61.32,0,0,1,3.66-20.71A74,74,0,0,1,628,503.55a68,68,0,0,1,16.84-16.28q9-5.94,16.82-5.93a26.39,26.39,0,0,1,13.72,4.07q6.75,4.06,6.9,4.06a78.78,78.78,0,0,0,7.5-3.65,29.57,29.57,0,0,1,13.46-3.64c2.22,0,3.8.43,4.76,1.29a5.39,5.39,0,0,1,1.42,4.18c0,.58,0,1,0,1.36s-.07.62-.12.88"/><path d="M742.63,525.65A5,5,0,0,1,738.9,524a17,17,0,0,1-3.09-5.42,102.86,102.86,0,0,1-5.66-20.24A126.72,126.72,0,0,1,728.23,476q0-14.13,5.65-21.63t16.27-7.5q10.32,0,15.71,4.91T771.24,466q0,7.23-3.9,19.27a126.07,126.07,0,0,1-10.26,23.27q-5.64,9.87-8.78,13.48t-5.67,3.61M718.72,552a19.71,19.71,0,0,1,20-20.05,18.94,18.94,0,0,1,14.07,5.79,19.6,19.6,0,0,1,5.66,14.3,19.81,19.81,0,0,1-5.72,14.37,18.88,18.88,0,0,1-14,5.85,19.23,19.23,0,0,1-14.2-5.88A19.67,19.67,0,0,1,718.72,552"/></svg>