<svg width="772" height="528" viewBox="0 0 772 528" fill="none" xmlns="http://www.w3.org/2000/svg">
<rect width="772" height="528" fill="white"/>
<g clip-path="url(#clip0_103_101)">
<path d="M266.67 196.632L268.618 202.944C270.484 209.101 271.808 213.088 272.59 214.903C273.373 216.718 274.065 217.627 274.667 217.629C275.703 217.629 278.494 213.746 283.04 205.981L283.592 205.022L287.403 198.516C289.01 195.727 290.189 193.819 290.939 192.792C291.529 191.937 292.248 191.18 293.071 190.549C294.577 189.465 296.287 188.702 298.096 188.308C300.514 187.779 302.985 187.537 305.459 187.584C310.502 187.584 314.291 188.218 316.828 189.485C319.364 190.751 320.63 192.645 320.626 195.165C320.649 196.166 320.429 197.158 319.983 198.053C319.502 198.906 318.8 199.612 317.953 200.095C317.244 200.308 316.525 200.485 315.798 200.624C314.486 200.908 313.567 201.459 313.043 202.276C311.973 203.818 311.185 208.341 310.678 215.845C310.575 217.33 310.507 218.44 310.474 219.176C309.969 225.331 309.631 230.083 309.461 233.432C309.29 236.78 309.204 239.9 309.202 242.79V245.566C309.169 246.435 309.279 247.304 309.53 248.137C309.752 248.754 310.142 249.297 310.655 249.703C311.073 250.049 311.511 250.369 311.967 250.661C313.968 252.076 314.968 253.541 314.968 255.056C314.968 257.676 313.164 259.709 309.556 261.157C305.948 262.604 300.872 263.323 294.327 263.314C288.55 263.314 284.119 262.704 281.033 261.484C277.948 260.263 276.4 258.528 276.389 256.279C276.375 255.377 276.555 254.483 276.917 253.659C277.274 252.877 277.842 252.213 278.557 251.742C279.251 251.289 280.025 250.973 280.836 250.81C281.853 250.559 282.462 250.35 282.663 250.182C283.164 249.676 283.792 247.623 284.546 244.026C285.389 239.84 286.02 235.614 286.435 231.363L286.888 228.085V227.579C286.91 227.18 286.834 226.781 286.665 226.419C286.609 226.299 286.521 226.197 286.41 226.126C286.299 226.054 286.17 226.016 286.038 226.016C285.803 226.03 285.581 226.129 285.412 226.294C285.103 226.596 284.841 226.944 284.635 227.325L281.827 232.116L279.823 235.444C272.292 247.748 267.174 253.9 264.469 253.9C262.799 253.9 261.189 252.292 259.641 249.075C258.093 245.859 256.469 240.753 254.77 233.759L253.622 229.268C253.522 228.68 253.337 228.11 253.074 227.576C253.007 227.461 252.911 227.365 252.796 227.299C252.681 227.233 252.551 227.199 252.418 227.199C252.263 227.188 252.108 227.214 251.965 227.275C251.822 227.336 251.695 227.43 251.595 227.549C251.332 227.982 251.153 228.461 251.067 228.96L249.607 235.371V235.52C248.04 242.684 247.256 246.905 247.256 248.183C247.256 249.461 248.112 250.816 249.824 252.248C251.543 253.713 252.401 255.084 252.399 256.362C252.399 258.681 251.095 260.413 248.489 261.556C245.882 262.7 241.908 263.268 236.566 263.262C231.39 263.262 227.673 262.687 225.414 261.537C223.155 260.387 222.017 258.518 222 255.932C221.974 255.205 222.138 254.484 222.475 253.84C222.903 253.168 223.478 252.603 224.155 252.188C224.889 251.799 225.658 251.478 226.451 251.23C227.671 250.789 228.497 250.219 228.93 249.518C230.08 247.417 231.094 245.244 231.968 243.011C233.125 240.144 234.123 237.214 234.956 234.235C236.628 228.348 237.96 222.706 238.951 217.309C239.941 211.911 240.437 208.086 240.437 205.832C240.437 204.553 240.197 203.545 239.715 202.805C239.233 202.065 238.403 201.407 237.235 200.822C236.868 200.657 236.284 200.436 235.484 200.161C233.17 199.439 232.014 198.185 232.014 196.401C232.014 193.442 233.819 191.224 237.429 189.746C241.039 188.267 246.415 187.532 253.557 187.538C257.63 187.538 260.568 188.18 262.37 189.465C264.172 190.749 265.605 193.138 266.67 196.632Z" fill="#ED1944"/>
<path d="M324.863 246.751L328.383 229.601C328.711 227.949 328.934 226.799 329.039 226.144C329.126 225.637 329.177 225.123 329.19 224.608C329.19 223.428 328.606 222.774 327.438 222.625C326.848 222.571 326.262 222.47 325.687 222.324C324.944 222.156 324.276 221.747 323.784 221.161C323.317 220.595 323.069 219.878 323.086 219.142C323.086 217.695 323.646 216.341 324.765 215.081C325.885 213.821 327.613 212.62 329.951 211.479C333.003 210.048 336.19 208.927 339.463 208.131C342.523 207.326 345.668 206.897 348.83 206.853C350.632 206.853 352.054 207.349 353.094 208.343C354.135 209.336 354.651 210.708 354.643 212.457C354.591 213.786 354.457 215.111 354.239 216.422C353.97 218.258 353.533 220.755 352.927 223.914L351.166 232.793C350.53 236.153 350.06 238.81 349.759 240.764C349.526 242.064 349.374 243.377 349.303 244.696C349.275 245.142 349.326 245.59 349.454 246.018C349.495 246.128 349.571 246.222 349.67 246.285C349.768 246.349 349.885 246.379 350.001 246.371C350.472 246.362 350.941 246.32 351.405 246.246C351.786 246.18 352.171 246.138 352.557 246.12C352.923 246.108 353.286 246.184 353.617 246.342C353.948 246.5 354.237 246.736 354.459 247.029C354.955 247.735 355.201 248.588 355.158 249.451C355.158 250.731 354.706 252.043 353.803 253.387C352.76 254.869 351.472 256.16 349.995 257.204C347.472 259.06 344.696 260.537 341.752 261.589C339.031 262.596 336.159 263.124 333.26 263.152C330.157 263.152 327.796 262.527 326.175 261.278C324.555 260.029 323.747 258.213 323.752 255.829C323.763 254.503 323.856 253.178 324.03 251.864C324.214 250.399 324.492 248.691 324.863 246.742" fill="#ED1944"/>
<path d="M336.616 204.681C333.812 204.681 331.559 204.1 329.856 202.937C328.152 201.773 327.302 200.256 327.304 198.383C327.337 196.721 327.93 195.12 328.986 193.843C330.108 192.4 331.804 191.023 334.074 189.712C336.128 188.533 338.325 187.628 340.611 187.019C342.819 186.387 345.101 186.053 347.397 186.027C350.303 186.027 352.673 186.601 354.508 187.749C356.343 188.897 357.26 190.344 357.26 192.091C357.26 195.288 355.196 198.188 351.067 200.792C346.939 203.396 342.122 204.692 336.616 204.681Z" fill="#ED1944"/>
<path d="M388.844 236.766C392.048 236.231 394.984 234.636 397.188 232.232C399.543 229.742 400.722 227.305 400.724 224.919C400.724 224.01 400.53 223.346 400.15 222.936C399.769 222.526 399.166 222.302 398.372 222.302C396.201 222.302 394.087 223.755 392.032 226.66C389.961 229.621 388.847 233.153 388.844 236.775V236.766ZM362.932 251.89L364.391 244.022C364.557 243.115 364.826 241.683 365.198 239.726C367.107 229.738 368.419 221.245 369.134 214.248L369.892 207.487C369.99 206.648 370.066 205.891 370.118 205.217C370.167 204.556 370.194 203.942 370.194 203.4C370.194 202.022 370.036 201.057 369.721 200.502C369.563 200.227 369.331 200.002 369.052 199.854C368.773 199.706 368.458 199.641 368.144 199.666C367.624 199.679 367.105 199.729 366.592 199.814C366.112 199.898 365.626 199.948 365.139 199.966C364.783 199.982 364.428 199.922 364.096 199.792C363.764 199.662 363.462 199.463 363.21 199.21C362.963 198.937 362.772 198.618 362.648 198.271C362.523 197.924 362.468 197.556 362.486 197.187C362.486 193.96 365.276 191.12 370.856 188.668C376.437 186.216 383.165 184.993 391.041 185C392.642 185 393.743 185.27 394.344 185.81C394.944 186.348 395.246 187.356 395.243 188.837C395.224 189.976 395.139 191.114 394.99 192.244C394.824 193.638 394.489 195.917 393.983 199.081L391.517 215.174C395.055 212.283 398.546 210.117 401.99 208.674C405.218 207.274 408.692 206.539 412.207 206.513C416.314 206.513 419.535 207.614 421.87 209.817C424.205 212.02 425.369 215.026 425.36 218.835C425.381 221.27 424.756 223.666 423.549 225.775C422.351 227.876 420.516 229.871 418.046 231.759C416.814 232.673 415.526 233.505 414.188 234.251C412.784 235.04 412.082 235.519 412.082 235.688C412.262 236.033 412.482 236.355 412.738 236.647C414.856 239.51 416.699 242.569 418.242 245.784C418.542 246.425 419.508 247.25 421.142 248.259C422.775 249.268 423.593 250.446 423.595 251.795C423.595 254.619 421.547 257.249 417.452 259.686C413.356 262.122 408.69 263.334 403.453 263.321C401.45 263.321 399.881 262.975 398.746 262.283C397.611 261.591 396.627 260.321 395.794 258.473C394.786 256.293 393.919 254.05 393.196 251.758C391.991 248.119 390.805 246.299 389.637 246.299C388.234 246.299 387.381 247.762 387.079 250.688C386.777 253.613 386.392 255.614 385.924 256.689C385.05 258.74 383.136 260.353 380.184 261.53C377.232 262.706 373.6 263.291 369.288 263.284C366.787 263.284 364.969 262.855 363.834 261.996C362.699 261.137 362.131 259.749 362.131 257.832C362.152 257.147 362.212 256.464 362.312 255.786C362.428 254.905 362.636 253.602 362.938 251.877" fill="#ED1944"/>
<path d="M459.432 219.668L456.11 240.053C456.011 240.793 455.933 241.464 455.883 242.069C455.834 242.674 455.808 243.163 455.808 243.533C455.808 245.013 456.266 246.174 457.182 247.016C458.098 247.857 459.358 248.279 460.961 248.281C464.267 248.281 467.198 246.492 469.755 242.912C472.311 239.332 473.591 235.036 473.595 230.024C473.595 227.16 472.689 223.771 470.876 219.856C469.064 215.941 468.156 213.408 468.154 212.255C468.154 210.779 468.955 209.561 470.558 208.601C472.161 207.64 474.199 207.162 476.672 207.166C480.374 207.166 483.028 208.178 484.633 210.2C486.238 212.222 487.036 215.52 487.027 220.094C487.044 225.599 486.238 231.075 484.636 236.339C483.137 241.337 480.808 246.044 477.748 250.258C474.747 254.432 470.827 257.85 466.294 260.241C461.89 262.593 456.979 263.819 451.993 263.809C445.919 263.809 441.021 262.241 437.299 259.104C433.577 255.967 431.719 251.879 431.723 246.841C431.723 243.71 432.36 239.598 433.635 234.505C434.91 229.411 435.541 225.974 435.528 224.191C435.528 223.081 435.334 222.308 434.954 221.878C434.573 221.449 433.891 221.217 432.923 221.217C432.789 221.223 432.655 221.24 432.523 221.267C432.425 221.291 432.325 221.308 432.225 221.316C431.155 221.316 430.362 221.039 429.843 220.484C429.325 219.929 429.067 219.096 429.069 217.986C429.036 216.473 429.554 215.001 430.526 213.848C431.497 212.707 433.137 211.615 435.446 210.573C438.078 209.389 440.826 208.487 443.646 207.88C446.472 207.224 449.362 206.88 452.262 206.853C455.234 206.853 457.304 207.31 458.471 208.224C459.639 209.138 460.222 210.719 460.22 212.966C460.201 213.802 460.133 214.636 460.016 215.464C459.881 216.522 459.679 217.925 459.413 219.674" fill="#ED1944"/>
<path d="M524.934 219.324C523.865 219.324 522.69 220.018 521.401 221.413C520.112 222.807 518.686 224.935 517.114 227.794C515.671 230.383 514.511 233.124 513.654 235.966C512.814 238.755 512.395 241.125 512.395 243.077C512.358 243.938 512.556 244.793 512.969 245.549C513.351 246.19 513.843 246.51 514.445 246.51C515.411 246.51 516.48 245.915 517.652 244.723C518.824 243.531 520.078 241.774 521.415 239.452C523.102 236.563 524.464 233.492 525.475 230.298C526.481 227.119 526.985 224.454 526.987 222.301C527.02 221.54 526.81 220.789 526.387 220.157C526.232 219.907 526.019 219.701 525.765 219.555C525.511 219.41 525.226 219.33 524.934 219.324V219.324ZM548.429 212.279L547.169 222.622C546.631 226.995 546.152 230.862 545.732 234.224C545.313 237.586 545.069 239.622 545.001 240.331L544.696 245.172V245.374C544.696 246.451 545.714 247.091 547.75 247.294C547.898 247.324 548.048 247.341 548.199 247.347C548.462 247.378 548.716 247.466 548.943 247.605C549.169 247.744 549.363 247.931 549.511 248.153C549.866 248.709 550.04 249.363 550.01 250.023C550.01 251.466 549.45 252.946 548.33 254.461C547.211 255.977 545.58 257.422 543.44 258.797C541.048 260.385 538.463 261.655 535.748 262.574C532.993 263.512 530.564 263.98 528.46 263.978C526.726 263.978 525.366 263.608 524.38 262.868C523.393 262.128 522.749 260.983 522.448 259.435C522.349 258.863 522.248 258.09 522.149 257.121C521.948 255.139 521.532 254.147 520.9 254.147C520.401 254.147 519.679 254.617 518.745 255.558C518.242 256.063 517.84 256.449 517.541 256.718C514.869 259.172 512.255 260.978 509.698 262.134C507.19 263.284 504.464 263.876 501.708 263.869C497.405 263.869 494.052 262.327 491.649 259.243C489.245 256.159 488.043 251.826 488.041 246.246C488.059 241.805 488.842 237.401 490.356 233.23C491.971 228.777 494.259 224.603 497.139 220.854C500.419 216.519 503.961 213.104 507.763 210.61C511.566 208.116 515.106 206.875 518.384 206.886C521.323 206.886 524.21 207.737 527.046 209.44C529.882 211.143 531.334 211.995 531.402 211.995C531.568 211.995 533.146 211.23 536.135 209.701C539.124 208.172 541.955 207.409 544.627 207.411C546.031 207.411 547.032 207.681 547.632 208.221C548.231 208.761 548.53 209.642 548.53 210.864C548.53 211.235 548.53 211.525 548.504 211.72C548.489 211.907 548.464 212.092 548.429 212.276" fill="#ED1944"/>
<path d="M223.679 308.365C223.672 304.42 224.43 300.512 225.909 296.859C227.408 293.136 229.584 289.728 232.325 286.81C234.594 284.341 237.303 282.323 240.312 280.862C243.071 279.508 246.098 278.798 249.168 278.783C251.952 278.791 254.71 279.335 257.292 280.386C257.518 280.489 257.753 280.57 257.994 280.63C258.255 280.534 258.498 280.393 258.712 280.214C259.025 279.97 259.403 279.826 259.798 279.801C261.182 279.801 262.622 280.903 264.118 283.106C265.552 285.105 266.337 287.502 266.365 289.969C266.365 292 265.84 293.653 264.79 294.926C264.317 295.532 263.711 296.02 263.02 296.352C262.329 296.683 261.571 296.849 260.805 296.836C259.803 296.848 258.823 296.535 258.011 295.944C257.065 295.206 256.289 294.271 255.734 293.204C255.593 292.937 255.377 292.543 255.078 292.005C253.714 289.398 252.238 288.095 250.65 288.095C248.168 288.095 245.995 289.858 244.13 293.383C242.264 296.907 241.338 301.143 241.351 306.089C241.351 309.063 241.898 311.339 242.991 312.919C244.085 314.499 245.668 315.288 247.741 315.288C249.136 315.257 250.5 314.859 251.697 314.135C253.257 313.196 254.664 312.017 255.865 310.642C256.088 310.394 256.416 310.018 256.849 309.502C258.38 307.698 259.745 306.796 260.943 306.796C261.901 306.796 262.688 307.252 263.311 308.164C263.934 309.076 264.243 310.262 264.243 311.72C264.243 314.039 263.514 316.306 262.058 318.52C260.602 320.734 259.375 321.842 258.378 321.845C258.158 321.841 257.939 321.82 257.722 321.782C257.541 321.751 257.358 321.731 257.174 321.722C256.907 321.722 256.348 322.01 255.495 322.585C254.639 323.157 253.943 323.576 253.415 323.877C251.7 324.789 249.879 325.482 247.993 325.939C246.053 326.415 244.063 326.654 242.066 326.649C236.549 326.649 232.105 324.966 228.733 321.6C225.361 318.234 223.677 313.828 223.679 308.382" fill="#ED1944"/>
<path d="M267.788 320.552L268.979 313.659C268.999 313.556 269.032 313.381 269.071 313.133C270.068 307.308 270.954 301.072 271.728 294.423L272.308 289.797C272.328 289.674 272.344 289.552 272.354 289.43C272.364 289.308 272.354 289.142 272.354 288.937C272.37 288.776 272.351 288.612 272.299 288.459C272.247 288.305 272.163 288.164 272.052 288.045C271.709 287.803 271.309 287.654 270.891 287.612C270.809 287.592 270.698 287.573 270.563 287.553C268.709 287.222 267.783 286.555 267.785 285.55C267.785 283.869 269.316 282.321 272.377 280.904C275.438 279.488 278.916 278.779 282.811 278.779C284.805 278.779 286.117 278.97 286.747 279.351C287.37 279.731 287.678 280.382 287.678 281.304C287.678 281.572 287.678 281.77 287.678 281.905C287.678 282.041 287.652 282.166 287.632 282.289L286.776 287.735C286.715 288.175 286.606 288.883 286.448 289.859C285.959 293.038 285.613 295.634 285.412 297.645C288.018 295.442 290.314 293.872 292.3 292.936C294.101 292.037 296.079 291.554 298.089 291.522C300.37 291.522 302.162 292.152 303.465 293.412C304.768 294.672 305.424 296.422 305.433 298.663C305.383 301.717 304.995 304.756 304.275 307.724C303.497 311.121 303.11 313.117 303.114 313.712C303.072 314.162 303.188 314.614 303.442 314.987C303.661 315.243 304.13 315.443 304.849 315.589C305.643 315.731 306.135 315.919 306.332 316.17C306.553 316.53 306.654 316.951 306.62 317.373C306.584 318.239 306.278 319.073 305.748 319.756C305.076 320.671 304.244 321.455 303.291 322.069C301.678 323.22 299.921 324.152 298.066 324.841C296.509 325.461 294.856 325.805 293.182 325.856C291.529 325.856 290.25 325.368 289.345 324.392C288.439 323.416 287.974 322.059 287.947 320.321C287.947 318.558 288.476 314.923 289.535 309.416L289.751 308.338L290.299 305.321C290.381 304.955 290.447 304.621 290.499 304.33C290.54 304.112 290.566 303.891 290.575 303.669C290.577 303.309 290.441 302.962 290.194 302.701C290.077 302.568 289.933 302.462 289.772 302.39C289.61 302.318 289.436 302.282 289.259 302.284C287.716 302.284 286.448 303.386 285.458 305.589C284.467 307.792 283.689 311.243 283.122 315.942C283.08 316.312 283.031 316.805 282.968 317.419C282.682 320.312 282.061 322.2 281.105 323.083C280.114 323.982 278.926 324.631 277.638 324.977C276.048 325.45 274.396 325.683 272.738 325.667C271.085 325.667 269.817 325.38 268.933 324.805C268.513 324.552 268.169 324.19 267.935 323.757C267.702 323.324 267.587 322.836 267.605 322.343C267.603 322.035 267.618 321.727 267.651 321.421C267.679 321.132 267.725 320.835 267.788 320.529" fill="#ED1944"/>
<path d="M331.552 299.102C330.896 299.102 330.178 299.528 329.4 300.378C328.379 301.569 327.499 302.875 326.776 304.271C325.903 305.871 325.195 307.558 324.664 309.304C324.205 310.691 323.943 312.138 323.886 313.599C323.863 314.125 323.984 314.646 324.237 315.106C324.32 315.278 324.448 315.423 324.607 315.526C324.766 315.629 324.95 315.686 325.139 315.691C325.769 315.691 326.484 315.258 327.274 314.369C328.25 313.23 329.082 311.974 329.751 310.629C330.644 308.92 331.38 307.133 331.948 305.288C332.431 303.874 332.71 302.397 332.775 300.903C332.798 300.437 332.676 299.974 332.424 299.582C332.326 299.43 332.193 299.306 332.035 299.22C331.878 299.134 331.701 299.089 331.522 299.089L331.552 299.102ZM345.846 294.793L345.085 301.102C344.676 304.446 344.365 307.016 344.153 308.811C343.941 310.607 343.813 311.638 343.77 311.904L343.589 314.858V314.981C343.589 315.657 344.136 316.047 345.229 316.151C345.393 316.148 345.556 316.158 345.718 316.18C345.878 316.2 346.032 316.254 346.17 316.339C346.307 316.424 346.425 316.538 346.515 316.673C346.733 317.011 346.839 317.41 346.82 317.813C346.78 318.804 346.421 319.755 345.797 320.522C344.968 321.575 343.959 322.47 342.818 323.166C341.354 324.131 339.772 324.902 338.112 325.459C336.7 325.983 335.216 326.28 333.713 326.338C332.834 326.393 331.961 326.162 331.224 325.677C330.582 325.155 330.163 324.406 330.049 323.582C329.947 323.106 329.875 322.624 329.833 322.138C329.711 320.949 329.469 320.351 329.101 320.351C328.734 320.351 328.206 320.744 327.461 321.52C327.076 321.952 326.668 322.363 326.241 322.753C324.976 323.868 323.535 324.761 321.977 325.397C320.531 326.009 318.98 326.334 317.411 326.352C314.803 326.352 312.762 325.402 311.288 323.503C309.814 321.604 309.076 318.953 309.074 315.549C309.086 312.514 309.677 309.51 310.815 306.7C312.016 303.714 313.721 300.96 315.853 298.56C317.545 296.521 319.557 294.775 321.81 293.392C323.887 292.158 325.802 291.543 327.553 291.545C329.422 291.568 331.249 292.105 332.837 293.098C334.569 294.136 335.455 294.654 335.494 294.654C335.577 294.654 336.539 294.187 338.381 293.253C340.222 292.319 341.948 291.852 343.56 291.852C344.208 291.806 344.854 291.979 345.393 292.345C345.603 292.526 345.767 292.753 345.873 293.01C345.979 293.267 346.023 293.545 346.003 293.822C345.941 294.294 345.902 294.621 345.879 294.813" fill="#ED1944"/>
<path d="M350.353 319.597L351.117 314.673C351.134 314.51 351.409 312.748 351.94 309.386C352.471 306.024 352.97 302.804 353.436 299.724L354.689 291.353C354.751 290.924 354.833 290.378 354.935 289.721C355.056 288.921 355.115 288.462 355.115 288.336C355.144 288.012 355.064 287.688 354.889 287.414C354.786 287.314 354.664 287.237 354.529 287.189C354.394 287.141 354.25 287.123 354.108 287.137C353.855 287.152 353.605 287.192 353.36 287.259C353.117 287.329 352.866 287.371 352.612 287.385C352.374 287.397 352.135 287.357 351.914 287.266C351.692 287.176 351.493 287.038 351.33 286.862C351.008 286.464 350.844 285.958 350.871 285.445C350.831 284.405 351.192 283.39 351.878 282.613C352.553 281.875 353.795 281.137 355.604 280.399C357.34 279.714 359.135 279.193 360.967 278.842C362.793 278.488 364.649 278.308 366.51 278.304C367.733 278.304 368.606 278.512 369.134 278.922C369.662 279.331 369.928 280.006 369.928 280.944C369.928 281.07 369.928 281.321 369.882 281.697C369.836 282.074 369.806 282.606 369.744 283.284L369.071 289.714C368.809 292.034 368.481 294.543 368.087 297.242C367.694 299.941 367.266 302.766 366.805 305.718L365.798 311.967C365.736 312.416 365.693 312.796 365.66 313.104C365.627 313.411 365.614 313.659 365.614 313.844C365.572 314.288 365.669 314.734 365.89 315.12C366.015 315.251 366.17 315.352 366.34 315.413C366.511 315.475 366.694 315.495 366.874 315.473C367.122 315.466 367.368 315.425 367.605 315.351C367.818 315.281 368.038 315.24 368.261 315.229C368.486 315.217 368.711 315.259 368.917 315.349C369.124 315.44 369.307 315.577 369.452 315.751C369.758 316.168 369.909 316.68 369.878 317.198C369.878 319.401 368.457 321.427 365.614 323.275C362.859 325.104 359.629 326.073 356.329 326.061C354.291 326.061 352.768 325.646 351.76 324.815C350.752 323.985 350.248 322.728 350.248 321.045C350.249 320.865 350.26 320.685 350.28 320.506C350.3 320.291 350.33 319.987 350.372 319.597" fill="#ED1944"/>
<path d="M373.322 319.597L374.087 314.673C374.106 314.51 374.381 312.748 374.91 309.386C375.439 306.024 375.938 302.804 376.406 299.724L377.658 291.353C377.721 290.924 377.803 290.378 377.904 289.721C378.026 288.921 378.085 288.462 378.085 288.336C378.113 288.012 378.034 287.688 377.859 287.414C377.756 287.314 377.633 287.237 377.499 287.189C377.364 287.141 377.22 287.123 377.078 287.137C376.825 287.152 376.575 287.192 376.33 287.259C376.086 287.329 375.835 287.371 375.582 287.385C375.344 287.397 375.105 287.357 374.884 287.266C374.662 287.176 374.463 287.038 374.3 286.862C373.978 286.464 373.814 285.958 373.841 285.445C373.801 284.405 374.161 283.39 374.848 282.613C375.523 281.875 376.765 281.137 378.574 280.399C380.31 279.714 382.105 279.193 383.936 278.842C385.763 278.488 387.619 278.308 389.48 278.304C390.703 278.304 391.579 278.512 392.104 278.922C392.628 279.331 392.888 280.006 392.888 280.944C392.888 281.07 392.888 281.321 392.842 281.697C392.796 282.074 392.766 282.606 392.704 283.284L392.031 289.714C391.769 292.034 391.441 294.543 391.047 297.242C390.654 299.941 390.225 302.766 389.762 305.718L388.755 311.967C388.692 312.416 388.65 312.796 388.617 313.104C388.584 313.411 388.571 313.659 388.571 313.844C388.529 314.288 388.625 314.734 388.847 315.12C388.972 315.251 389.126 315.352 389.297 315.413C389.468 315.475 389.651 315.495 389.831 315.473C390.088 315.473 390.344 315.437 390.592 315.364C390.804 315.295 391.025 315.254 391.248 315.242C391.472 315.231 391.697 315.272 391.904 315.362C392.11 315.453 392.293 315.59 392.438 315.764C392.746 316.181 392.898 316.693 392.868 317.211C392.868 319.414 391.447 321.44 388.604 323.288C385.848 325.117 382.618 326.086 379.318 326.074C377.282 326.074 375.759 325.659 374.749 324.828C373.739 323.998 373.225 322.737 373.208 321.045C373.209 320.865 373.22 320.685 373.24 320.506C373.26 320.291 373.29 319.987 373.332 319.597" fill="#ED1944"/>
<path d="M411.689 305.963C411.669 306.291 411.743 306.618 411.902 306.905C411.965 307.009 412.055 307.095 412.162 307.153C412.27 307.211 412.39 307.239 412.512 307.235C413.629 307.235 414.754 306.385 415.887 304.684C416.98 303.102 417.571 301.224 417.583 299.298C417.602 298.899 417.506 298.503 417.307 298.157C417.235 298.026 417.129 297.917 417 297.842C416.871 297.766 416.725 297.727 416.576 297.728C415.701 297.728 414.668 298.728 413.476 300.728C412.285 302.729 411.689 304.477 411.689 305.973V305.963ZM428.089 317.76C428.089 319.65 426.23 321.554 422.513 323.47C418.718 325.404 414.518 326.391 410.265 326.348C405.518 326.348 401.873 325.266 399.33 323.1C396.787 320.935 395.514 317.828 395.512 313.781C395.512 310.787 396.316 307.792 397.926 304.796C399.605 301.711 401.885 299 404.63 296.826C406.831 295.05 409.323 293.674 411.994 292.761C414.739 291.816 417.621 291.338 420.522 291.347C423.699 291.347 426.163 292.034 427.915 293.409C429.666 294.784 430.541 296.701 430.539 299.162C430.539 302.301 429.347 305.165 426.964 307.754C424.58 310.342 421.531 312.075 417.816 312.952C416.456 313.257 415.072 313.442 413.68 313.504C412.149 313.587 411.384 313.808 411.384 314.165C411.384 315.028 411.785 315.793 412.587 316.458C413.371 317.114 414.363 317.466 415.382 317.449C417.153 317.449 419.15 316.87 421.371 315.711C423.593 314.552 424.896 313.973 425.281 313.973C425.676 313.975 426.065 314.075 426.414 314.262C426.762 314.45 427.06 314.72 427.282 315.05C427.841 315.837 428.125 316.789 428.089 317.757" fill="#ED1944"/>
<path d="M436.033 311.135C436.339 309.394 436.573 307.846 436.735 306.489C436.882 305.355 436.963 304.214 436.977 303.072C436.977 302.394 436.885 301.955 436.705 301.75C436.525 301.545 436.049 301.443 435.331 301.443C434.27 301.443 433.557 301.308 433.192 301.039C432.825 300.775 432.641 300.312 432.641 299.655C432.66 298.785 432.985 297.951 433.56 297.302C434.367 296.394 435.329 295.639 436.4 295.071C438.29 294.003 440.292 293.152 442.37 292.534C444.556 291.873 446.364 291.542 447.791 291.542C448.69 291.542 449.369 291.757 449.838 292.203C450.307 292.649 450.665 293.403 450.907 294.516C450.989 294.847 451.071 295.286 451.15 295.838C451.294 296.929 451.59 297.49 452.039 297.49C452.367 297.49 453.177 297.031 454.42 296.106C454.971 295.696 455.409 295.378 455.732 295.151C457.258 294.04 458.91 293.116 460.652 292.398C462.052 291.839 463.542 291.546 465.048 291.532C467.245 291.532 468.966 292.148 470.21 293.379C471.454 294.611 472.075 296.303 472.073 298.455C472.069 299.212 472.023 299.967 471.936 300.719C471.844 301.547 471.696 302.609 471.493 303.904L470.423 310.272C470.343 310.867 470.21 311.616 470.027 312.519C469.895 313.076 469.803 313.641 469.751 314.211C469.751 315.137 470.341 315.706 471.522 315.92C472.703 316.133 473.293 316.684 473.293 317.572C473.293 319.438 471.858 321.279 468.987 323.094C466.285 324.86 463.135 325.805 459.914 325.817C458.104 325.817 456.785 325.417 455.959 324.617C455.132 323.818 454.72 322.514 454.722 320.708C454.722 319.97 454.941 318.442 455.378 316.125C455.815 313.807 456.12 311.96 456.293 310.583L457.048 305.451C457.067 305.329 457.084 305.19 457.094 305.038C457.103 304.886 457.094 304.674 457.094 304.407C457.128 303.832 457.001 303.259 456.726 302.754C456.614 302.573 456.456 302.425 456.268 302.325C456.08 302.225 455.869 302.177 455.657 302.186C454.793 302.216 453.976 302.586 453.381 303.217C452.588 304.013 451.978 304.974 451.593 306.033C450.882 307.758 450.313 310.681 449.884 314.803C449.681 316.785 449.497 318.293 449.333 319.327C448.985 321.666 448.008 323.333 446.401 324.326C444.794 325.32 442.35 325.818 439.07 325.82C437.259 325.82 435.971 325.549 435.206 325.007C434.441 324.465 434.059 323.547 434.061 322.251C434.061 321.575 434.28 320.143 434.717 317.955C434.842 317.321 434.934 316.838 434.993 316.508L436.033 311.135Z" fill="#ED1944"/>
<path d="M495.506 297.07C494.281 297.07 493.289 297.989 492.528 299.826C491.767 301.663 491.384 304.007 491.38 306.858C491.334 307.521 491.494 308.182 491.839 308.748C492.003 308.962 492.217 309.132 492.462 309.242C492.707 309.352 492.975 309.399 493.243 309.379C493.789 309.381 494.32 309.191 494.742 308.841C495.19 308.481 495.52 307.994 495.69 307.443C496.114 306.027 496.436 304.581 496.651 303.117C496.889 301.77 497.027 300.407 497.064 299.039C497.103 298.515 496.974 297.991 496.696 297.546C496.549 297.378 496.365 297.247 496.158 297.164C495.951 297.081 495.727 297.049 495.506 297.07V297.07ZM482.858 328.43C482.838 328.509 482.793 328.661 482.724 328.876C482.669 329.009 482.633 329.149 482.615 329.292C482.615 330.297 483.114 331.081 484.111 331.645C485.108 332.209 486.516 332.491 488.336 332.491C490.802 332.491 492.697 332.25 494.02 331.768C495.343 331.285 495.999 330.603 495.988 329.722C495.987 329.618 495.96 329.515 495.909 329.424C495.859 329.333 495.787 329.256 495.699 329.2C495.481 329.047 495.218 328.97 494.952 328.982C494.85 328.982 494.624 329.005 494.296 329.045C492.899 329.244 491.491 329.347 490.081 329.352C488.874 329.352 487.669 329.275 486.473 329.121C485.264 328.964 484.065 328.734 482.884 328.43H482.858ZM481.267 313.596C479.768 312.735 478.522 311.487 477.659 309.981C476.802 308.446 476.365 306.709 476.393 304.948C476.393 300.969 478.195 297.708 481.799 295.163C485.402 292.619 490.104 291.346 495.903 291.346C496.696 291.346 497.595 291.383 498.605 291.452C499.616 291.522 500.777 291.634 502.102 291.783C503.09 290.971 503.972 290.036 504.726 289C505.631 287.797 506.287 287.199 506.694 287.199C507.527 287.199 508.511 287.789 509.646 288.967C510.781 290.146 511.352 291.3 511.358 292.43C511.352 292.988 511.214 293.536 510.958 294.03C510.619 294.666 510.187 295.248 509.675 295.755C510.4 296.519 510.971 297.416 511.358 298.398C511.721 299.42 511.897 300.499 511.876 301.584C511.876 305.708 510.127 309.057 506.628 311.63C503.13 314.203 498.497 315.49 492.731 315.493C491.876 315.493 490.979 315.446 490.041 315.354C489.103 315.261 488.147 315.124 487.171 314.941C486.954 315.076 486.771 315.261 486.637 315.479C486.523 315.681 486.465 315.909 486.469 316.14C486.469 316.775 486.805 317.257 487.476 317.588C488.148 317.918 489.125 318.082 490.409 318.08C491.67 318.08 493.478 317.998 495.831 317.832C498.183 317.667 499.899 317.586 500.977 317.588C503.402 317.588 505.408 318.306 506.996 319.742C507.752 320.415 508.352 321.247 508.755 322.178C509.158 323.11 509.353 324.119 509.328 325.135C509.328 328.913 507.469 331.998 503.752 334.388C500.034 336.778 495.114 337.979 488.992 337.99C484.737 337.99 481.336 337.297 478.791 335.911C476.246 334.526 474.975 332.743 474.98 330.565C474.977 329.768 475.205 328.989 475.636 328.321C476.137 327.572 476.794 326.941 477.561 326.474C476.614 325.89 475.835 325.068 475.301 324.088C474.767 323.092 474.494 321.975 474.507 320.843C474.507 319.448 475.077 318.14 476.216 316.917C477.355 315.694 479.036 314.593 481.258 313.612" fill="#ED1944"/>
<path d="M529.411 305.963C529.391 306.291 529.465 306.617 529.624 306.904C529.688 307.009 529.778 307.094 529.885 307.153C529.992 307.211 530.113 307.239 530.234 307.235C531.356 307.235 532.481 306.384 533.61 304.684C534.702 303.102 535.293 301.224 535.305 299.297C535.326 298.898 535.23 298.502 535.03 298.157C534.957 298.026 534.851 297.917 534.723 297.841C534.594 297.766 534.447 297.727 534.298 297.728C533.424 297.728 532.391 298.728 531.199 300.728C530.007 302.729 529.411 304.477 529.411 305.973V305.963ZM545.811 317.76C545.811 319.65 543.953 321.553 540.235 323.47C536.439 325.404 532.238 326.391 527.984 326.348C523.242 326.348 519.596 325.265 517.049 323.1C514.501 320.934 513.229 317.831 513.231 313.791C513.231 310.797 514.036 307.802 515.645 304.806C517.328 301.719 519.614 299.007 522.366 296.835C524.565 295.059 527.056 293.683 529.726 292.771C532.471 291.826 535.353 291.348 538.254 291.357C541.433 291.357 543.898 292.044 545.647 293.419C547.397 294.793 548.271 296.711 548.271 299.172C548.271 302.311 547.079 305.175 544.696 307.764C542.313 310.352 539.27 312.082 535.568 312.952C534.207 313.257 532.822 313.442 531.428 313.504C529.898 313.587 529.132 313.808 529.132 314.164C529.132 315.027 529.533 315.79 530.339 316.458C531.123 317.113 532.113 317.465 533.131 317.449C534.906 317.449 536.903 316.87 539.12 315.711C541.337 314.552 542.641 313.973 543.03 313.973C543.425 313.975 543.814 314.075 544.162 314.262C544.511 314.45 544.809 314.72 545.031 315.05C545.591 315.837 545.876 316.789 545.841 317.756" fill="#ED1944"/>
</g>
<defs>
<clipPath id="clip0_103_101">
<rect width="328" height="153" fill="white" transform="translate(222 185)"/>
</clipPath>
</defs>
</svg>
