<svg width="1246" height="700" viewBox="0 0 1246 700" fill="none" xmlns="http://www.w3.org/2000/svg">
<rect width="1246" height="700" fill="white"/>
<g clip-path="url(#clip0_103_77)">
<path d="M399.688 313.954C377.463 313.954 359.397 331.077 359.397 352.155C359.397 373.233 377.365 390.376 399.688 390.376C422.01 390.376 439.958 373.233 439.958 352.155C439.958 331.077 421.795 313.954 399.688 313.954ZM399.688 371.149C397.123 371.214 394.57 370.774 392.176 369.854C389.781 368.934 387.592 367.553 385.733 365.789C383.874 364.026 382.382 361.914 381.341 359.574C380.301 357.235 379.733 354.714 379.669 352.155C379.897 347.012 382.106 342.155 385.835 338.596C389.564 335.037 394.526 333.051 399.688 333.051C404.849 333.051 409.811 335.037 413.54 338.596C417.269 342.155 419.478 347.012 419.706 352.155C419.642 354.714 419.074 357.235 418.034 359.574C416.993 361.914 415.501 364.026 413.642 365.789C411.783 367.553 409.594 368.934 407.199 369.854C404.805 370.774 402.252 371.214 399.688 371.149Z" fill="#007CBA"/>
<path d="M335.923 390.689H180.133C179.836 390.689 179.55 390.573 179.339 390.365C179.127 390.157 179.005 389.875 179 389.579V372.806C179 372.658 179.029 372.512 179.087 372.376C179.144 372.24 179.227 372.117 179.333 372.014C179.438 371.91 179.563 371.829 179.701 371.774C179.838 371.72 179.985 371.693 180.133 371.695H335.923C336.07 371.693 336.217 371.72 336.355 371.774C336.492 371.829 336.617 371.91 336.722 372.014C336.828 372.117 336.912 372.24 336.969 372.376C337.026 372.512 337.055 372.658 337.055 372.806V389.579C337.05 389.875 336.929 390.157 336.717 390.365C336.505 390.573 336.22 390.689 335.923 390.689Z" fill="#A2D45E"/>
<path d="M438.747 427.001H180.113C179.829 426.996 179.557 426.886 179.351 426.691C179.145 426.496 179.02 426.231 179 425.949V409.195C179 408.899 179.117 408.615 179.325 408.403C179.533 408.192 179.816 408.071 180.113 408.065H438.747C439.048 408.065 439.336 408.184 439.548 408.396C439.761 408.608 439.88 408.896 439.88 409.195V425.949C439.88 426.248 439.761 426.536 439.548 426.748C439.336 426.959 439.048 427.078 438.747 427.078" fill="#FFB600"/>
<path d="M512.961 277.039H493.431V337.74H504.797V316.02H512.433C526.671 316.02 535.166 307.526 535.166 296.188C535.166 284.091 527.53 277.039 512.961 277.039ZM512.101 306.494H504.836V286.662H511.418C519.445 286.662 523.546 289.623 523.546 296.286C523.546 302.948 518.937 306.494 512.062 306.494H512.101Z" fill="#48484A"/>
<path d="M569.285 304.954C567.852 304.279 566.279 303.952 564.696 304C560.6 304.091 556.658 305.576 553.524 308.208V337.74H543.213V295.428H552.177L553.231 299.812C557.626 295.721 561.043 294.474 564.5 294.474C566.215 294.38 567.909 294.89 569.285 295.915V304.954Z" fill="#48484A"/>
<path d="M610.161 330.026C608.873 330.041 607.609 329.675 606.529 328.974C606.529 326.87 607.095 310.293 607.095 308.87C607.095 299.13 601.47 294.377 590.768 294.377C585.735 294.195 580.788 295.712 576.726 298.682V308.422C578.835 306.046 583.796 303.864 589.342 303.864C591.305 303.754 593.265 304.108 595.064 304.896C596.412 305.578 596.881 306.435 596.881 308.325V312.708C581.12 314.52 574.734 319.195 574.734 328.059C574.734 334.818 579.694 338.734 586.862 338.734C591.056 338.805 595.162 337.535 598.58 335.111C599.698 336.282 601.048 337.208 602.544 337.832C604.04 338.455 605.65 338.763 607.271 338.734C608.307 338.761 609.341 338.63 610.337 338.344L611.294 329.87C610.927 329.982 610.545 330.035 610.161 330.026ZM596.881 329.344C595.009 330.372 592.904 330.902 590.768 330.883C586.471 330.883 584.753 329.637 584.753 326.578C584.753 322.682 587.819 321.065 596.881 319.721V329.344Z" fill="#48484A"/>
<path d="M293.015 275.733C270.79 275.733 252.745 292.876 252.745 313.935C252.755 320.732 254.669 327.392 258.272 333.162H180.445C180.152 333.167 179.871 333.286 179.664 333.493C179.456 333.7 179.337 333.979 179.332 334.272V351.045C179.332 351.341 179.449 351.626 179.657 351.837C179.865 352.049 180.148 352.17 180.445 352.175H291.902H292.137H293.015C315.221 352.155 333.286 335.013 333.286 313.935C333.286 292.857 315.221 275.733 293.015 275.733ZM293.015 332.928C290.451 332.993 287.898 332.553 285.504 331.633C283.109 330.714 280.92 329.333 279.061 327.569C277.202 325.805 275.71 323.693 274.669 321.353C273.629 319.014 273.061 316.493 272.997 313.935C273.225 308.792 275.434 303.934 279.163 300.375C282.892 296.816 287.854 294.83 293.015 294.83C298.177 294.83 303.139 296.816 306.868 300.375C310.597 303.934 312.806 308.792 313.034 313.935C312.97 316.493 312.402 319.014 311.362 321.353C310.321 323.693 308.829 325.805 306.97 327.569C305.111 329.333 302.922 330.714 300.527 331.633C298.133 332.553 295.58 332.993 293.015 332.928Z" fill="#3CB4E5"/>
<path d="M623.305 286.857C622.447 286.921 621.586 286.8 620.779 286.501C619.973 286.203 619.241 285.734 618.632 285.128C618.024 284.521 617.555 283.791 617.255 282.986C616.956 282.182 616.835 281.323 616.899 280.467C616.899 278.747 617.584 277.097 618.804 275.88C620.023 274.664 621.677 273.98 623.402 273.98C625.127 273.98 626.781 274.664 628.001 275.88C629.221 277.097 629.906 278.747 629.906 280.467C629.957 281.337 629.82 282.207 629.503 283.018C629.187 283.83 628.699 284.564 628.072 285.17C627.446 285.777 626.696 286.241 625.873 286.532C625.05 286.823 624.174 286.934 623.305 286.857Z" fill="#48484A"/>
<path d="M628.558 295.331H618.246V337.721H628.558V295.331Z" fill="#48484A"/>
<path d="M665.001 305.169C663.572 304.484 661.996 304.156 660.412 304.215C656.318 304.297 652.375 305.775 649.24 308.403V337.877H638.929V295.429H647.912L648.967 299.812C653.342 295.702 656.779 294.474 660.236 294.474C661.943 294.374 663.63 294.878 665.001 295.896V305.169Z" fill="#48484A"/>
<path d="M678.965 286.994C678.108 287.061 677.247 286.942 676.441 286.646C675.635 286.35 674.902 285.883 674.294 285.278C673.685 284.673 673.215 283.944 672.916 283.14C672.616 282.337 672.495 281.478 672.559 280.624C672.511 279.743 672.643 278.862 672.947 278.034C673.252 277.206 673.722 276.449 674.33 275.809C674.938 275.168 675.67 274.658 676.482 274.31C677.294 273.961 678.169 273.781 679.053 273.781C679.937 273.781 680.812 273.961 681.624 274.31C682.436 274.658 683.168 275.168 683.776 275.809C684.384 276.449 684.854 277.206 685.159 278.034C685.463 278.862 685.595 279.743 685.547 280.624C685.598 281.49 685.461 282.358 685.146 283.167C684.83 283.976 684.344 284.708 683.719 285.313C683.094 285.917 682.346 286.38 681.526 286.671C680.706 286.961 679.832 287.071 678.965 286.994Z" fill="#48484A"/>
<path d="M684.296 295.487H673.984V337.877H684.296V295.487Z" fill="#48484A"/>
<path d="M730.797 311.967C730.797 300.824 723.923 294.532 713.416 294.532C701.698 294.532 692.499 302.811 692.499 317.013C692.499 330.162 701.092 338.831 715.232 338.831C720.283 339.059 725.264 337.584 729.372 334.643V325.117C725.816 328.071 721.302 329.629 716.677 329.5C709.881 329.5 705.311 326.441 703.67 322.156C703.166 321.113 702.874 319.98 702.811 318.824H730.426C730.683 316.548 730.807 314.258 730.797 311.967ZM720.876 311.305H703.397C703.572 308.947 704.652 306.748 706.414 305.165C708.175 303.583 710.48 302.74 712.849 302.811C718.396 302.811 720.876 305.772 720.876 310.253V311.305Z" fill="#48484A"/>
<path d="M541.767 421.76C537.471 425.188 530.401 427 523.605 427C503.176 427 488.841 415.078 488.841 396.61C488.841 377.656 503.079 364.409 522.277 364.409C530.87 364.409 537.275 366.221 541.377 369.065V380.753C537.744 377.325 530.303 374.656 522.843 374.656C510.344 374.656 500.774 381.513 500.774 396.572C500.774 408.864 509.855 416.675 523.8 416.675C531.26 416.675 538.603 413.909 541.767 410.286V421.76Z" fill="#48484A"/>
<path d="M551.884 359.266V426.045H562.215V357.26L551.884 359.266Z" fill="#48484A"/>
<path d="M578.328 375.162C577.469 375.244 576.602 375.135 575.79 374.843C574.978 374.552 574.241 374.085 573.631 373.477C573.021 372.868 572.553 372.133 572.261 371.323C571.969 370.513 571.86 369.649 571.941 368.792C571.867 367.923 571.984 367.049 572.284 366.23C572.583 365.411 573.058 364.666 573.675 364.049C574.292 363.431 575.037 362.956 575.857 362.654C576.678 362.353 577.554 362.234 578.425 362.305C579.272 362.312 580.108 362.484 580.888 362.813C581.667 363.142 582.374 363.621 582.968 364.222C583.562 364.824 584.031 365.536 584.349 366.319C584.667 367.101 584.828 367.938 584.821 368.782C584.815 369.627 584.642 370.461 584.312 371.239C583.982 372.016 583.502 372.721 582.899 373.314C582.296 373.906 581.582 374.374 580.798 374.692C580.013 375.009 579.174 375.169 578.328 375.162Z" fill="#48484A"/>
<path d="M583.581 383.637H573.269V426.026H583.581V383.637Z" fill="#48484A"/>
<path d="M647.99 426.045V397.272C647.99 393.649 646.272 392.032 642.268 392.032C638.583 392.141 635.006 393.297 631.956 395.363V426.045H621.625V397.272C621.625 393.649 619.906 392.032 615.903 392.032C612.212 392.193 608.64 393.381 605.591 395.461V426.045H595.279V383.656H604.244L605.103 387.746C609.035 384.523 613.957 382.742 619.047 382.701C624.906 382.701 628.5 385.078 630.238 388.039C634.488 384.497 639.875 382.602 645.413 382.701C652.873 382.701 658.302 386.13 658.302 395.558V426.045H647.99Z" fill="#48484A"/>
<path d="M702.616 418.332C701.334 418.344 700.077 417.978 699.003 417.28C699.003 415.176 699.569 398.598 699.569 397.176C699.569 387.436 693.925 382.702 683.242 382.702C678.211 382.51 673.262 384.02 669.2 386.988V396.728C671.29 394.332 676.27 392.15 681.797 392.15C683.768 392.038 685.737 392.398 687.539 393.202C688.867 393.864 689.355 394.721 689.355 396.63V401.014C673.594 402.825 667.188 407.481 667.188 416.345C667.188 423.104 672.149 427.02 679.317 427.02C683.51 427.088 687.615 425.819 691.035 423.397C692.149 424.573 693.498 425.504 694.995 426.128C696.492 426.752 698.103 427.056 699.725 427.02C700.755 427.047 701.783 426.916 702.772 426.63L703.768 418.156C703.396 418.278 703.007 418.338 702.616 418.332ZM689.355 417.669C687.479 418.684 685.376 419.207 683.242 419.189C678.945 419.189 677.227 417.942 677.227 414.903C677.227 411.007 680.274 409.371 689.355 408.046V417.669Z" fill="#48484A"/>
<path d="M734.312 422.812C732.922 424.219 731.251 425.319 729.407 426.04C727.564 426.762 725.589 427.089 723.61 427C716.345 427 712.146 423.377 712.146 416.422V392.13H705.662V383.656H712.166V374.5L722.477 372.026V383.715H733.375V392.189H722.477V414.611C722.477 416.793 723.63 417.942 727.262 417.942C728.609 417.969 729.944 417.692 731.168 417.132C732.392 416.572 733.474 415.743 734.332 414.708L734.312 422.812Z" fill="#48484A"/>
<path d="M776.438 400.136C776.438 388.974 769.564 382.604 759.057 382.604C747.339 382.604 738.14 390.883 738.14 405.084C738.14 418.233 746.733 426.902 760.853 426.902C765.904 427.131 770.885 425.655 774.993 422.714V413.285C771.438 416.237 766.922 417.789 762.299 417.649C755.522 417.649 750.932 414.61 749.311 410.324C748.801 409.284 748.509 408.15 748.452 406.993H776.047C776.321 404.718 776.451 402.428 776.438 400.136ZM766.497 399.454H749.018C749.198 397.1 750.281 394.905 752.041 393.327C753.802 391.749 756.105 390.908 758.471 390.98C764.017 390.98 766.497 393.941 766.497 398.422V399.454Z" fill="#48484A"/>
<path d="M859.148 421.76C854.851 425.188 847.781 427 841.004 427C820.557 427 806.222 415.078 806.222 396.61C806.222 377.656 820.459 364.409 839.657 364.409C848.25 364.409 854.656 366.221 858.757 369.065V380.753C855.124 377.325 847.684 374.656 840.223 374.656C827.724 374.656 818.174 381.513 818.174 396.572C818.174 408.864 827.236 416.675 841.18 416.675C848.64 416.675 855.984 413.909 859.148 410.286V421.76Z" fill="#48484A"/>
<path d="M904.926 400.136C904.926 388.974 898.051 382.604 887.544 382.604C875.826 382.604 866.627 390.883 866.627 405.084C866.627 418.233 875.221 426.902 889.36 426.902C894.42 427.172 899.423 425.731 903.558 422.811V413.285C899.993 416.234 895.473 417.785 890.844 417.649C884.068 417.649 879.478 414.61 877.857 410.324C877.356 409.28 877.064 408.149 876.998 406.993H904.535C904.808 404.718 904.939 402.428 904.926 400.136ZM894.985 399.454H877.506C877.685 397.1 878.768 394.905 880.529 393.327C882.289 391.749 884.592 390.908 886.958 390.98C892.505 390.98 894.985 393.941 894.985 398.422V399.454Z" fill="#48484A"/>
<path d="M942.833 426.045V397.272C942.833 393.649 941.017 392.032 936.525 392.032C932.678 392.163 928.941 393.35 925.725 395.46V426.045H915.413V383.655H924.397L925.256 387.746C929.466 384.423 934.692 382.642 940.06 382.701C947.872 382.701 953.145 386.129 953.145 395.558V426.045H942.833Z" fill="#48484A"/>
<path d="M989.49 422.812C988.104 424.218 986.436 425.318 984.595 426.04C982.755 426.761 980.783 427.088 978.807 427C971.542 427 967.343 423.377 967.343 416.422V392.13H960.84V383.656H967.343V374.5L977.655 372.026V383.715H988.533V392.189H977.655V414.611C977.655 416.793 978.807 417.942 982.42 417.942C983.767 417.973 985.104 417.698 986.329 417.138C987.554 416.577 988.635 415.747 989.49 414.708V422.812Z" fill="#48484A"/>
<path d="M1025.8 393.279C1024.37 392.594 1022.79 392.266 1021.21 392.325C1017.11 392.407 1013.17 393.885 1010.04 396.513V426.045H999.724V383.656H1008.71L1009.74 388.039C1014.14 383.928 1017.55 382.701 1021.03 382.701C1022.74 382.605 1024.42 383.108 1025.8 384.123V393.279Z" fill="#48484A"/>
<path d="M1068 400.136C1068 388.974 1061.13 382.604 1050.62 382.604C1038.9 382.604 1029.7 390.883 1029.7 405.084C1029.7 418.233 1038.29 426.902 1052.43 426.902C1057.49 427.131 1062.47 425.655 1066.57 422.714V413.285C1063.02 416.234 1058.5 417.786 1053.88 417.649C1047.08 417.649 1042.51 414.61 1040.87 410.324C1040.37 409.28 1040.08 408.149 1040.01 406.993H1067.61C1067.88 404.718 1068.01 402.428 1068 400.136ZM1058.08 399.454H1040.6C1040.77 397.102 1041.85 394.907 1043.61 393.328C1045.37 391.75 1047.67 390.908 1050.03 390.98C1055.58 390.98 1058.06 393.941 1058.06 398.422L1058.08 399.454Z" fill="#48484A"/>
</g>
<defs>
<clipPath id="clip0_103_77">
<rect width="889" height="153" fill="white" transform="translate(179 274)"/>
</clipPath>
</defs>
</svg>
